<svg width="15" height="14" viewBox="0 0 15 14" fill="none" xmlns="http://www.w3.org/2000/svg">
<path d="M14.8657 1.28737C14.8531 0.875099 14.6491 0.511346 14.3419 0.277759C14.1147 0.107361 13.8307 0.00441248 13.5259 0.00441248C12.2072 0.00441248 11.2397 0.0190857 9.92294 0.000152555C9.25626 -0.0102607 8.58744 0.51324 8.58105 1.31884V1.36097C8.58105 2.21698 8.58105 6.75383 8.58105 6.75383C8.58105 6.83595 8.68211 6.87784 8.7408 6.82104C8.99948 6.56237 9.50854 6.05543 9.79254 5.7757L9.81999 5.74824C9.85147 5.71677 9.90614 5.6957 9.95039 5.6957C10.5352 5.69357 11.1219 5.69144 11.7088 5.69144C12.2808 5.69144 12.5606 5.76718 13.1158 5.6053C13.5995 5.46448 14.0371 5.1509 14.3462 4.75567C14.487 4.57486 14.607 4.37299 14.6974 4.15408C14.8931 3.67862 14.8803 1.77939 14.8657 1.28737ZM13.3534 3.40101H12.2134V4.54528H11.2416V3.41592H10.1016V2.44205H11.227V1.29778H12.2091V2.43566H13.3534V3.40101Z" fill="#B7B7B9"/>
<path d="M10.7529 11.9143L10.7479 12.0433V12.1368C10.747 12.1763 10.7458 12.218 10.7458 12.2587C10.7479 12.4139 10.6442 12.6892 10.4746 12.7897C10.4502 12.803 10.4267 12.8172 10.4085 12.8305C10.2197 12.9483 10.0157 13.0711 9.80338 13.1665C9.12723 13.4671 8.34009 13.6824 7.32787 13.8417C6.98968 13.8954 6.66995 13.934 6.34998 13.9605C6.04539 13.987 5.74483 14 5.42912 14H5.33067C5.01496 14 4.7144 13.9868 4.40981 13.9605C4.09102 13.934 3.77105 13.8954 3.43191 13.8417C2.41852 13.6813 1.63256 13.4671 0.958304 13.1665C0.746016 13.0711 0.541065 12.9493 0.355048 12.8323C0.332801 12.8172 0.310318 12.803 0.288072 12.7907C0.117437 12.6901 0.014015 12.4151 0.0159083 12.2575C0.0159083 12.1813 0.0137784 12.1001 0.011885 12.0393L0.00478513 11.9011C-0.00444476 11.5437 -0.0146213 11.175 0.122644 10.8704C0.284048 10.5119 0.621294 10.2428 0.953334 9.99711C1.10977 9.87925 1.28443 9.76258 1.47328 9.65087C1.51588 9.74222 1.56677 9.84281 1.62972 9.96563C1.65907 10.0224 1.68959 10.0795 1.72107 10.1372C1.28537 10.5251 1.12089 11.2685 1.31401 12.0116C1.32821 12.0705 1.34643 12.1335 1.36773 12.1974L1.39613 12.2857C1.42145 12.3649 1.44796 12.4471 1.48961 12.5313C1.60037 12.7578 1.74142 12.8726 1.90898 12.8726C1.93951 12.8726 1.97099 12.8686 2.00554 12.8605L2.02069 12.8555C2.05122 12.8484 2.07252 12.8423 2.09689 12.8352C2.18635 12.8728 2.2919 12.8778 2.38231 12.8463C2.52241 12.7985 2.62489 12.6787 2.6514 12.5356L2.66654 12.4461H2.65447C2.64832 12.2279 2.46964 12.0521 2.25143 12.0521C2.12648 12.0521 2.01288 12.1079 1.93762 12.1993C1.92744 12.1709 1.91821 12.1403 1.90827 12.1079C1.90425 12.0947 1.89904 12.0814 1.89502 12.0684C1.891 12.0532 1.88579 12.039 1.88082 12.0248C1.64321 11.3222 1.80556 10.6103 2.2351 10.4418C2.70323 10.3138 3.25347 10.788 3.48919 11.4845C3.49842 11.5089 3.50741 11.5323 3.51853 11.5657L3.5235 11.582C3.52847 11.5941 3.53273 11.6064 3.53676 11.6185C3.50315 11.6216 3.46883 11.6287 3.43617 11.6398C3.33464 11.6734 3.25229 11.7453 3.20472 11.8419C3.15691 11.9385 3.14981 12.048 3.18436 12.1496C3.23927 12.314 3.39263 12.4236 3.56516 12.4236C3.61083 12.4236 3.65343 12.4165 3.69508 12.4023C3.79567 12.3678 3.8759 12.2987 3.92347 12.2064C4.02192 12.1576 4.12652 12.053 4.12652 11.8308C4.12652 11.774 4.12037 11.7129 4.10712 11.645C4.08889 11.5527 4.06049 11.4734 4.03304 11.3972L4.02594 11.3799C4.01671 11.3556 4.00961 11.3321 4.00156 11.3059C3.71615 10.4671 3.05112 9.8802 2.3861 9.8802C2.34752 9.8802 2.308 9.88328 2.26114 9.88825C2.21026 9.79476 2.16576 9.71146 2.126 9.63241C2.0782 9.54011 2.03252 9.44568 1.993 9.36025L1.99915 9.35717C2.04483 9.33374 2.08956 9.31055 2.13713 9.28617L2.36858 9.16642C2.47224 9.11365 2.57566 9.06087 2.68335 9.00999L2.68832 9.00786C2.86913 8.92455 3.02036 8.86562 3.16851 8.82113C3.17774 8.81711 3.18673 8.81403 3.19691 8.81001L3.21111 8.83344C3.24755 8.88929 3.28424 8.94514 3.32281 9.00005C3.46907 9.21423 3.5919 9.38794 3.70763 9.54532C3.93814 9.86221 4.16865 10.1597 4.36366 10.4084C4.41857 10.4785 4.47442 10.5476 4.53027 10.6176C4.58612 10.6877 4.64292 10.7587 4.69878 10.8299C4.71085 10.8451 4.72315 10.8593 4.73522 10.8735C4.74634 10.8867 4.75652 10.9 4.76764 10.913L4.8713 11.0451L4.90183 10.8796C4.96786 10.5313 5.05424 10.0532 5.06324 9.97794L5.06726 9.91901C5.06726 9.91191 5.06631 9.90387 5.06513 9.90079L5.05708 9.86008C5.04904 9.84186 5.03886 9.82151 5.02466 9.80021L4.95153 9.6885C4.91296 9.62957 4.87438 9.57064 4.83888 9.51171C4.83675 9.50958 4.83675 9.50367 4.83675 9.50059L4.84787 9.46698C4.8642 9.42036 4.8803 9.37161 4.8997 9.32286L4.921 9.25896C4.94538 9.19387 4.96881 9.1269 4.99106 9.06205C4.99508 9.05992 4.99816 9.05803 5.00029 9.05708C5.02466 9.04904 5.15861 9.03768 5.38202 9.03768C5.61466 9.03768 5.75477 9.04998 5.77702 9.05708L5.78814 9.06111C5.80329 9.10986 5.82056 9.15861 5.83784 9.20642L5.89156 9.3567C5.90789 9.40545 5.92517 9.45515 5.94126 9.49586C5.94221 9.49988 5.94031 9.50911 5.94031 9.511C5.90268 9.57088 5.86411 9.63076 5.82553 9.68969L5.75146 9.80447C5.7382 9.82269 5.73016 9.8421 5.72306 9.86032L5.7169 9.88067C5.71193 9.89582 5.71193 9.91002 5.71193 9.91925L5.7169 9.98007C5.72495 10.0511 5.80731 10.5133 5.87334 10.8614L5.90576 11.0351L6.00942 10.8929C6.02457 10.8725 6.0409 10.8522 6.0603 10.8309C6.12325 10.7506 6.18621 10.6714 6.24916 10.5933L6.43092 10.3658C6.63208 10.1069 6.84626 9.83074 7.05027 9.54745C7.1925 9.35149 7.3203 9.17068 7.44124 8.99413C7.48194 8.93425 7.52146 8.87319 7.56312 8.8093C7.57329 8.81332 7.58442 8.81734 7.59672 8.82255C7.74085 8.86633 7.89232 8.92502 8.07194 9.00833L8.07904 9.01235C8.18365 9.06111 8.28825 9.11388 8.39073 9.16666L8.62621 9.28759C8.74289 9.34747 8.86595 9.41255 8.99067 9.48047C8.96227 9.60023 8.9308 9.71406 8.89719 9.82056C8.79779 10.1304 8.6707 10.4177 8.51948 10.6756C8.39854 10.6278 8.26861 10.6016 8.13774 10.6016C7.57519 10.6016 7.11819 11.0595 7.11819 11.6211C7.11819 12.1531 7.53353 12.599 8.06248 12.6364C8.08685 12.6385 8.11336 12.6385 8.1375 12.6385C8.38931 12.6385 8.63 12.5472 8.81365 12.3817C9.03185 12.1889 9.15681 11.9117 9.15681 11.6211C9.15681 11.4029 9.08581 11.1885 8.9547 11.0119C9.11705 10.745 9.25526 10.4525 9.36602 10.1396C9.40555 10.0288 9.44223 9.90813 9.47867 9.7711C9.58328 9.83807 9.69688 9.91523 9.80669 9.99853C10.1387 10.2454 10.4769 10.5164 10.6374 10.8709C10.7763 11.1792 10.7642 11.5529 10.7529 11.9143Z" fill="#B7B7B9"/>
<path d="M8.6124 11.6208C8.6124 11.8819 8.39917 12.0939 8.13813 12.0939C7.87709 12.0939 7.66504 11.8816 7.66504 11.6208C7.66504 11.3588 7.87733 11.1465 8.13813 11.1465C8.19304 11.1465 8.24771 11.1567 8.29953 11.1749C8.40911 11.2157 8.5007 11.2947 8.55655 11.3984C8.593 11.4665 8.6124 11.5427 8.6124 11.6208Z" fill="#B7B7B9"/>
<path d="M7.96445 4.90101C7.97155 4.76943 7.897 4.58956 7.75571 4.55619C7.68424 4.53939 7.61939 4.56921 7.5846 4.49182C7.56496 4.44804 7.59785 4.33207 7.60306 4.28521C7.61608 4.16854 7.6227 4.04381 7.65134 3.92974C7.70435 3.71769 7.73725 3.50043 7.74506 3.28176C7.76944 2.60868 7.43716 2.05465 6.82183 1.78083C6.75178 1.7496 6.68102 1.72096 6.60978 1.69469C6.21314 1.54796 5.80134 1.47696 5.37961 1.47341C5.28849 1.47246 5.19714 1.47483 5.10508 1.48051C4.81067 1.49802 4.49614 1.52121 4.22634 1.65138C4.1996 1.6644 4.17404 1.67883 4.14919 1.69445C4.04955 1.75835 3.96649 1.84497 3.90069 1.9439C3.83372 2.04424 3.81147 2.10104 3.71326 2.17985C3.6264 2.24943 3.54877 2.30079 3.45198 2.34338C3.36631 2.38149 3.28963 2.44184 3.24324 2.52467C3.14787 2.69388 3.11426 2.89954 3.10621 3.09148C3.09627 3.33193 3.10692 3.57262 3.12373 3.81236C3.12964 3.89756 3.14597 3.98275 3.16301 4.06748C3.18928 4.19741 3.21697 4.32734 3.212 4.45869C3.21034 4.49939 3.19354 4.52258 3.16869 4.53726C3.16088 4.53915 3.15236 4.54057 3.14337 4.54152C3.09675 4.54696 3.04918 4.54483 3.00326 4.55595C2.86198 4.58932 2.78743 4.76919 2.79453 4.90101C2.795 4.90929 2.79547 4.91781 2.79595 4.92633C2.79216 4.98787 2.79429 5.05035 2.79784 5.11093C2.80541 5.23494 2.83026 5.3573 2.84541 5.48084C2.87902 5.75489 3.00752 6.0183 3.26951 6.1487C3.32418 6.19225 3.36039 6.23698 3.38027 6.3146C3.53765 6.92638 3.84366 7.41959 4.34041 7.75896C4.40171 7.80062 4.46585 7.84014 4.5333 7.87753C4.61376 7.91847 4.72144 7.96675 4.86084 8.01409C4.86865 8.0174 4.87646 8.02095 4.88403 8.02403C4.96899 8.06047 5.05301 8.08603 5.13963 8.10236C5.21962 8.11727 5.29938 8.12366 5.37913 8.122C5.45912 8.12366 5.53888 8.11727 5.62124 8.10165C5.70525 8.08579 5.78951 8.06024 5.87423 8.02379C5.88204 8.02048 5.88985 8.01716 5.89743 8.01574C6.03682 7.96628 6.1445 7.91824 6.2252 7.87706C6.29242 7.8399 6.35632 7.80038 6.41785 7.75873C6.67605 7.58336 6.89378 7.35285 7.05779 7.08731C7.14109 6.95241 7.20807 6.8097 7.267 6.6625C7.32404 6.52003 7.32356 6.36217 7.4232 6.23887C7.49633 6.14847 7.59218 6.08007 7.67808 6.0015C7.83263 5.85997 7.888 5.68413 7.91285 5.4806C7.928 5.35706 7.95309 5.23471 7.96042 5.11069C7.96397 5.05011 7.9661 4.98763 7.96232 4.9261C7.96374 4.91805 7.96421 4.90953 7.96445 4.90101Z" fill="#B7B7B9"/>
</svg>
