<svg width="11" height="14" viewBox="0 0 11 14" fill="none" xmlns="http://www.w3.org/2000/svg">
<path d="M2.76709 10.7604H3.22764V12.5225H4.13716V12.9164H2.76709V10.7604Z" fill="#B7B7B9"/>
<path d="M5.14976 12.9445C5.00308 12.949 4.85741 12.9187 4.72469 12.8561C4.61238 12.7999 4.51557 12.717 4.44276 12.6147C4.36815 12.5082 4.31509 12.3882 4.28658 12.2613C4.22283 11.982 4.22283 11.692 4.28658 11.4127C4.31509 11.2858 4.36815 11.1658 4.44276 11.0593C4.51557 10.957 4.61238 10.8741 4.72469 10.8179C4.85857 10.7596 5.00302 10.7296 5.14903 10.7296C5.29505 10.7296 5.4395 10.7596 5.57338 10.8179C5.68509 10.8744 5.78136 10.9572 5.85386 11.0593C5.92856 11.1657 5.98162 11.2858 6.01003 11.4127C6.04261 11.5517 6.05882 11.6942 6.05831 11.837C6.07646 12.1259 5.99482 12.4122 5.82707 12.648C5.74562 12.7474 5.64178 12.8261 5.52404 12.8777C5.40631 12.9292 5.27804 12.9521 5.14976 12.9445ZM5.14976 11.1254C5.08241 11.1204 5.01499 11.1341 4.95496 11.165C4.89493 11.1959 4.84463 11.2429 4.80965 11.3007C4.72595 11.4668 4.68788 11.6523 4.69934 11.838C4.68788 12.0237 4.72595 12.2091 4.80965 12.3753C4.84799 12.4292 4.89867 12.4731 4.95746 12.5035C5.01625 12.5338 5.08144 12.5496 5.14758 12.5496C5.21373 12.5496 5.27892 12.5338 5.33771 12.5035C5.3965 12.4731 5.44717 12.4292 5.48551 12.3753C5.56954 12.2092 5.6077 12.0237 5.59607 11.838C5.6077 11.6522 5.56954 11.4667 5.48551 11.3007C5.45118 11.2433 5.40164 11.1966 5.34238 11.1656C5.28311 11.1347 5.21644 11.1208 5.14976 11.1254Z" fill="#B7B7B9"/>
<path d="M7.54628 12.7485C7.48074 12.8152 7.40175 12.8673 7.31455 12.9013C7.22604 12.9315 7.13292 12.9462 7.03938 12.9445C6.90088 12.9485 6.76354 12.9182 6.63966 12.8561C6.5325 12.7998 6.44019 12.7189 6.37028 12.6201C6.29875 12.5171 6.24717 12.4017 6.21821 12.2797C6.18584 12.1485 6.16963 12.0137 6.16993 11.8785C6.16944 11.7319 6.18564 11.5856 6.21821 11.4426C6.24646 11.3122 6.29921 11.1884 6.37366 11.0776C6.44665 10.9714 6.54474 10.8849 6.65921 10.8256C6.79417 10.7593 6.94335 10.7269 7.09369 10.7315C7.25391 10.7309 7.41121 10.7743 7.54845 10.857C7.62126 10.9022 7.6843 10.9614 7.73383 11.0313C7.79303 11.1181 7.83891 11.2133 7.86997 11.3137L7.44128 11.4267C7.40653 11.3422 7.35477 11.2658 7.28921 11.2022C7.21716 11.1461 7.12684 11.1187 7.03576 11.1254C6.9969 11.1235 6.95806 11.1294 6.9215 11.1427C6.88494 11.156 6.85141 11.1765 6.82286 11.2029C6.76824 11.2568 6.7262 11.3221 6.69976 11.3941C6.67042 11.4717 6.65143 11.5529 6.64328 11.6355C6.63518 11.7097 6.63083 11.7843 6.63024 11.859C6.63077 11.9327 6.63609 12.0063 6.64617 12.0794C6.65618 12.1573 6.67681 12.2335 6.70748 12.3058C6.73592 12.3735 6.77991 12.4335 6.8359 12.481C6.89654 12.5295 6.97268 12.5544 7.05024 12.551C7.10386 12.5532 7.15733 12.5442 7.20723 12.5244C7.25712 12.5047 7.30232 12.4747 7.3399 12.4364C7.40368 12.3713 7.44263 12.2858 7.44997 12.195H7.05386V11.8003H7.90255V12.9155H7.54628V12.7485Z" fill="#B7B7B9"/>
<path d="M10.5821 3.55552C10.5772 3.55069 10.5724 3.54345 10.5676 3.53862C10.5627 3.5316 10.557 3.52513 10.5507 3.51931L7.10138 0.07C7.09655 0.0651724 7.08931 0.0603448 7.08448 0.0555172C7.07965 0.0506897 7.07 0.0434483 7.06517 0.0386207L7.02896 0H0.965517C0.709446 0 0.463863 0.101724 0.282793 0.282793C0.101724 0.463863 0 0.709446 0 0.965517V13.0345C0 13.2906 0.101724 13.5361 0.282793 13.7172C0.463863 13.8983 0.709446 14 0.965517 14H9.65517C9.91124 14 10.1568 13.8983 10.3379 13.7172C10.519 13.5361 10.6207 13.2906 10.6207 13.0345V3.59172L10.5821 3.55552ZM10.1379 13.0345C10.1375 13.1624 10.0866 13.285 9.99611 13.3754C9.90566 13.4659 9.78309 13.5169 9.65517 13.5172H0.965517C0.837599 13.5169 0.715029 13.4659 0.624577 13.3754C0.534125 13.285 0.483141 13.1624 0.482759 13.0345V9.28345H3.7969L4.44862 10.0293C4.47105 10.0553 4.49885 10.0761 4.53011 10.0903C4.56137 10.1044 4.59534 10.1116 4.62966 10.1114H10.1379V13.0345ZM1.44828 6.11897V5.63621H9.17241V6.11897H1.44828ZM9.17241 6.69828V7.18103H4.89759V6.69828H9.17241ZM9.17241 5.05931H1.44828V4.57655H9.17241V5.05931ZM1.44828 3.99724V3.51448H5.7231V3.99724H1.44828ZM7.65414 3.44931C7.52622 3.44893 7.40365 3.39794 7.3132 3.30749C7.22275 3.21704 7.17176 3.09447 7.17138 2.96655V0.823103L9.79759 3.44931H7.65414Z" fill="#B7B7B9"/>
</svg>
