<svg width="12" height="14" viewBox="0 0 12 14" fill="none" xmlns="http://www.w3.org/2000/svg">
<path d="M5.53001 0.000419964C4.16894 0.00275323 2.86949 0.568087 1.93995 1.56231L2.60169 2.95579C1.35338 4.00312 0.539679 5.71813 0.539679 7.65623C0.539679 8.88111 0.665778 10.0168 1.12786 10.9513C1.86834 10.4805 2.7015 10.1695 3.54986 9.95432C3.55589 9.95432 3.56185 9.95448 3.5678 9.95432C2.47675 9.29077 1.7481 8.09073 1.7481 6.7204C1.7481 6.61469 1.75255 6.50999 1.76106 6.40646C2.59307 6.47488 3.66351 6.01857 4.54301 5.13907C4.61902 5.06306 4.6918 4.98562 4.76144 4.90702C5.11536 5.27531 5.54312 5.61761 6.03149 5.90865C7.17415 6.5896 8.38599 6.83369 9.31225 6.65164C9.31272 6.67452 9.31287 6.69741 9.31287 6.7204C9.31287 8.09944 8.57483 9.30607 7.47225 9.96695C7.4872 9.96695 7.50241 9.96695 7.51776 9.96882C8.25714 10.1276 8.96354 10.4159 9.63379 10.7625C9.70027 10.7969 9.76567 10.8341 9.82963 10.8736C10.2612 9.95412 10.3804 8.84711 10.3804 7.65579C10.3804 5.76958 9.60973 4.09466 8.41777 3.04088L9.12135 1.55957C8.1911 0.565863 6.89115 0.00135329 5.52997 0L5.53001 0.000419964ZM5.53011 0.340516C6.70364 0.336472 7.86985 0.810887 8.71235 1.62877C8.52405 2.02535 8.33575 2.42191 8.14745 2.81849C8.04559 3.03302 7.94372 3.24754 7.84187 3.46208C7.15325 3.50724 6.46439 3.54871 5.77545 3.58868C4.92491 3.60729 4.07739 3.51837 3.22839 3.48226C3.11106 3.23524 2.99372 2.98821 2.87638 2.74121C2.70059 2.37112 2.52479 2.00105 2.34899 1.63098C3.19012 0.811929 4.35696 0.338603 5.53011 0.340516ZM5.27487 0.865578C5.22334 0.865578 5.18185 0.907064 5.18185 0.958598V1.56322H4.57722C4.52569 1.56322 4.4842 1.60471 4.4842 1.65624V2.16785C4.4842 2.21938 4.52569 2.26087 4.57722 2.26087H5.18185V2.8655C5.18185 2.91703 5.22334 2.95852 5.27487 2.95852H5.78648C5.83801 2.95852 5.8795 2.91703 5.8795 2.8655V2.26087H6.48412C6.53566 2.26087 6.57714 2.21938 6.57714 2.16785V1.65624C6.57714 1.60471 6.53566 1.56322 6.48412 1.56322H5.8795V0.958598C5.8795 0.907064 5.83801 0.865578 5.78648 0.865578H5.27487ZM7.50468 10.4021C7.03515 10.6545 6.51187 10.8195 5.95639 10.8757L5.4843 11.8199L5.00671 10.8647C4.48769 10.7998 3.99825 10.6397 3.5565 10.4023C3.50208 10.4181 3.44377 10.4355 3.38289 10.4541C3.4653 10.6815 3.56304 10.9034 3.67686 11.118C3.97103 11.6599 4.40296 12.1577 4.98285 12.4001C5.46599 12.593 6.04287 12.5394 6.47682 12.249C7.04979 11.8938 7.43154 11.3045 7.69246 10.6949C7.72161 10.6252 7.74912 10.5548 7.7751 10.4839C7.6783 10.4536 7.58731 10.4262 7.50468 10.4021ZM3.17232 10.5202C2.46056 10.7501 1.49187 11.129 1.01707 11.6066C0.470901 12.1559 0 14 0 14H11.0613C11.0613 14 10.5903 12.1559 10.0441 11.6066C9.58978 11.1496 8.68343 10.7829 7.98254 10.5507C7.50715 11.8499 6.61076 12.7258 5.58305 12.7258C5.51639 12.7258 5.4503 12.7221 5.38483 12.7149C5.07963 13.2172 4.52753 13.5529 3.8968 13.5529C3.4999 13.5529 3.13408 13.42 2.84128 13.1962C2.76508 13.2428 2.67754 13.2675 2.58823 13.2677C2.45913 13.2677 2.33532 13.2164 2.24403 13.1251C2.15274 13.0338 2.10146 12.91 2.10145 12.7809C2.10145 12.6518 2.15274 12.528 2.24402 12.4367C2.33531 12.3454 2.45913 12.2942 2.58823 12.2942C2.71733 12.2942 2.84114 12.3454 2.93243 12.4367C3.02372 12.528 3.075 12.6518 3.075 12.7809C3.0749 12.8766 3.04658 12.9702 2.99359 13.0499C3.05126 13.093 3.11203 13.1319 3.17563 13.166C3.68986 13.4437 4.35939 13.3854 4.82442 13.0327C4.95742 12.9338 5.07052 12.8123 5.16165 12.676C4.30587 12.4715 3.57949 11.6542 3.17232 10.5203V10.5202ZM2.58823 12.4799C2.50841 12.4799 2.43185 12.5116 2.37541 12.568C2.31896 12.6245 2.28725 12.701 2.28725 12.7808C2.28725 12.8203 2.29503 12.8595 2.31016 12.896C2.32529 12.9325 2.34745 12.9657 2.3754 12.9936C2.40335 13.0216 2.43653 13.0438 2.47305 13.0589C2.50956 13.074 2.5487 13.0818 2.58823 13.0818C2.66805 13.0818 2.7446 13.0501 2.80104 12.9936C2.85748 12.9372 2.88919 12.8606 2.88919 12.7808C2.88919 12.701 2.85748 12.6245 2.80104 12.568C2.7446 12.5116 2.66805 12.4799 2.58823 12.4799Z" fill="#B7B7B9"/>
</svg>
