<svg width="17" height="14" viewBox="0 0 17 14" fill="none" xmlns="http://www.w3.org/2000/svg">
<path d="M14.923 7.45273C15.1493 7.19153 15.1493 6.80845 14.923 6.54725C14.8011 6.40795 11.9279 3.06467 8.27122 3.06467C4.61451 3.06467 1.74137 6.40795 1.61948 6.54725C1.39311 6.80845 1.39311 7.19153 1.61948 7.45273C1.74137 7.59203 4.61451 10.9353 8.27122 10.9353C11.9279 10.9353 14.8011 7.59203 14.923 7.45273ZM7.52247 4.64924C7.9752 4.64924 8.34088 5.01492 8.34088 5.46765C8.34088 5.92039 7.9752 6.28606 7.52247 6.28606C7.06973 6.28606 6.70406 5.92039 6.70406 5.46765C6.70406 5.01492 7.06973 4.64924 7.52247 4.64924ZM8.27122 9.52487C6.00754 9.52487 3.98764 7.83581 3.13441 6.99999C3.6568 6.4776 4.63192 5.64178 5.816 5.08457C5.74635 5.32835 5.69411 5.57213 5.69411 5.85074C5.69411 7.2786 6.84336 8.42785 8.27122 8.42785C9.69909 8.42785 10.8483 7.2786 10.8483 5.85074C10.8483 5.58954 10.7961 5.32835 10.7264 5.08457C11.9105 5.65919 12.8857 6.49502 13.408 6.99999C12.5548 7.83581 10.5349 9.52487 8.27122 9.52487Z" fill="#B7B7B9"/>
<path d="M0.696517 4.64924C1.0796 4.64924 1.39303 4.3358 1.39303 3.95272V1.41043H3.91791C4.301 1.41043 4.61443 1.097 4.61443 0.713912C4.61443 0.330828 4.301 0.017395 3.91791 0.017395H0.696517C0.313433 0.017395 0 0.330828 0 0.713912V3.95272C0 4.3358 0.313433 4.64924 0.696517 4.64924Z" fill="#B7B7B9"/>
<path d="M3.93549 12.5896H1.41061V10.0647C1.41061 9.6816 1.09718 9.36816 0.714096 9.36816C0.331011 9.36816 0.0175781 9.6816 0.0175781 10.0647V13.3035C0.0175781 13.6866 0.331011 14 0.714096 14H3.9529C4.33599 14 4.64942 13.6866 4.64942 13.3035C4.64942 12.903 4.31857 12.5896 3.93549 12.5896Z" fill="#B7B7B9"/>
<path d="M15.846 0H12.6072C12.2241 0 11.9106 0.313433 11.9106 0.696517C11.9106 1.0796 12.2241 1.39303 12.6072 1.39303H15.132V3.91791C15.132 4.301 15.4455 4.61443 15.8286 4.61443C16.2116 4.61443 16.5251 4.301 16.5251 3.91791V0.71393C16.5425 0.313433 16.2291 0 15.846 0Z" fill="#B7B7B9"/>
<path d="M15.846 9.35074C15.4629 9.35074 15.1495 9.66417 15.1495 10.0473V12.5721H12.6072C12.2241 12.5721 11.9106 12.8856 11.9106 13.2686C11.9106 13.6517 12.2241 13.9652 12.6072 13.9652H15.846C16.2291 13.9652 16.5425 13.6517 16.5425 13.2686V10.0647C16.5425 9.66417 16.2291 9.35074 15.846 9.35074Z" fill="#B7B7B9"/>
</svg>
