<svg width="11" height="14" viewBox="0 0 11 14" fill="none" xmlns="http://www.w3.org/2000/svg">
<path d="M2.9326 2.21053H7.5305C7.79576 2.21053 8.01682 1.98947 8.01682 1.72421V0.486316C8.01682 0.221053 7.79576 0 7.5305 0H2.9326C2.66734 0 2.44629 0.221053 2.44629 0.486316V1.70947C2.44629 1.98947 2.66734 2.21053 2.9326 2.21053Z" fill="#B7B7B9"/>
<path d="M7.02947 4.05263V2.99158H3.43368V4.05263C1.50316 4.30316 0 5.96842 0 7.97263V12.4526C0 13.3074 0.692632 14 1.54737 14H8.91579C9.77053 14 10.4632 13.3074 10.4632 12.4526V7.97263C10.4632 5.96842 8.96 4.30316 7.02947 4.05263ZM5.23158 11.9811C3.59579 11.9811 2.26947 10.6547 2.26947 9.01895C2.26947 7.38316 3.59579 6.05684 5.23158 6.05684C6.86737 6.05684 8.19368 7.38316 8.19368 9.01895C8.19368 10.6547 6.86737 11.9811 5.23158 11.9811Z" fill="#B7B7B9"/>
<path d="M6.82333 8.37054H5.88017V7.42738C5.88017 7.29475 5.77702 7.19159 5.64439 7.19159H4.80439C4.67175 7.19159 4.5686 7.29475 4.5686 7.42738V8.37054H3.62544C3.49281 8.37054 3.38965 8.47369 3.38965 8.60633V9.44633C3.38965 9.57896 3.49281 9.68212 3.62544 9.68212H4.5686V10.6253C4.5686 10.7579 4.67175 10.8611 4.80439 10.8611H5.64439C5.77702 10.8611 5.88017 10.7579 5.88017 10.6253V9.68212H6.82333C6.95596 9.68212 7.05912 9.57896 7.05912 9.44633V8.60633C7.05912 8.47369 6.95596 8.37054 6.82333 8.37054Z" fill="#B7B7B9"/>
</svg>
