<svg width="17" height="17" viewBox="0 0 17 17" fill="none" xmlns="http://www.w3.org/2000/svg">
<path d="M9.85813 5.44702C9.86736 5.48011 9.86995 5.51471 9.86577 5.54881C9.86158 5.58291 9.8507 5.61585 9.83374 5.64573C9.81678 5.67561 9.79408 5.70185 9.76694 5.72293C9.73981 5.74401 9.70878 5.75951 9.67563 5.76856L7.83153 6.2726C7.79844 6.28183 7.76384 6.28443 7.72974 6.28024C7.69564 6.27605 7.6627 6.26517 7.63282 6.24821C7.60294 6.23125 7.5767 6.20855 7.55562 6.18142C7.53454 6.15428 7.51904 6.12325 7.50999 6.0901C7.35855 5.53467 7.43338 4.94186 7.71809 4.44149C8.00281 3.94112 8.47421 3.57396 9.02907 3.42042C9.06216 3.41119 9.09676 3.40859 9.13086 3.41278C9.16496 3.41697 9.1979 3.42785 9.22779 3.44481C9.25767 3.46177 9.2839 3.48447 9.30498 3.51161C9.32606 3.53874 9.34157 3.56977 9.35061 3.60292L9.85813 5.44702ZM10.6663 6.25348L8.8344 6.75405C8.81624 6.75827 8.7992 6.76634 8.78443 6.77771C8.76965 6.78909 8.75749 6.8035 8.74876 6.81997C8.74002 6.83644 8.73493 6.8546 8.73381 6.87321C8.7327 6.89182 8.73559 6.91046 8.74229 6.92786C8.87965 7.32639 9.12894 7.67689 9.46032 7.93743C9.79171 8.19797 10.1911 8.3575 10.6108 8.39693C11.0305 8.43636 11.4527 8.35402 11.8268 8.15977C12.2009 7.96551 12.5111 7.66757 12.7203 7.3016C12.9295 6.93563 13.0288 6.51713 13.0063 6.09619C12.9839 5.67525 12.8406 5.2697 12.5936 4.92808C12.3467 4.58645 12.0065 4.32322 11.6139 4.16989C11.2212 4.01656 10.7927 3.97963 10.3796 4.06351C10.3623 4.06753 10.346 4.07502 10.3318 4.08553C10.3175 4.09604 10.3056 4.10934 10.2966 4.12463C10.2877 4.13992 10.2819 4.15688 10.2798 4.17446C10.2776 4.19204 10.279 4.20988 10.284 4.22689L10.7845 6.05882C10.7899 6.07937 10.7912 6.10081 10.7881 6.12185C10.7851 6.14288 10.7778 6.16309 10.7668 6.18126C10.7558 6.19943 10.7412 6.21519 10.7239 6.2276C10.7067 6.24001 10.6871 6.24881 10.6663 6.25348ZM5.76496 4.36419L3.6167 4.84216C3.54388 4.85381 3.47421 4.88022 3.41198 4.91979C3.34975 4.95936 3.29628 5.01125 3.25485 5.07226C3.21342 5.13327 3.18491 5.20211 3.17108 5.27455C3.15724 5.34698 3.15838 5.42149 3.17442 5.49347C3.19045 5.56545 3.22105 5.63339 3.26432 5.6931C3.30759 5.75282 3.36262 5.80305 3.42603 5.8407C3.48944 5.87836 3.55989 5.90264 3.63303 5.91205C3.70617 5.92146 3.78047 5.91581 3.85134 5.89544L5.9996 5.41747C6.13193 5.37943 6.24476 5.29234 6.31506 5.17395C6.38536 5.05556 6.40783 4.91481 6.37789 4.78042C6.34795 4.64603 6.26786 4.52813 6.15396 4.45078C6.04005 4.37343 5.90092 4.34246 5.76496 4.36419ZM6.20817 6.33343L4.0547 6.8114C3.91859 6.84682 3.80164 6.93389 3.72869 7.05412C3.65573 7.17436 3.63251 7.3183 3.66395 7.45537C3.69539 7.59245 3.77903 7.71188 3.89709 7.7883C4.01515 7.86472 4.15835 7.89212 4.29629 7.86468L6.44455 7.38671C6.5776 7.34912 6.69118 7.26198 6.76195 7.1432C6.83271 7.02443 6.85528 6.88306 6.825 6.74816C6.79473 6.61326 6.71392 6.49509 6.59918 6.41795C6.48445 6.34081 6.34452 6.31056 6.20817 6.33343ZM0.689785 7.39366L0.397788 8.68679C0.391453 8.72078 0.395402 8.75589 0.409131 8.78763C0.42286 8.81937 0.445744 8.84629 0.474856 8.86495C0.503968 8.88362 0.537986 8.89317 0.572557 8.89239C0.607129 8.89162 0.640683 8.88054 0.668928 8.86059C1.24966 8.40986 1.93369 8.11116 2.65902 7.99156L1.83344 4.28598L12.8129 1.8492L14.7404 10.5396L7.8437 12.0639C7.88358 12.6042 7.82468 13.1472 7.66989 13.6664L12.606 14.784C12.8064 14.8294 13.0138 14.835 13.2164 14.8003C13.4189 14.7656 13.6127 14.6913 13.7865 14.5817C13.9603 14.4721 14.1109 14.3294 14.2295 14.1616C14.3482 13.9938 14.4326 13.8042 14.4779 13.6038L14.7595 12.3611L15.34 12.2325C15.5407 12.188 15.7306 12.1045 15.899 11.9866C16.0674 11.8687 16.2109 11.7188 16.3213 11.5455C16.4317 11.3721 16.5068 11.1787 16.5425 10.9763C16.5781 10.7739 16.5735 10.5664 16.5289 10.3658L15.8771 7.42842L16.5428 4.49281C16.5883 4.29241 16.5938 4.085 16.5591 3.88245C16.5244 3.6799 16.4501 3.48617 16.3405 3.31234C16.2309 3.1385 16.0882 2.98796 15.9204 2.86932C15.7526 2.75068 15.563 2.66627 15.3626 2.62091L14.7821 2.48881L14.511 1.24261C14.4666 1.0414 14.3828 0.850936 14.2646 0.682169C14.1464 0.513403 13.996 0.369657 13.8221 0.259187C13.6481 0.148718 13.4541 0.0737033 13.251 0.0384511C13.048 0.00319894 12.84 0.0084044 12.639 0.0537685L8.29386 1.0184L3.94868 0.0363877C3.54619 -0.0519668 3.12511 0.0220568 2.77689 0.242378C2.42867 0.462699 2.18145 0.81152 2.08894 1.21306L1.80737 2.45579L1.22685 2.58441C1.02582 2.62881 0.835527 2.71247 0.666893 2.83058C0.49826 2.94869 0.3546 3.09892 0.244151 3.27267C0.133703 3.44641 0.0586389 3.64025 0.023264 3.84307C-0.0121109 4.04589 -0.00710089 4.2537 0.0380067 4.45457L0.689785 7.39366ZM7.24059 10.1416C7.42701 10.4583 7.57354 10.7969 7.67685 11.1496L12.759 10.0182C12.8318 10.0065 12.9015 9.98009 12.9637 9.94052C13.0259 9.90095 13.0794 9.84907 13.1208 9.78806C13.1623 9.72705 13.1908 9.65821 13.2046 9.58577C13.2184 9.51333 13.2173 9.43883 13.2013 9.36685C13.1852 9.29487 13.1546 9.22693 13.1114 9.16721C13.0681 9.1075 13.0131 9.05727 12.9496 9.01961C12.8862 8.98196 12.8158 8.95768 12.7427 8.94827C12.6695 8.93885 12.5952 8.94451 12.5243 8.96488L7.24059 10.1416ZM5.58942 8.51298C5.94321 8.71197 6.26831 8.95814 6.55579 9.24471C6.59229 9.28121 6.62531 9.31945 6.65833 9.35595L8.12005 9.0344C8.19288 9.02276 8.26255 8.99634 8.32478 8.95677C8.38701 8.9172 8.44048 8.86532 8.48191 8.80431C8.52334 8.7433 8.55185 8.67446 8.56568 8.60202C8.57951 8.52958 8.57838 8.45508 8.56234 8.3831C8.5463 8.31112 8.51571 8.24318 8.47244 8.18346C8.42917 8.12375 8.37413 8.07352 8.31072 8.03586C8.24732 7.99821 8.17687 7.97393 8.10373 7.96452C8.03059 7.9551 7.95629 7.96076 7.88541 7.98113L5.73889 8.45389C5.68637 8.46592 5.63597 8.48585 5.58942 8.51298ZM1.07042 10.0772C1.6343 9.5116 2.38502 9.1709 3.18201 9.11893C3.97901 9.06696 4.76762 9.30729 5.40017 9.79492C6.03273 10.2825 6.46584 10.984 6.61841 11.768C6.77098 12.552 6.63255 13.3647 6.22903 14.054L7.77244 15.5922C7.91726 15.7526 7.99494 15.9625 7.98942 16.1785C7.98391 16.3946 7.89562 16.6003 7.7428 16.7531C7.58998 16.9059 7.3843 16.9942 7.16825 16.9997C6.9522 17.0052 6.74228 16.9276 6.58186 16.7827L5.04192 15.2428C4.41537 15.6048 3.68685 15.75 2.9694 15.6557C2.25194 15.5614 1.58565 15.233 1.0739 14.7214C0.458465 14.1056 0.112312 13.271 0.111334 12.4004C0.110357 11.5298 0.454636 10.6944 1.06869 10.0772H1.07042ZM1.60054 12.4063C1.60182 12.8195 1.7463 13.2195 2.00939 13.5382C2.27248 13.8569 2.6379 14.0745 3.04342 14.1541C3.44895 14.2336 3.8695 14.1701 4.23347 13.9744C4.59743 13.7787 4.8823 13.4628 5.03957 13.0807C5.19684 12.6985 5.21677 12.2737 5.09598 11.8785C4.97519 11.4833 4.72114 11.1422 4.37711 10.9132C4.03307 10.6843 3.62031 10.5817 3.20912 10.6229C2.79793 10.6641 2.41373 10.8466 2.12196 11.1392C1.95588 11.3057 1.82432 11.5033 1.73483 11.7207C1.64535 11.9382 1.59971 12.1711 1.60054 12.4063Z" fill="#B7B7B9"/>
</svg>
