<svg width="17" height="17" viewBox="0 0 17 17" fill="none" xmlns="http://www.w3.org/2000/svg">
<path d="M9.1609 4.0584C9.14235 3.70603 8.78226 3.76631 8.43066 3.76631C8.68545 3.83237 8.93083 3.93052 9.1609 4.0584Z" fill="#B7B7B9"/>
<path d="M5.40613 3.1759C5.10418 3.17591 4.80972 3.26994 4.56367 3.44495C4.31761 3.61997 4.13217 3.86727 4.0331 4.1525C3.93403 4.43773 3.92625 4.74674 4.01084 5.0366C4.09543 5.32646 4.26819 5.58278 4.50513 5.76995C4.6692 5.29738 4.94356 4.87072 5.30546 4.52535C5.66735 4.17999 6.10636 3.92585 6.58608 3.78404C6.45173 3.59635 6.27466 3.44332 6.06949 3.33757C5.86432 3.23183 5.63694 3.17641 5.40613 3.1759Z" fill="#B7B7B9"/>
<path d="M2.58885 5.49952C2.64413 5.6762 2.71552 5.84743 2.80212 6.01106L2.35394 6.45925C2.29637 6.51716 2.26406 6.5955 2.26406 6.67715C2.26406 6.75881 2.29637 6.83715 2.35394 6.89506L3.14289 7.68479C3.20084 7.7426 3.27934 7.77506 3.36119 7.77506C3.44303 7.77506 3.52154 7.7426 3.57948 7.68479L4.02689 7.23661C4.09412 7.27215 4.1683 7.29379 4.23785 7.3247C4.23785 7.31929 4.23785 7.31465 4.23785 7.30925C4.23729 6.96053 4.27643 6.61288 4.35453 6.27302C4.10408 6.11415 3.89321 5.90018 3.73801 5.64745C3.5828 5.39471 3.48736 5.10987 3.45894 4.81464C3.43053 4.51942 3.4699 4.2216 3.57406 3.94391C3.67822 3.66621 3.84441 3.41596 4.05996 3.21224C4.27552 3.00852 4.53474 2.85671 4.81787 2.76838C5.10101 2.68005 5.40057 2.65754 5.69372 2.70256C5.98687 2.74757 6.26587 2.85894 6.50945 3.02815C6.75304 3.19736 6.95476 3.41996 7.09926 3.67897C7.46537 3.62995 7.83703 3.64091 8.19962 3.71143C8.14971 3.55417 8.08664 3.40141 8.01108 3.25475L8.45926 2.80656C8.51683 2.74865 8.54914 2.67031 8.54914 2.58865C8.54914 2.507 8.51683 2.42866 8.45926 2.37075L7.66876 1.58102C7.61088 1.52368 7.5327 1.49152 7.45123 1.49152C7.36977 1.49152 7.29159 1.52368 7.23371 1.58102L6.78399 2.0292C6.62068 1.94213 6.44937 1.87097 6.27244 1.8167V1.18461C6.27244 1.10263 6.23987 1.02402 6.18191 0.966049C6.12394 0.908084 6.04532 0.875519 5.96335 0.875519H4.84753C4.76555 0.875519 4.68694 0.908084 4.62897 0.966049C4.571 1.02402 4.53844 1.10263 4.53844 1.18461V1.81825C4.36157 1.87269 4.19028 1.94385 4.02689 2.03075L3.57871 1.58256C3.5208 1.525 3.44246 1.49268 3.3608 1.49268C3.27914 1.49268 3.2008 1.525 3.14289 1.58256L2.35394 2.37075C2.29637 2.42866 2.26406 2.507 2.26406 2.58865C2.26406 2.67031 2.29637 2.74865 2.35394 2.80656L2.80212 3.25475C2.71566 3.41824 2.64477 3.58951 2.59039 3.76629H1.95753C1.87555 3.76629 1.79693 3.79886 1.73897 3.85682C1.681 3.91479 1.64844 3.99341 1.64844 4.07538V5.1912C1.64844 5.27318 1.681 5.35179 1.73897 5.40976C1.79693 5.46773 1.87555 5.50029 1.95753 5.50029L2.58885 5.49952Z" fill="#B7B7B9"/>
<path d="M12.2621 11.4743C12.4505 11.3738 12.6168 11.2364 12.7509 11.0702C12.8849 10.904 12.9841 10.7124 13.0423 10.507C13.1006 10.3016 13.1168 10.0865 13.0899 9.87466C13.0631 9.66282 12.9937 9.45858 12.886 9.27418C12.7784 9.08979 12.6346 8.92902 12.4633 8.80153C12.292 8.67404 12.0967 8.58245 11.8891 8.53224C11.6816 8.48203 11.466 8.47424 11.2554 8.50933C11.0447 8.54443 10.8434 8.62169 10.6633 8.73648C10.522 9.30906 10.2931 9.8564 9.98486 10.3592C10.8306 10.5186 11.6175 10.9039 12.2621 11.4743Z" fill="#B7B7B9"/>
<path d="M15.5566 9.48137C15.5566 9.39318 15.5216 9.30858 15.4593 9.24614C15.397 9.18371 15.3125 9.14853 15.2243 9.14833H14.5412C14.4817 8.95722 14.404 8.77222 14.3094 8.59583L14.7931 8.1121C14.8241 8.08123 14.8486 8.04456 14.8654 8.00419C14.8822 7.96381 14.8908 7.92051 14.8908 7.8768C14.8908 7.83308 14.8822 7.7898 14.8654 7.74942C14.8486 7.70904 14.8241 7.67238 14.7931 7.64151L13.9431 6.79151C13.9123 6.76057 13.8757 6.73602 13.8354 6.71927C13.7951 6.70253 13.7519 6.69391 13.7082 6.69391C13.6646 6.69391 13.6213 6.70253 13.581 6.71927C13.5407 6.73602 13.5041 6.76057 13.4733 6.79151L12.9888 7.27524C12.8125 7.18034 12.6275 7.1027 12.4363 7.04342V6.36032C12.4363 6.31669 12.4277 6.27348 12.411 6.23317C12.3943 6.19286 12.3698 6.15622 12.339 6.12537C12.3081 6.09451 12.2715 6.07005 12.2312 6.05335C12.1909 6.03665 12.1477 6.02805 12.104 6.02805H10.8993C10.8227 6.0285 10.7485 6.05585 10.6899 6.10532C10.7949 6.49637 10.8468 6.89973 10.8445 7.3046C10.8438 7.57976 10.8234 7.85452 10.7834 8.12678C11.0121 8.03983 11.2544 7.9943 11.499 7.99232C11.9489 7.99349 12.3864 8.14005 12.7462 8.41016C13.106 8.68027 13.3688 9.05945 13.4955 9.49116C13.6222 9.92286 13.606 10.3839 13.4492 10.8057C13.2924 11.2274 13.0036 11.5871 12.6256 11.8312C13.0535 12.3003 13.3832 12.8502 13.5954 13.4486C13.6308 13.4618 13.6681 13.4692 13.7059 13.4702C13.7929 13.4694 13.8762 13.4344 13.9377 13.3728L14.7877 12.5228C14.8497 12.4602 14.8844 12.3756 14.8844 12.2875C14.8844 12.1994 14.8497 12.1149 14.7877 12.0522L14.3032 11.5685C14.3979 11.3921 14.4755 11.2071 14.535 11.016H15.2181C15.3064 11.016 15.3912 10.9809 15.4536 10.9185C15.5161 10.856 15.5512 10.7713 15.5512 10.683L15.5566 9.48137Z" fill="#B7B7B9"/>
<path d="M12.9201 13.7538C12.6675 13.0168 12.2063 12.3689 11.5926 11.8888C10.9789 11.4087 10.2391 11.1171 9.46294 11.0493C9.23111 11.3351 8.93838 11.5657 8.6061 11.724C8.27383 11.8824 7.9104 11.9645 7.54233 11.9645C7.17425 11.9645 6.81082 11.8824 6.47855 11.724C6.14627 11.5657 5.85354 11.3351 5.62171 11.0493C4.84538 11.1169 4.1054 11.4085 3.49157 11.8886C2.87775 12.3687 2.41648 13.0166 2.16376 13.7538L1.87785 14.5945C1.83747 14.7137 1.82605 14.8407 1.84453 14.9651C1.86301 15.0895 1.91086 15.2078 1.98411 15.31C2.05737 15.4123 2.15392 15.4956 2.26579 15.5531C2.37765 15.6107 2.50161 15.6407 2.62739 15.6408H12.4557C12.5816 15.6409 12.7056 15.6109 12.8176 15.5535C12.9295 15.496 13.0262 15.4126 13.0994 15.3103C13.1727 15.208 13.2206 15.0897 13.239 14.9652C13.2574 14.8408 13.2458 14.7137 13.2053 14.5945L12.9201 13.7538Z" fill="#B7B7B9"/>
<path d="M4.97949 7.30924C4.97949 9.19469 6.12699 11.2169 7.54185 11.2169C8.95672 11.2169 10.105 9.19392 10.105 7.30924C10.105 3.40156 4.97949 3.39383 4.97949 7.30924Z" fill="#B7B7B9"/>
</svg>
