<svg width="5" height="5" viewBox="0 0 5 5" fill="none" xmlns="http://www.w3.org/2000/svg">
<path d="M3.82236 2.00915H2.8792V1.06599C2.8792 0.933358 2.77604 0.8302 2.64341 0.8302H1.80341C1.67078 0.8302 1.56762 0.933358 1.56762 1.06599V2.00915H0.624461C0.49183 2.00915 0.388672 2.11231 0.388672 2.24494V3.08494C0.388672 3.21757 0.49183 3.32073 0.624461 3.32073H1.56762V4.26388C1.56762 4.39652 1.67078 4.49967 1.80341 4.49967H2.64341C2.77604 4.49967 2.8792 4.39652 2.8792 4.26388V3.32073H3.82236C3.95499 3.32073 4.05815 3.21757 4.05815 3.08494V2.24494C4.05815 2.11231 3.95499 2.00915 3.82236 2.00915Z" fill="#484B51"/>
</svg>
