<svg width="11" height="11" viewBox="0 0 11 11" fill="none" xmlns="http://www.w3.org/2000/svg">
<path d="M8.55187 3.19073C8.44002 2.52609 8.11093 1.91952 7.60761 1.45922C7.04837 0.9473 6.32135 0.665527 5.56422 0.665527C4.97917 0.665527 4.40917 0.8333 3.92091 1.14949C3.51438 1.4119 3.17668 1.76681 2.93793 2.18409C2.83469 2.16473 2.72714 2.15397 2.61959 2.15397C1.70544 2.15397 0.96122 2.8982 0.96122 3.81235C0.96122 3.93065 0.974126 4.04465 0.995635 4.1565C0.404128 4.58668 0.0449219 5.27928 0.0449219 6.01706C0.0449219 6.61286 0.266468 7.19147 0.670844 7.64962C1.08597 8.11852 1.63446 8.39599 2.21952 8.42825C2.22597 8.42825 2.23027 8.42825 2.23673 8.42825H4.08653C4.24785 8.42825 4.37691 8.2992 4.37691 8.13788C4.37691 7.97656 4.24785 7.8475 4.08653 7.8475H2.24533C1.3656 7.79373 0.625674 6.95701 0.625674 6.0149C0.625674 5.40619 0.952617 4.83834 1.4796 4.53076C1.6022 4.45978 1.65382 4.31136 1.6065 4.178C1.56348 4.06185 1.54197 3.93925 1.54197 3.80804C1.54197 3.21439 2.02593 2.73043 2.61959 2.73043C2.7465 2.73043 2.87125 2.75193 2.9874 2.79495C3.12936 2.84658 3.28638 2.78205 3.35091 2.64654C3.75313 1.79262 4.62211 1.24198 5.56637 1.24198C6.83543 1.24198 7.88293 2.19269 8.00338 3.45314C8.01629 3.58435 8.11523 3.68974 8.24429 3.71125C9.20146 3.87472 9.92417 4.75876 9.92417 5.76755C9.92417 6.83656 9.08315 7.76577 8.0464 7.84535H6.46116C6.29984 7.84535 6.17079 7.97441 6.17079 8.13573C6.17079 8.29705 6.29984 8.4261 6.46116 8.4261H8.05716C8.06361 8.4261 8.07006 8.4261 8.07867 8.4261C8.7347 8.37878 9.34772 8.07765 9.80372 7.57433C10.2576 7.07532 10.5049 6.43434 10.5049 5.76755C10.5028 4.56087 9.67896 3.48755 8.55187 3.19073Z" fill="#FFAB00"/>
<path d="M7.01728 6.29235C7.13128 6.17835 7.13128 5.99552 7.01728 5.88152L5.47936 4.34361C5.42559 4.28983 5.35031 4.25757 5.27502 4.25757C5.19974 4.25757 5.12446 4.28768 5.07068 4.34361L3.53277 5.88152C3.41877 5.99552 3.41877 6.17835 3.53277 6.29235C3.58869 6.34828 3.66397 6.37839 3.7371 6.37839C3.81024 6.37839 3.88552 6.35043 3.94144 6.29235L4.98465 5.24915V10.0436C4.98465 10.2049 5.1137 10.334 5.27502 10.334C5.43634 10.334 5.5654 10.2049 5.5654 10.0436V5.24915L6.6086 6.29235C6.72045 6.40635 6.90328 6.40635 7.01728 6.29235Z" fill="#FFAB00"/>
</svg>
