<svg width="20" height="13" viewBox="0 0 20 13" fill="none" xmlns="http://www.w3.org/2000/svg">
<path opacity="0.3" d="M11.0002 7.80639H10.5002V5.05635C10.5002 4.91822 10.3883 4.80634 10.2502 4.80634H9.82579C9.67766 4.80634 9.53297 4.85009 9.40984 4.93228L8.93077 5.25166C8.90345 5.26985 8.87998 5.29325 8.86171 5.32052C8.84343 5.34778 8.83071 5.37838 8.82426 5.41057C8.81782 5.44275 8.81779 5.47589 8.82416 5.50809C8.83053 5.54029 8.84318 5.57092 8.8614 5.59823L9.1389 6.01417C9.15709 6.0415 9.18049 6.06497 9.20776 6.08324C9.23502 6.10152 9.26562 6.11424 9.29781 6.12068C9.32999 6.12712 9.36313 6.12716 9.39533 6.12079C9.42753 6.11442 9.45816 6.10176 9.48547 6.08355L9.50016 6.07386V7.80639H9.00015C8.86202 7.80639 8.75014 7.91827 8.75014 8.0564V8.5564C8.75014 8.69453 8.86202 8.80641 9.00015 8.80641H11.0002C11.1383 8.80641 11.2502 8.69453 11.2502 8.5564V8.0564C11.2502 7.91827 11.1383 7.80639 11.0002 7.80639ZM19.0003 0.806274H1.00002C0.44782 0.806274 0 1.25409 0 1.80629V11.8065C0 12.3587 0.44782 12.8065 1.00002 12.8065H19.0003C19.5525 12.8065 20.0003 12.3587 20.0003 11.8065V1.80629C20.0003 1.25409 19.5525 0.806274 19.0003 0.806274ZM1.50002 11.3064V9.30642C2.60473 9.30642 3.50006 10.2017 3.50006 11.3064H1.50002ZM1.50002 4.30633V2.3063H3.50006C3.50006 3.41101 2.60473 4.30633 1.50002 4.30633ZM10.0002 10.3064C8.34326 10.3064 7.00012 8.73922 7.00012 6.80637C7.00012 4.87322 8.34326 3.30632 10.0002 3.30632C11.6571 3.30632 13.0002 4.87322 13.0002 6.80637C13.0002 8.73984 11.6564 10.3064 10.0002 10.3064ZM18.5003 11.3064H16.5003C16.5003 10.2017 17.3956 9.30642 18.5003 9.30642V11.3064ZM18.5003 4.30633C17.3956 4.30633 16.5003 3.41101 16.5003 2.3063H18.5003V4.30633Z" fill="#484B51"/>
</svg>
