<svg width="26" height="24" viewBox="0 0 26 24" fill="none" xmlns="http://www.w3.org/2000/svg">
<path fill-rule="evenodd" clip-rule="evenodd" d="M0.695312 2C0.695312 0.89543 1.59074 0 2.69531 0H23.674C24.7786 0 25.674 0.895431 25.674 2V22C25.674 23.1046 24.7786 24 23.674 24H2.69531C1.59074 24 0.695312 23.1046 0.695312 22V2Z" fill="#ECECEC" fill-opacity="0.5"/>
<path fill-rule="evenodd" clip-rule="evenodd" d="M6.93996 10C5.7951 10 4.8584 10.9 4.8584 12C4.8584 13.1 5.7951 14 6.93996 14C8.08481 14 9.02151 13.1 9.02151 12C9.02151 10.9 8.08481 10 6.93996 10ZM19.4293 10C18.2844 10 17.3477 10.9 17.3477 12C17.3477 13.1 18.2844 14 19.4293 14C20.5741 14 21.5108 13.1 21.5108 12C21.5108 10.9 20.5741 10 19.4293 10ZM13.1846 10C12.0398 10 11.1031 10.9 11.1031 12C11.1031 13.1 12.0398 14 13.1846 14C14.3295 14 15.2662 13.1 15.2662 12C15.2662 10.9 14.3295 10 13.1846 10Z" fill="#9B9B9B"/>
</svg>
