<svg width="12" height="15" viewBox="0 0 12 15" fill="none" xmlns="http://www.w3.org/2000/svg">
<path opacity="0.3" d="M5.53001 0.999077C4.16894 1.00141 2.86949 1.56674 1.93995 2.56096L2.60169 3.95445C1.35338 5.00177 0.539679 6.71679 0.539679 8.65489C0.539679 9.87977 0.665778 11.0155 1.12786 11.9499C1.86834 11.4791 2.7015 11.1682 3.54986 10.953C3.55589 10.953 3.56185 10.9531 3.5678 10.953C2.47675 10.2894 1.7481 9.08939 1.7481 7.71906C1.7481 7.61335 1.75255 7.50865 1.76106 7.40511C2.59307 7.47354 3.66351 7.01723 4.54301 6.13773C4.61902 6.06171 4.6918 5.98428 4.76144 5.90568C5.11536 6.27396 5.54312 6.61627 6.03149 6.9073C7.17415 7.58826 8.38599 7.83235 9.31225 7.65029C9.31272 7.67317 9.31287 7.69607 9.31287 7.71906C9.31287 9.0981 8.57483 10.3047 7.47225 10.9656C7.4872 10.9656 7.50241 10.9656 7.51776 10.9675C8.25714 11.1262 8.96354 11.4145 9.63379 11.7611C9.70027 11.7956 9.76567 11.8328 9.82963 11.8723C10.2612 10.9528 10.3804 9.84577 10.3804 8.65445C10.3804 6.76824 9.60973 5.09332 8.41777 4.03954L9.12135 2.55823C8.1911 1.56452 6.89115 1.00001 5.52997 0.998657L5.53001 0.999077ZM5.53011 1.33917C6.70364 1.33513 7.86985 1.80954 8.71235 2.62743C8.52405 3.02401 8.33575 3.42057 8.14745 3.81715C8.04559 4.03168 7.94372 4.2462 7.84187 4.46074C7.15325 4.50589 6.46439 4.54736 5.77545 4.58734C4.92491 4.60594 4.07739 4.51703 3.22839 4.48091C3.11106 4.2339 2.99372 3.98687 2.87638 3.73987C2.70059 3.36978 2.52479 2.99971 2.34899 2.62964C3.19012 1.81059 4.35696 1.33726 5.53011 1.33917ZM5.27487 1.86424C5.22334 1.86424 5.18185 1.90572 5.18185 1.95726V2.56188H4.57722C4.52569 2.56188 4.4842 2.60337 4.4842 2.6549V3.16651C4.4842 3.21804 4.52569 3.25953 4.57722 3.25953H5.18185V3.86415C5.18185 3.91569 5.22334 3.95717 5.27487 3.95717H5.78648C5.83801 3.95717 5.8795 3.91569 5.8795 3.86415V3.25953H6.48412C6.53566 3.25953 6.57714 3.21804 6.57714 3.16651V2.6549C6.57714 2.60337 6.53566 2.56188 6.48412 2.56188H5.8795V1.95726C5.8795 1.90572 5.83801 1.86424 5.78648 1.86424H5.27487ZM7.50468 11.4008C7.03515 11.6531 6.51187 11.8181 5.95639 11.8744L5.4843 12.8186L5.00671 11.8634C4.48769 11.7985 3.99825 11.6384 3.5565 11.401C3.50208 11.4168 3.44377 11.4342 3.38289 11.4528C3.4653 11.6802 3.56304 11.9021 3.67686 12.1166C3.97103 12.6586 4.40296 13.1563 4.98285 13.3987C5.46599 13.5917 6.04287 13.538 6.47682 13.2477C7.04979 12.8924 7.43154 12.3031 7.69246 11.6936C7.72161 11.6238 7.74912 11.5534 7.7751 11.4825C7.6783 11.4522 7.58731 11.4248 7.50468 11.4008ZM3.17232 11.5189C2.46056 11.7488 1.49187 12.1276 1.01707 12.6052C0.470901 13.1546 0 14.9987 0 14.9987H11.0613C11.0613 14.9987 10.5903 13.1546 10.0441 12.6052C9.58978 12.1482 8.68343 11.7816 7.98254 11.5494C7.50715 12.8486 6.61076 13.7244 5.58305 13.7244C5.51639 13.7244 5.4503 13.7207 5.38483 13.7136C5.07963 14.2159 4.52753 14.5515 3.8968 14.5515C3.4999 14.5515 3.13408 14.4186 2.84128 14.1949C2.76508 14.2415 2.67754 14.2662 2.58823 14.2664C2.45913 14.2664 2.33532 14.2151 2.24403 14.1238C2.15274 14.0325 2.10146 13.9087 2.10145 13.7796C2.10145 13.6505 2.15274 13.5267 2.24402 13.4354C2.33531 13.3441 2.45913 13.2928 2.58823 13.2928C2.71733 13.2928 2.84114 13.3441 2.93243 13.4354C3.02372 13.5267 3.075 13.6505 3.075 13.7796C3.0749 13.8753 3.04658 13.9689 2.99359 14.0486C3.05126 14.0916 3.11203 14.1306 3.17563 14.1647C3.68986 14.4423 4.35939 14.384 4.82442 14.0313C4.95742 13.9324 5.07052 13.8109 5.16165 13.6746C4.30587 13.4702 3.57949 12.6529 3.17232 11.519V11.5189ZM2.58823 13.4785C2.50841 13.4785 2.43185 13.5102 2.37541 13.5667C2.31896 13.6231 2.28725 13.6997 2.28725 13.7795C2.28725 13.819 2.29503 13.8581 2.31016 13.8947C2.32529 13.9312 2.34745 13.9644 2.3754 13.9923C2.40335 14.0203 2.43653 14.0424 2.47305 14.0575C2.50956 14.0727 2.5487 14.0805 2.58823 14.0805C2.66805 14.0805 2.7446 14.0487 2.80104 13.9923C2.85748 13.9359 2.88919 13.8593 2.88919 13.7795C2.88919 13.6997 2.85748 13.6231 2.80104 13.5667C2.7446 13.5102 2.66805 13.4785 2.58823 13.4785Z" fill="#484B51"/>
</svg>
