<svg width="15" height="15" viewBox="0 0 15 15" fill="none" xmlns="http://www.w3.org/2000/svg">
<path d="M13.7992 1.4782C13.3504 1.02938 12.7417 0.77728 12.1071 0.777354C11.472 0.775523 10.8627 1.02806 10.4152 1.4786L2.1828 9.71033C2.1145 9.77914 2.06297 9.86278 2.03218 9.9547L0.782203 13.7047C0.67311 14.0322 0.850171 14.3861 1.17767 14.4951C1.24121 14.5163 1.30775 14.5271 1.37469 14.5272C1.44178 14.527 1.50846 14.5163 1.57218 14.4953L5.32214 13.2453C5.41424 13.2146 5.49792 13.1628 5.56651 13.0941L13.7989 4.86169C14.7333 3.92742 14.7334 2.41257 13.7992 1.4782ZM12.9152 3.97855L4.79026 12.1035L2.36279 12.9141L3.1709 10.4897L11.2989 2.36482C11.7458 1.91886 12.4696 1.91959 12.9155 2.36643C13.1286 2.57989 13.2486 2.86887 13.2495 3.17044C13.2503 3.47362 13.1299 3.76453 12.9152 3.97855Z" fill="white"/>
</svg>
