<svg width="6" height="8" viewBox="0 0 6 8" fill="none" xmlns="http://www.w3.org/2000/svg">
<path d="M5.96542 3.90107C5.97252 3.76949 5.89797 3.58962 5.75669 3.55625C5.68521 3.53945 5.62037 3.56927 5.58558 3.49188C5.56594 3.4481 5.59883 3.33213 5.60404 3.28527C5.61705 3.1686 5.62368 3.04388 5.65232 2.9298C5.70533 2.71775 5.73823 2.50049 5.74604 2.28182C5.77041 1.60875 5.43814 1.05472 4.82281 0.780896C4.75276 0.749656 4.682 0.72102 4.61076 0.69475C4.21411 0.548019 3.80232 0.477019 3.38058 0.473469C3.28947 0.472523 3.19811 0.47489 3.10605 0.48057C2.81164 0.498083 2.49712 0.521276 2.22732 0.651441C2.20058 0.664457 2.17502 0.678894 2.15017 0.694513C2.05053 0.758413 1.96746 0.845032 1.90167 0.943957C1.83469 1.0443 1.81245 1.1011 1.71423 1.17991C1.62738 1.24949 1.54975 1.30085 1.45295 1.34345C1.36728 1.38155 1.2906 1.4419 1.24422 1.52473C1.14884 1.69394 1.11524 1.89961 1.10719 2.09154C1.09725 2.33199 1.1079 2.57268 1.1247 2.81242C1.13062 2.89762 1.14695 2.98282 1.16399 3.06754C1.19026 3.19747 1.21795 3.3274 1.21298 3.45875C1.21132 3.49945 1.19452 3.52265 1.16967 3.53732C1.16186 3.53921 1.15334 3.54063 1.14435 3.54158C1.09772 3.54702 1.05015 3.54489 1.00424 3.55602C0.862952 3.58939 0.788403 3.76925 0.795503 3.90107C0.795976 3.90935 0.79645 3.91787 0.796923 3.92639C0.793136 3.98793 0.795266 4.05041 0.798816 4.11099C0.806389 4.235 0.831239 4.35736 0.846386 4.4809C0.879992 4.75495 1.0085 5.01836 1.27049 5.14876C1.32516 5.19231 1.36137 5.23704 1.38125 5.31466C1.53863 5.92644 1.84463 6.41965 2.34139 6.75902C2.40269 6.80068 2.46682 6.8402 2.53427 6.87759C2.61474 6.91853 2.72242 6.96681 2.86181 7.01415C2.86962 7.01746 2.87743 7.02101 2.88501 7.02409C2.96997 7.06053 3.05399 7.08609 3.1406 7.10242C3.2206 7.11733 3.30035 7.12372 3.38011 7.12207C3.4601 7.12372 3.53986 7.11733 3.62222 7.10171C3.70623 7.08586 3.79048 7.0603 3.87521 7.02385C3.88302 7.02054 3.89083 7.01722 3.8984 7.0158C4.0378 6.96634 4.14548 6.9183 4.22618 6.87712C4.29339 6.83996 4.35729 6.80044 4.41883 6.75879C4.67703 6.58342 4.89476 6.35291 5.05876 6.08737C5.14207 5.95247 5.20905 5.80976 5.26798 5.66256C5.32501 5.52009 5.32454 5.36223 5.42417 5.23893C5.4973 5.14853 5.59315 5.08013 5.67906 5.00156C5.8336 4.86003 5.88898 4.68419 5.91383 4.48066C5.92898 4.35712 5.95406 4.23477 5.9614 4.11076C5.96495 4.05017 5.96708 3.98769 5.96329 3.92616C5.96471 3.91811 5.96519 3.90959 5.96542 3.90107Z" fill="#484B51"/>
</svg>
