<svg width="21" height="19" viewBox="0 0 21 19" fill="none" xmlns="http://www.w3.org/2000/svg">
<path fill-rule="evenodd" clip-rule="evenodd" d="M17.575 5.54999H3.42478C1.74696 5.54999 0.392578 6.90317 0.392578 8.57951V14.6385H4.43551V18.6779H16.5643V14.6385H20.6072V8.57951C20.6072 6.90317 19.2529 5.54999 17.575 5.54999ZM14.5428 16.6582H6.45689V11.609H14.5428V16.6582ZM17.5752 9.58938C17.0193 9.58938 16.5645 9.13495 16.5645 8.57954C16.5645 8.02413 17.0193 7.5697 17.5752 7.5697C18.1311 7.5697 18.5859 8.02413 18.5859 8.57954C18.5859 9.13495 18.1311 9.58938 17.5752 9.58938ZM16.5644 0.500732H4.43557V4.54009H16.5644V0.500732Z" fill="#253858"/>
</svg>
