<svg width="22" height="22" viewBox="0 0 22 22" fill="none" xmlns="http://www.w3.org/2000/svg">
<path d="M11 10.375C9.067 10.375 7.5 8.808 7.5 6.875C7.5 4.942 9.067 3.375 11 3.375C12.933 3.375 14.5 4.942 14.5 6.875C14.5 8.808 12.933 10.375 11 10.375Z" fill="white"/>
<path d="M3.12557 18.4243C3.46473 14.2482 6.85417 12.125 10.9854 12.125C15.1748 12.125 18.6168 14.1315 18.8732 18.425C18.8834 18.596 18.8732 19.125 18.2159 19.125C14.9735 19.125 10.1554 19.125 3.76156 19.125C3.54212 19.125 3.1071 18.6518 3.12557 18.4243Z" fill="white"/>
</svg>
