<svg width="12" height="11" viewBox="0 0 12 11" fill="none" xmlns="http://www.w3.org/2000/svg">
<path d="M11.3141 9.89673V3.7976C11.3141 3.505 11.1979 3.22438 10.991 3.01748C10.7841 2.81058 10.5035 2.69434 10.2109 2.69434H7.01522L5.91044 0.856079H1.10326C0.958379 0.856079 0.814915 0.884616 0.681062 0.94006C0.547208 0.995504 0.425585 1.07677 0.323138 1.17922C0.22069 1.28166 0.139425 1.40329 0.0839807 1.53714C0.0285367 1.67099 0 1.81446 0 1.95934V9.89673C0 10.1893 0.116236 10.47 0.323138 10.6769C0.530039 10.8838 0.810658 11 1.10326 11H10.2094C10.3544 11.0002 10.498 10.9718 10.632 10.9165C10.766 10.8611 10.8879 10.7799 10.9905 10.6774C11.0931 10.5749 11.1745 10.4532 11.23 10.3193C11.2855 10.1853 11.3141 10.0417 11.3141 9.89673ZM7.65283 7.00543C7.65283 7.09422 7.61756 7.17937 7.55477 7.24216C7.49199 7.30494 7.40684 7.34021 7.31805 7.34021H6.29239V8.37043C6.29239 8.45922 6.25712 8.54437 6.19434 8.60716C6.13155 8.66994 6.0464 8.70521 5.95761 8.70521H5.36109C5.31712 8.70521 5.27359 8.69655 5.23297 8.67973C5.19236 8.6629 5.15545 8.63824 5.12436 8.60716C5.09327 8.57607 5.06861 8.53916 5.05179 8.49855C5.03497 8.45793 5.02631 8.41439 5.02631 8.37043V7.34782H3.99609C3.9073 7.34782 3.82215 7.31255 3.75936 7.24976C3.69658 7.18698 3.66131 7.10183 3.66131 7.01304V6.41804C3.66131 6.32925 3.69658 6.24409 3.75936 6.18131C3.82215 6.11853 3.9073 6.08325 3.99609 6.08325H5.02631V5.05456C5.02631 5.01059 5.03497 4.96706 5.05179 4.92644C5.06861 4.88583 5.09327 4.84892 5.12436 4.81783C5.15545 4.78674 5.19236 4.76208 5.23297 4.74526C5.27359 4.72844 5.31712 4.71978 5.36109 4.71978H5.95152C6.04031 4.71978 6.12547 4.75505 6.18825 4.81783C6.25103 4.88062 6.28631 4.96577 6.28631 5.05456V6.08478H7.31652C7.36049 6.08478 7.40402 6.09344 7.44464 6.11026C7.48526 6.12708 7.52216 6.15175 7.55325 6.18283C7.58434 6.21392 7.609 6.25083 7.62582 6.29144C7.64265 6.33206 7.65131 6.3756 7.65131 6.41956L7.65283 7.00543Z" fill="#484B51"/>
</svg>
