<svg width="11" height="15" viewBox="0 0 11 15" fill="none" xmlns="http://www.w3.org/2000/svg">
<path d="M10.5821 4.19419C10.5772 4.18936 10.5724 4.18212 10.5676 4.17729C10.5627 4.17027 10.557 4.1638 10.5507 4.15798L7.10138 0.708672C7.09655 0.703844 7.08931 0.699017 7.08448 0.694189C7.07965 0.689362 7.07 0.68212 7.06517 0.677293L7.02896 0.638672H0.965517C0.709446 0.638672 0.463863 0.740396 0.282793 0.921465C0.101724 1.10253 0 1.34812 0 1.60419V13.6732C0 13.9292 0.101724 14.1748 0.282793 14.3559C0.463863 14.5369 0.709446 14.6387 0.965517 14.6387H9.65517C9.91124 14.6387 10.1568 14.5369 10.3379 14.3559C10.519 14.1748 10.6207 13.9292 10.6207 13.6732V4.2304L10.5821 4.19419ZM10.1379 13.6732C10.1375 13.8011 10.0866 13.9236 9.99611 14.0141C9.90566 14.1045 9.78309 14.1555 9.65517 14.1559H0.965517C0.837599 14.1555 0.715029 14.1045 0.624577 14.0141C0.534125 13.9236 0.483141 13.8011 0.482759 13.6732V9.92212H3.7969L4.44862 10.668C4.47105 10.694 4.49885 10.7148 4.53011 10.7289C4.56137 10.7431 4.59534 10.7503 4.62966 10.7501H10.1379V13.6732ZM1.44828 6.75764V6.27488H9.17241V6.75764H1.44828ZM9.17241 7.33695V7.81971H4.89759V7.33695H9.17241ZM9.17241 5.69798H1.44828V5.21522H9.17241V5.69798ZM1.44828 4.63591V4.15315H5.7231V4.63591H1.44828ZM7.65414 4.08798C7.52622 4.0876 7.40365 4.03662 7.3132 3.94616C7.22275 3.85571 7.17176 3.73314 7.17138 3.60522V1.46178L9.79759 4.08798H7.65414Z" fill="#484B51"/>
</svg>
