<svg width="25" height="25" viewBox="0 0 25 25" fill="none" xmlns="http://www.w3.org/2000/svg">
<path fill-rule="evenodd" clip-rule="evenodd" d="M15.8451 14.6092H15.0466L14.7636 14.3365C15.7541 13.1853 16.3505 11.6908 16.3505 10.0649C16.3505 6.43961 13.4092 3.50098 9.7807 3.50098C6.15217 3.50098 3.21094 6.43961 3.21094 10.0649C3.21094 13.6903 6.15217 16.6289 9.7807 16.6289C11.408 16.6289 12.9039 16.0331 14.0561 15.0434L14.329 15.3262V16.124L19.3827 21.1631L20.8887 19.6584L15.8451 14.6092ZM9.78073 14.6092C7.26401 14.6092 5.23243 12.5794 5.23243 10.0649C5.23243 7.55041 7.26401 5.52063 9.78073 5.52063C12.2975 5.52063 14.329 7.55041 14.329 10.0649C14.329 12.5794 12.2975 14.6092 9.78073 14.6092Z" fill="#B5B5B5"/>
</svg>
