<svg width="17" height="18" viewBox="0 0 17 18" fill="none" xmlns="http://www.w3.org/2000/svg">
<path opacity="0.3" d="M9.85813 5.47643C9.86736 5.50953 9.86995 5.54412 9.86577 5.57823C9.86158 5.61233 9.8507 5.64527 9.83374 5.67515C9.81678 5.70503 9.79408 5.73127 9.76694 5.75235C9.73981 5.77342 9.70878 5.78893 9.67563 5.79798L7.83153 6.30202C7.79844 6.31125 7.76384 6.31384 7.72974 6.30966C7.69564 6.30547 7.6627 6.29459 7.63282 6.27763C7.60294 6.26067 7.5767 6.23797 7.55562 6.21083C7.53454 6.1837 7.51904 6.15267 7.50999 6.11952C7.35855 5.56409 7.43338 4.97128 7.71809 4.47091C8.00281 3.97054 8.47421 3.60338 9.02907 3.44984C9.06216 3.44061 9.09676 3.43801 9.13086 3.4422C9.16496 3.44639 9.1979 3.45727 9.22779 3.47423C9.25767 3.49119 9.2839 3.51389 9.30498 3.54102C9.32606 3.56816 9.34157 3.59919 9.35061 3.63234L9.85813 5.47643ZM10.6663 6.2829L8.8344 6.78347C8.81624 6.78769 8.7992 6.79576 8.78443 6.80713C8.76965 6.8185 8.75749 6.83291 8.74876 6.84939C8.74002 6.86586 8.73493 6.88402 8.73381 6.90263C8.7327 6.92124 8.73559 6.93987 8.74229 6.95727C8.87965 7.3558 9.12894 7.70631 9.46032 7.96685C9.79171 8.22739 10.1911 8.38692 10.6108 8.42635C11.0305 8.46578 11.4527 8.38344 11.8268 8.18919C12.2009 7.99493 12.5111 7.69699 12.7203 7.33102C12.9295 6.96505 13.0288 6.54655 13.0063 6.12561C12.9839 5.70467 12.8406 5.29912 12.5936 4.9575C12.3467 4.61587 12.0065 4.35264 11.6139 4.19931C11.2212 4.04598 10.7927 4.00905 10.3796 4.09293C10.3623 4.09694 10.346 4.10444 10.3318 4.11495C10.3175 4.12546 10.3056 4.13876 10.2966 4.15405C10.2877 4.16934 10.2819 4.1863 10.2798 4.20388C10.2776 4.22146 10.279 4.2393 10.284 4.25631L10.7845 6.08824C10.7899 6.10879 10.7912 6.13023 10.7881 6.15126C10.7851 6.1723 10.7778 6.19251 10.7668 6.21068C10.7558 6.22885 10.7412 6.24461 10.7239 6.25702C10.7067 6.26943 10.6871 6.27823 10.6663 6.2829ZM5.76496 4.39361L3.6167 4.87158C3.54388 4.88322 3.47421 4.90964 3.41198 4.94921C3.34975 4.98878 3.29628 5.04067 3.25485 5.10168C3.21342 5.16269 3.18491 5.23153 3.17108 5.30397C3.15724 5.3764 3.15838 5.4509 3.17442 5.52289C3.19045 5.59487 3.22105 5.66281 3.26432 5.72252C3.30759 5.78224 3.36262 5.83247 3.42603 5.87012C3.48944 5.90778 3.55989 5.93205 3.63303 5.94147C3.70617 5.95088 3.78047 5.94523 3.85134 5.92486L5.9996 5.44689C6.13193 5.40885 6.24476 5.32176 6.31506 5.20337C6.38536 5.08498 6.40783 4.94423 6.37789 4.80984C6.34795 4.67545 6.26786 4.55755 6.15396 4.4802C6.04005 4.40285 5.90092 4.37188 5.76496 4.39361ZM6.20817 6.36285L4.0547 6.84082C3.91859 6.87624 3.80164 6.9633 3.72869 7.08354C3.65573 7.20378 3.63251 7.34771 3.66395 7.48479C3.69539 7.62187 3.77903 7.7413 3.89709 7.81772C4.01515 7.89414 4.15835 7.92154 4.29629 7.8941L6.44455 7.41613C6.5776 7.37854 6.69118 7.29139 6.76195 7.17262C6.83271 7.05385 6.85528 6.91248 6.825 6.77758C6.79473 6.64268 6.71392 6.52451 6.59918 6.44737C6.48445 6.37023 6.34452 6.33998 6.20817 6.36285ZM0.689785 7.42308L0.397788 8.71621C0.391453 8.7502 0.395402 8.78531 0.409131 8.81705C0.42286 8.84879 0.445744 8.87571 0.474856 8.89437C0.503968 8.91303 0.537986 8.92259 0.572557 8.92181C0.607129 8.92103 0.640683 8.90996 0.668928 8.89001C1.24966 8.43928 1.93369 8.14058 2.65902 8.02098L1.83344 4.3154L12.8129 1.87862L14.7404 10.569L7.8437 12.0933C7.88358 12.6336 7.82468 13.1766 7.66989 13.6958L12.606 14.8134C12.8064 14.8589 13.0138 14.8644 13.2164 14.8297C13.4189 14.795 13.6127 14.7207 13.7865 14.6111C13.9603 14.5015 14.1109 14.3588 14.2295 14.191C14.3482 14.0232 14.4326 13.8337 14.4779 13.6332L14.7595 12.3905L15.34 12.2619C15.5407 12.2174 15.7306 12.1339 15.899 12.016C16.0674 11.8982 16.2109 11.7483 16.3213 11.5749C16.4317 11.4015 16.5068 11.2081 16.5425 11.0057C16.5781 10.8033 16.5735 10.5958 16.5289 10.3952L15.8771 7.45784L16.5428 4.52223C16.5883 4.32183 16.5938 4.11442 16.5591 3.91187C16.5244 3.70932 16.4501 3.51559 16.3405 3.34176C16.2309 3.16792 16.0882 3.01738 15.9204 2.89874C15.7526 2.7801 15.563 2.69569 15.3626 2.65032L14.7821 2.51823L14.511 1.27203C14.4666 1.07082 14.3828 0.880355 14.2646 0.711588C14.1464 0.542822 13.996 0.399076 13.8221 0.288606C13.6481 0.178137 13.4541 0.103122 13.251 0.06787C13.048 0.0326179 12.84 0.0378233 12.639 0.0831874L8.29386 1.04782L3.94868 0.0658067C3.54619 -0.0225479 3.12511 0.0514758 2.77689 0.271797C2.42867 0.492118 2.18145 0.840939 2.08894 1.24248L1.80737 2.48521L1.22685 2.61382C1.02582 2.65823 0.835527 2.74189 0.666893 2.86C0.49826 2.97811 0.3546 3.12834 0.244151 3.30209C0.133703 3.47583 0.0586389 3.66967 0.023264 3.87249C-0.0121109 4.07531 -0.00710089 4.28312 0.0380067 4.48399L0.689785 7.42308ZM7.24059 10.171C7.42701 10.4877 7.57354 10.8263 7.67685 11.1791L12.759 10.0476C12.8318 10.0359 12.9015 10.0095 12.9637 9.96994C13.0259 9.93037 13.0794 9.87849 13.1208 9.81748C13.1623 9.75647 13.1908 9.68763 13.2046 9.61519C13.2184 9.54275 13.2173 9.46825 13.2013 9.39627C13.1852 9.32429 13.1546 9.25635 13.1114 9.19663C13.0681 9.13692 13.0131 9.08669 12.9496 9.04903C12.8862 9.01138 12.8158 8.9871 12.7427 8.97769C12.6695 8.96827 12.5952 8.97393 12.5243 8.9943L7.24059 10.171ZM5.58942 8.5424C5.94321 8.74139 6.26831 8.98756 6.55579 9.27413C6.59229 9.31063 6.62531 9.34886 6.65833 9.38536L8.12005 9.06382C8.19288 9.05218 8.26255 9.02576 8.32478 8.98619C8.38701 8.94662 8.44048 8.89473 8.48191 8.83373C8.52334 8.77272 8.55185 8.70388 8.56568 8.63144C8.57951 8.559 8.57838 8.4845 8.56234 8.41252C8.5463 8.34054 8.51571 8.2726 8.47244 8.21288C8.42917 8.15317 8.37413 8.10294 8.31072 8.06528C8.24732 8.02763 8.17687 8.00335 8.10373 7.99394C8.03059 7.98452 7.95629 7.99018 7.88541 8.01055L5.73889 8.4833C5.68637 8.49534 5.63597 8.51527 5.58942 8.5424ZM1.07042 10.1067C1.6343 9.54102 2.38502 9.20032 3.18201 9.14835C3.97901 9.09638 4.76762 9.33671 5.40017 9.82434C6.03273 10.312 6.46584 11.0134 6.61841 11.7974C6.77098 12.5814 6.63255 13.3941 6.22903 14.0834L7.77244 15.6216C7.91726 15.782 7.99494 15.9919 7.98942 16.208C7.98391 16.424 7.89562 16.6297 7.7428 16.7825C7.58998 16.9353 7.3843 17.0236 7.16825 17.0291C6.9522 17.0347 6.74228 16.957 6.58186 16.8122L5.04192 15.2722C4.41537 15.6342 3.68685 15.7794 2.9694 15.6851C2.25194 15.5908 1.58565 15.2624 1.0739 14.7508C0.458465 14.1351 0.112312 13.3004 0.111334 12.4298C0.110357 11.5592 0.454636 10.7238 1.06869 10.1067H1.07042ZM1.60054 12.4357C1.60182 12.8489 1.7463 13.249 2.00939 13.5676C2.27248 13.8863 2.6379 14.104 3.04342 14.1835C3.44895 14.263 3.8695 14.1995 4.23347 14.0038C4.59743 13.8081 4.8823 13.4923 5.03957 13.1101C5.19684 12.728 5.21677 12.3031 5.09598 11.9079C4.97519 11.5127 4.72114 11.1716 4.37711 10.9426C4.03307 10.7137 3.62031 10.6111 3.20912 10.6523C2.79793 10.6935 2.41373 10.876 2.12196 11.1686C1.95588 11.3351 1.82432 11.5327 1.73483 11.7501C1.64535 11.9676 1.59971 12.2006 1.60054 12.4357Z" fill="#484B51"/>
</svg>
