<svg width="581" height="391" viewBox="0 0 581 391" fill="none" xmlns="http://www.w3.org/2000/svg">
<path d="M57.8146 46.1016H60.3903V40.4174H62.6107L65.7414 46.1016H68.6279L65.1641 40.0399C66.896 39.4404 68.0506 38.1082 68.0506 35.8878C68.0506 32.646 65.7414 31.5803 62.7217 31.5803H57.8146V46.1016ZM60.3903 38.3746V33.6452H62.4552C64.4314 33.6452 65.5194 34.2225 65.5194 35.8878C65.5194 37.5309 64.4314 38.3746 62.4552 38.3746H60.3903ZM74.8922 46.368C78.1561 46.368 80.1101 44.4141 80.1101 42.0605C80.1101 39.9511 78.8888 38.8631 77.1791 38.1304L75.203 37.3088C74.004 36.8204 72.8938 36.3985 72.8938 35.2661C72.8938 34.2003 73.8042 33.5564 75.1808 33.5564C76.4242 33.5564 77.4012 34.0227 78.3337 34.7998L79.6438 33.1567C78.5114 32.0243 76.8683 31.3138 75.1808 31.3138C72.3387 31.3138 70.296 33.0901 70.296 35.3993C70.296 37.5309 71.8058 38.6633 73.2269 39.2628L75.2252 40.1287C76.5352 40.6838 77.4678 41.0613 77.4678 42.2603C77.4678 43.3927 76.5796 44.1254 74.9366 44.1254C73.6043 44.1254 72.2055 43.4593 71.1619 42.4823L69.6521 44.2364C71.0287 45.5909 72.9382 46.368 74.8922 46.368ZM82.7506 46.1016H85.3262V40.4174H87.5466L90.6773 46.1016H93.5638L90.1 40.0399C91.8319 39.4404 92.9865 38.1082 92.9865 35.8878C92.9865 32.646 90.6773 31.5803 87.6576 31.5803H82.7506V46.1016ZM85.3262 38.3746V33.6452H87.3912C89.3673 33.6452 90.4553 34.2225 90.4553 35.8878C90.4553 37.5309 89.3673 38.3746 87.3912 38.3746H85.3262Z" fill="#3C609D"/>
<path d="M491.659 38.4821H493.724C494.715 38.4821 495.47 38.2748 495.988 37.8603C496.521 37.4459 496.788 36.8242 496.788 35.9952C496.788 35.1515 496.521 34.5668 495.988 34.2411C495.47 33.9155 494.715 33.7526 493.724 33.7526H491.659V38.4821ZM497.01 46.209L493.879 40.5248H491.659V46.209H489.083V31.6877H493.99C494.745 31.6877 495.448 31.7617 496.099 31.9097C496.751 32.0577 497.313 32.302 497.787 32.6424C498.26 32.9681 498.631 33.4048 498.897 33.9525C499.178 34.5002 499.319 35.1811 499.319 35.9952C499.319 37.1054 499.052 38.001 498.52 38.6819C498.001 39.3628 497.306 39.8513 496.432 40.1473L499.896 46.209H497.01ZM502.375 31.6877H504.95V46.209H502.375V31.6877ZM514.281 46.4754C513.334 46.4754 512.468 46.3052 511.683 45.9647C510.899 45.6095 510.225 45.1062 509.663 44.4549C509.1 43.7888 508.664 42.9894 508.353 42.0569C508.042 41.1243 507.886 40.0659 507.886 38.8817C507.886 37.7123 508.042 36.6687 508.353 35.751C508.664 34.8184 509.1 34.0339 509.663 33.3974C510.225 32.7609 510.899 32.2724 511.683 31.9319C512.468 31.5915 513.334 31.4212 514.281 31.4212C515.228 31.4212 516.094 31.5915 516.879 31.9319C517.664 32.2724 518.337 32.7609 518.9 33.3974C519.477 34.0339 519.921 34.8184 520.232 35.751C520.543 36.6687 520.698 37.7123 520.698 38.8817C520.698 40.0659 520.543 41.1243 520.232 42.0569C519.921 42.9894 519.477 43.7888 518.9 44.4549C518.337 45.1062 517.664 45.6095 516.879 45.9647C516.094 46.3052 515.228 46.4754 514.281 46.4754ZM514.281 44.2328C514.858 44.2328 515.377 44.107 515.835 43.8554C516.294 43.6037 516.687 43.2485 517.012 42.7896C517.338 42.3159 517.59 41.7534 517.767 41.1021C517.945 40.436 518.034 39.6959 518.034 38.8817C518.034 37.2534 517.693 35.9804 517.012 35.0627C516.346 34.1301 515.436 33.6638 514.281 33.6638C513.127 33.6638 512.209 34.1301 511.528 35.0627C510.862 35.9804 510.529 37.2534 510.529 38.8817C510.529 39.6959 510.618 40.436 510.795 41.1021C510.973 41.7534 511.224 42.3159 511.55 42.7896C511.876 43.2485 512.268 43.6037 512.727 43.8554C513.186 44.107 513.704 44.2328 514.281 44.2328Z" fill="#3C609D"/>
<path d="M539.448 220.107H542.024V214.423H544.244L547.375 220.107H550.261L546.798 214.046C548.529 213.446 549.684 212.114 549.684 209.894C549.684 206.652 547.375 205.586 544.355 205.586H539.448V220.107ZM542.024 212.38V207.651H544.089C546.065 207.651 547.153 208.228 547.153 209.894C547.153 211.537 546.065 212.38 544.089 212.38H542.024ZM552.588 220.107H554.92V213.468C554.92 212.114 554.698 210.182 554.587 208.85H554.675L555.83 212.225L558.228 218.753H559.76L562.136 212.225L563.313 208.85H563.402C563.268 210.182 563.068 212.114 563.068 213.468V220.107H565.444V205.586H562.513L560.004 212.691C559.693 213.602 559.405 214.579 559.094 215.533H559.005C558.694 214.579 558.383 213.602 558.073 212.691L555.497 205.586H552.588V220.107ZM569.133 220.107H571.708V214.423H573.929L577.059 220.107H579.946L576.482 214.046C578.214 213.446 579.369 212.114 579.369 209.894C579.369 206.652 577.059 205.586 574.04 205.586H569.133V220.107ZM571.708 212.38V207.651H573.773C575.749 207.651 576.837 208.228 576.837 209.894C576.837 211.537 575.749 212.38 573.773 212.38H571.708Z" fill="#3C609D"/>
<path d="M494.08 369.908H496.655V364.224H498.876L502.006 369.908H504.893L501.429 363.847C503.161 363.247 504.316 361.915 504.316 359.694C504.316 356.453 502.006 355.387 498.987 355.387H494.08V369.908ZM496.655 362.181V357.452H498.72C500.696 357.452 501.784 358.029 501.784 359.694C501.784 361.338 500.696 362.181 498.72 362.181H496.655ZM511.157 370.175C514.421 370.175 516.375 368.221 516.375 365.867C516.375 363.758 515.154 362.67 513.444 361.937L511.468 361.115C510.269 360.627 509.159 360.205 509.159 359.073C509.159 358.007 510.069 357.363 511.446 357.363C512.689 357.363 513.666 357.829 514.599 358.606L515.909 356.963C514.776 355.831 513.133 355.12 511.446 355.12C508.604 355.12 506.561 356.897 506.561 359.206C506.561 361.338 508.071 362.47 509.492 363.069L511.49 363.935C512.8 364.49 513.733 364.868 513.733 366.067C513.733 367.199 512.845 367.932 511.202 367.932C509.869 367.932 508.471 367.266 507.427 366.289L505.917 368.043C507.294 369.398 509.203 370.175 511.157 370.175ZM524.655 370.175C528.452 370.175 531.072 367.288 531.072 362.581C531.072 357.896 528.452 355.12 524.655 355.12C520.881 355.12 518.261 357.896 518.261 362.581C518.261 367.288 520.881 370.175 524.655 370.175ZM524.655 367.932C522.368 367.932 520.903 365.845 520.903 362.581C520.903 359.339 522.368 357.363 524.655 357.363C526.942 357.363 528.408 359.339 528.408 362.581C528.408 365.845 526.942 367.932 524.655 367.932Z" fill="#3C609D"/>
<path d="M64.2043 370.908H66.7799V365.224H69.0003L72.131 370.908H75.0175L71.5537 364.847C73.2856 364.247 74.4402 362.915 74.4402 360.694C74.4402 357.453 72.131 356.387 69.1113 356.387H64.2043V370.908ZM66.7799 363.181V358.452H68.8449C70.821 358.452 71.909 359.029 71.909 360.694C71.909 362.338 70.821 363.181 68.8449 363.181H66.7799ZM77.3444 370.908H79.9201V356.387H77.3444V370.908ZM83.6109 370.908H86.1866V365.224H88.407L91.5377 370.908H94.4242L90.9604 364.847C92.6923 364.247 93.8469 362.915 93.8469 360.694C93.8469 357.453 91.5377 356.387 88.518 356.387H83.6109V370.908ZM86.1866 363.181V358.452H88.2515C90.2277 358.452 91.3157 359.029 91.3157 360.694C91.3157 362.338 90.2277 363.181 88.2515 363.181H86.1866Z" fill="#3C609D"/>
<path d="M3.13013 224.658H5.70577V218.974H7.92615L11.0569 224.658H13.9434L10.4796 218.597C12.2115 217.997 13.3661 216.665 13.3661 214.444C13.3661 211.203 11.0569 210.137 8.03717 210.137H3.13013V224.658ZM5.70577 216.931V212.202H7.77072C9.74686 212.202 10.8349 212.779 10.8349 214.444C10.8349 216.088 9.74686 216.931 7.77072 216.931H5.70577ZM16.2703 224.658H24.8854V222.482H18.8459V210.137H16.2703V224.658ZM27.4156 224.658H29.9912V218.974H32.2116L35.3423 224.658H38.2288L34.765 218.597C36.4969 217.997 37.6515 216.665 37.6515 214.444C37.6515 211.203 35.3423 210.137 32.3226 210.137H27.4156V224.658ZM29.9912 216.931V212.202H32.0562C34.0323 212.202 35.1203 212.779 35.1203 214.444C35.1203 216.088 34.0323 216.931 32.0562 216.931H29.9912Z" fill="#3C609D"/>
<path d="M55.5098 211.861L69.3872 219.873V203.849L55.5098 211.861ZM523.64 211.861L509.763 203.849V219.873L523.64 211.861ZM67.9994 213.249H511.151V210.474H67.9994V213.249Z" fill="#22333B"/>
<path d="M110.271 362.314L126.052 359.532L115.752 347.257L110.271 362.314ZM468.88 61.4059L453.1 64.1885L463.4 76.4638L468.88 61.4059ZM120.731 355.349L460.205 70.4972L458.421 68.3711L118.947 353.223L120.731 355.349Z" fill="#22333B"/>
<path d="M468.879 362.314L463.398 347.257L453.098 359.532L468.879 362.314ZM110.27 61.4059L115.751 76.4638L126.051 64.1885L110.27 61.4059ZM460.203 353.223L120.73 68.3711L118.946 70.4972L458.419 355.349L460.203 353.223Z" fill="#22333B"/>
</svg>
