<svg width="18" height="18" viewBox="0 0 18 18" fill="none" xmlns="http://www.w3.org/2000/svg">
<path fill-rule="evenodd" clip-rule="evenodd" d="M9.00059 14.9093H2.08074V13.1573C2.08074 13.1573 4.97192 12.1115 4.49087 7.7C4.21735 4.60616 5.11672 2.58705 7.4094 1.91615V1.59116C7.4094 1.15355 7.58798 0.754555 7.87598 0.466569C8.16397 0.178583 8.56297 0 9.00059 0C9.43821 0 9.83561 0.178583 10.1236 0.466569C10.4116 0.754555 10.5918 1.15355 10.5918 1.59116V1.91615C12.8828 2.58705 13.7838 4.60616 13.5103 7.7C13.0276 12.1115 15.9188 13.1573 15.9188 13.1573V14.9093H9.00059ZM15.7209 5.9029C16.1569 5.15157 16.2487 4.29565 16.0411 3.51697C15.8352 2.73828 15.3316 2.03842 14.5802 1.60242L14.1957 2.26527C14.7636 2.59509 15.145 3.1244 15.301 3.71325C15.4571 4.30209 15.3879 4.95046 15.0581 5.51839L15.7209 5.9029ZM17.3234 6.83443C18.0168 5.64066 18.16 4.27796 17.8318 3.04074C17.5036 1.80514 16.704 0.693418 15.5102 0L15.1256 0.66285C16.136 1.25008 16.8134 2.19127 17.0917 3.23863C17.3684 4.28439 17.2478 5.43794 16.6605 6.44831L17.3234 6.83443ZM2.28025 5.9029C1.84263 5.15157 1.75253 4.29565 1.96008 3.51697C2.16602 2.73828 2.6696 2.03842 3.42095 1.60242L3.80548 2.26527C3.23754 2.59509 2.85623 3.1244 2.70017 3.71325C2.54411 4.30209 2.61329 4.95046 2.94311 5.51839L2.28025 5.9029ZM0.677791 6.83443C-0.0156417 5.64066 -0.160442 4.27796 0.167772 3.04074C0.495986 1.80514 1.29721 0.693418 2.49101 0L2.87554 0.66285C1.86515 1.25008 1.18781 2.19127 0.909471 3.23863C0.631133 4.28439 0.753409 5.43794 1.34065 6.44831L0.677791 6.83443ZM8.35221 1.72631C8.55975 1.70056 8.77535 1.68448 9.00059 1.67643C9.22584 1.68448 9.44143 1.70056 9.64897 1.72631V1.59116C9.64897 1.41258 9.57497 1.25169 9.45752 1.13425C9.34007 1.01519 9.17757 0.942792 9.00059 0.942792C8.822 0.942792 8.66111 1.01519 8.54366 1.13425C8.42461 1.25169 8.35221 1.41258 8.35221 1.59116V1.72631ZM11.0696 15.6011C11.0841 15.7009 11.0922 15.8038 11.0922 15.9084C11.0922 17.0636 10.1558 17.9999 9.00059 17.9999C7.84541 17.9999 6.90903 17.0636 6.90903 15.9084C6.90903 15.8038 6.91708 15.7009 6.93156 15.6011H9.00059H11.0696Z" fill="white"/>
</svg>
