<svg width="14" height="15" viewBox="0 0 14 15" fill="none" xmlns="http://www.w3.org/2000/svg">
<g clip-path="url(#clip0)">
<path d="M11.95 2.70578C10.628 1.38384 8.87033 0.655762 7.00076 0.655762C5.13118 0.655762 3.3735 1.38387 2.05156 2.70578C0.218766 4.5386 -0.391902 7.13658 0.243266 9.48462C0.291665 9.66342 0.453786 9.78756 0.639149 9.78756H13.3624C13.5478 9.78756 13.7099 9.66342 13.7583 9.48462C13.9188 8.89134 14 8.27589 14 7.655C14 5.78545 13.2719 4.02771 11.95 2.70578ZM13.0401 8.96736H0.961505C0.124485 5.1073 3.08059 1.47599 7.00078 1.47599C10.9179 1.47599 13.8777 5.10426 13.0401 8.96736Z" fill="#344563"/>
<path d="M6.99994 4.16244C7.22643 4.16244 7.41005 3.97882 7.41005 3.75234V2.97895C7.41005 2.75246 7.22643 2.56885 6.99994 2.56885C6.77346 2.56885 6.58984 2.75246 6.58984 2.97895V3.75234C6.58982 3.97882 6.77346 4.16244 6.99994 4.16244Z" fill="#344563"/>
<path d="M5.01729 3.40047C4.90401 3.20431 4.65324 3.13704 4.45708 3.25035C4.26091 3.36359 4.19373 3.61441 4.30696 3.81058L4.69363 4.48036C4.76959 4.61194 4.90743 4.6855 5.04918 4.6855C5.36188 4.6855 5.56245 4.34476 5.40396 4.07026L5.01729 3.40047Z" fill="#344563"/>
<path d="M3.82796 5.34848L3.15821 4.96179C2.96204 4.84847 2.71124 4.91571 2.59799 5.1119C2.48473 5.30804 2.55194 5.55889 2.7481 5.67212C3.47627 6.09253 3.48053 6.11383 3.62253 6.11383C4.04034 6.11383 4.19065 5.55785 3.82796 5.34848Z" fill="#344563"/>
<path d="M3.09951 7.24414H2.32612C2.09963 7.24414 1.91602 7.42776 1.91602 7.65425C1.91602 7.88074 2.09963 8.06435 2.32612 8.06435H3.09951C3.326 8.06435 3.50961 7.88074 3.50961 7.65425C3.50961 7.42776 3.326 7.24414 3.09951 7.24414Z" fill="#344563"/>
<path d="M10.4922 7.65425C10.4922 7.88074 10.6758 8.06435 10.9023 8.06435H11.6757C11.9022 8.06435 12.0858 7.88074 12.0858 7.65425C12.0858 7.42776 11.9022 7.24414 11.6757 7.24414H10.9023C10.6758 7.24414 10.4922 7.42776 10.4922 7.65425Z" fill="#344563"/>
<path d="M10.8436 4.96177L10.1739 5.34846C9.97771 5.46169 9.91052 5.71254 10.0238 5.90868C10.1371 6.10495 10.388 6.172 10.584 6.0588L11.2537 5.6721C11.4499 5.55887 11.5171 5.30802 11.4039 5.11188C11.2906 4.91572 11.0398 4.84848 10.8436 4.96177Z" fill="#344563"/>
<path d="M9.54293 3.25034C9.34671 3.13705 9.09593 3.20432 8.9827 3.40045L8.59603 4.07024C8.48278 4.26641 8.54999 4.51723 8.74615 4.63046C8.94243 4.7438 9.1932 4.6764 9.30637 4.48034L9.69304 3.81056C9.8063 3.61439 9.73909 3.36357 9.54293 3.25034Z" fill="#344563"/>
<path d="M7.99547 6.07958L6.71045 7.3646C6.45123 7.62379 6.63846 8.0647 7.00043 8.0647C7.10538 8.0647 7.21035 8.02465 7.29041 7.94458L8.57543 6.65957C8.73558 6.49942 8.73558 6.23973 8.57543 6.07961C8.4153 5.91943 8.15562 5.91943 7.99547 6.07958Z" fill="#344563"/>
<path d="M9.52047 10.9092C9.52014 10.9075 9.51984 10.9059 9.51948 10.9042C9.47551 10.6885 9.29133 10.5292 9.07156 10.5168C8.85175 10.505 8.65083 10.642 8.58285 10.8513C8.57927 10.8624 7.9832 12.9539 7.98 12.9652L7.3593 10.8614C7.35788 10.8565 7.35635 10.8517 7.35473 10.8469C7.28462 10.6381 7.08223 10.5029 6.86252 10.5173C6.63786 10.5324 6.45589 10.7001 6.41777 10.9143L5.83472 14.1448C5.79447 14.3676 5.94257 14.581 6.16547 14.6212C6.38846 14.6615 6.60166 14.5133 6.64188 14.2905L6.97359 12.4526L7.52115 14.3085C7.52257 14.3134 7.5241 14.3182 7.52571 14.323C7.67441 14.7658 8.30249 14.763 8.44687 14.3184C8.4484 14.3136 8.44985 14.3089 8.45122 14.3042L8.97983 12.4498L9.3324 14.2946C9.37492 14.5171 9.58973 14.663 9.8122 14.6204C10.0347 14.5779 10.1805 14.3631 10.138 14.1406L9.52047 10.9092Z" fill="#344563"/>
<path d="M11.457 10.5161C11.2305 10.5161 11.0469 10.6997 11.0469 10.9262V14.2435C11.0469 14.47 11.2305 14.6536 11.457 14.6536C11.6835 14.6536 11.8671 14.47 11.8671 14.2435V10.9262C11.8671 10.6997 11.6835 10.5161 11.457 10.5161Z" fill="#344563"/>
<path d="M4.48902 12.3302C4.60986 12.1459 4.67986 11.9258 4.67986 11.6896C4.67986 11.0424 4.15354 10.5161 3.5064 10.5161H2.54291C2.31654 10.5161 2.13281 10.6996 2.13281 10.9262V14.2434C2.13281 14.47 2.31673 14.6536 2.54291 14.6536H2.54483C2.55358 14.6536 3.43394 14.6497 3.67481 14.6497C4.39332 14.6497 4.97787 14.0652 4.97787 13.3467C4.97787 12.936 4.78677 12.5691 4.48902 12.3302ZM3.5064 11.3363C3.70133 11.3363 3.85965 11.4946 3.85965 11.6896C3.85965 11.8842 3.70136 12.0426 3.5064 12.0426C3.43448 12.0426 3.30053 12.0431 3.15451 12.0436H2.95302V11.3363H3.5064V11.3363ZM3.67481 13.8295C3.54249 13.8295 3.22041 13.8306 2.95302 13.8317V12.8644C3.01262 12.8641 3.07415 12.8638 3.134 12.8638H3.67481C3.94111 12.8638 4.15764 13.0804 4.15764 13.3467C4.15767 13.6127 3.94111 13.8295 3.67481 13.8295Z" fill="#344563"/>
</g>
<defs>
<clipPath id="clip0">
<rect width="14" height="14" fill="white" transform="translate(0 0.654297)"/>
</clipPath>
</defs>
</svg>
