<svg width="14" height="15" viewBox="0 0 14 15" fill="none" xmlns="http://www.w3.org/2000/svg">
<g clip-path="url(#clip0)">
<path d="M6.41602 2.35823C6.41602 1.55416 5.76176 0.899902 4.95766 0.899902C4.15357 0.899902 3.49934 1.55416 3.49934 2.35823V11.4383C3.12705 11.82 2.91602 12.3304 2.91602 12.8582C2.91602 13.9839 3.83203 14.8999 4.95769 14.8999C6.08332 14.8999 6.99934 13.9839 6.99934 12.8582C6.99934 12.3304 6.78827 11.82 6.41602 11.4383V2.35823ZM4.95766 14.3166C4.15359 14.3166 3.49934 13.6623 3.49934 12.8583C3.49934 12.4453 3.67223 12.0619 3.98641 11.779C4.04766 11.7235 4.08269 11.6449 4.08269 11.5623V2.35823C4.08269 1.87572 4.47518 1.48323 4.95769 1.48323C5.4402 1.48323 5.83269 1.87572 5.83269 2.35823V11.5622C5.83269 11.6448 5.86772 11.7235 5.92897 11.779C6.24315 12.0618 6.41604 12.4452 6.41604 12.8582C6.41602 13.6623 5.76176 14.3166 4.95766 14.3166Z" fill="#D32027"/>
<path d="M5.24871 12.0371V7.02507C5.24871 6.86386 5.11825 6.7334 4.95703 6.7334C4.79581 6.7334 4.66536 6.86386 4.66536 7.02507V12.0371C4.32659 12.1579 4.08203 12.4786 4.08203 12.8584C4.08203 13.3409 4.47452 13.7334 4.95703 13.7334C5.43954 13.7334 5.83203 13.3409 5.83203 12.8584C5.83203 12.4786 5.58747 12.1579 5.24871 12.0371ZM4.95703 13.1501C4.79611 13.1501 4.66536 13.0193 4.66536 12.8584C4.66536 12.6975 4.79609 12.5667 4.95703 12.5667C5.11795 12.5667 5.24871 12.6975 5.24871 12.8584C5.24871 13.0193 5.11798 13.1501 4.95703 13.1501Z" fill="#D32027"/>
<path d="M2.62371 10.2334H0.873707C0.712488 10.2334 0.582031 10.3639 0.582031 10.5251C0.582031 10.6863 0.712488 10.8167 0.873707 10.8167H2.62371C2.78493 10.8167 2.91538 10.6863 2.91538 10.5251C2.91538 10.3639 2.78493 10.2334 2.62371 10.2334Z" fill="#D32027"/>
<path d="M2.625 9.06641H2.04168C1.88046 9.06641 1.75 9.19686 1.75 9.35808C1.75 9.51927 1.88046 9.64973 2.04168 9.64973H2.625C2.78622 9.64973 2.91668 9.51927 2.91668 9.35806C2.91668 9.19686 2.78622 9.06641 2.625 9.06641Z" fill="#D32027"/>
<path d="M2.625 7.8999H2.04168C1.88046 7.8999 1.75 8.03036 1.75 8.19158C1.75 8.3528 1.88046 8.48325 2.04168 8.48325H2.625C2.78622 8.48325 2.91668 8.3528 2.91668 8.19158C2.91668 8.03036 2.78622 7.8999 2.625 7.8999Z" fill="#D32027"/>
<path d="M0.873707 7.31675H2.62371C2.78493 7.31675 2.91538 7.18629 2.91538 7.02507C2.91538 6.86386 2.78493 6.7334 2.62371 6.7334H0.873707C0.712488 6.7334 0.582031 6.86386 0.582031 7.02507C0.582031 7.18629 0.712488 7.31675 0.873707 7.31675Z" fill="#D32027"/>
<path d="M0.873707 3.81675H2.62371C2.78493 3.81675 2.91538 3.68629 2.91538 3.52507C2.91538 3.36386 2.78493 3.2334 2.62371 3.2334H0.873707C0.712488 3.2334 0.582031 3.36386 0.582031 3.52507C0.582031 3.68629 0.712488 3.81675 0.873707 3.81675Z" fill="#D32027"/>
<path d="M2.625 5.56641H2.04168C1.88046 5.56641 1.75 5.69686 1.75 5.85808C1.75 6.01927 1.88046 6.14973 2.04168 6.14973H2.625C2.78622 6.14973 2.91668 6.01927 2.91668 5.85805C2.91668 5.69686 2.78622 5.56641 2.625 5.56641Z" fill="#D32027"/>
<path d="M2.625 4.3999H2.04168C1.88046 4.3999 1.75 4.53036 1.75 4.69158C1.75 4.8528 1.88046 4.98325 2.04168 4.98325H2.625C2.78622 4.98325 2.91668 4.8528 2.91668 4.69158C2.91668 4.53036 2.78622 4.3999 2.625 4.3999Z" fill="#D32027"/>
<path d="M9.04033 5.56672H9.62365C10.1062 5.56672 10.4987 5.95921 10.4987 6.44172C10.4987 6.60294 10.6291 6.7334 10.7903 6.7334C10.9515 6.7334 11.082 6.60294 11.082 6.44172C11.082 5.63765 10.4278 4.9834 9.62368 4.9834H9.04036C8.23629 4.9834 7.58203 5.63765 7.58203 6.44172V8.77504C7.58203 9.57911 8.23629 10.2334 9.04036 10.2334H9.62365C10.4277 10.2334 11.082 9.57911 11.082 8.77504C11.082 8.61382 10.9515 8.48337 10.7903 8.48337C10.6291 8.48337 10.4987 8.61382 10.4987 8.77504C10.4987 9.25755 10.1062 9.65004 9.62365 9.65004H9.04033C8.55782 9.65004 8.16533 9.25755 8.16533 8.77504V6.44172C8.16533 5.95921 8.55782 5.56672 9.04033 5.56672Z" fill="#D32027"/>
<path d="M12.541 4.9834C12.0585 4.9834 11.666 5.37589 11.666 5.8584C11.666 6.34091 12.0585 6.7334 12.541 6.7334C13.0235 6.7334 13.416 6.34091 13.416 5.8584C13.416 5.37592 13.0235 4.9834 12.541 4.9834ZM12.541 6.15007C12.3801 6.15007 12.2493 6.01934 12.2493 5.8584C12.2493 5.69748 12.3801 5.56672 12.541 5.56672C12.702 5.56672 12.8327 5.69745 12.8327 5.8584C12.8327 6.01934 12.7019 6.15007 12.541 6.15007Z" fill="#D32027"/>
</g>
<defs>
<clipPath id="clip0">
<rect width="14" height="14" fill="white" transform="translate(0 0.899902)"/>
</clipPath>
</defs>
</svg>
