<svg width="14" height="15" viewBox="0 0 14 15" fill="none" xmlns="http://www.w3.org/2000/svg">
<g clip-path="url(#clip0)">
<path d="M6.41797 2.02473C6.41797 1.22066 5.76371 0.566406 4.95962 0.566406C4.15552 0.566406 3.50129 1.22066 3.50129 2.02473V11.1049C3.12901 11.4865 2.91797 11.9969 2.91797 12.5247C2.91797 13.6504 3.83398 14.5664 4.95964 14.5664C6.08528 14.5664 7.00129 13.6504 7.00129 12.5247C7.00129 11.9969 6.79023 11.4865 6.41797 11.1049V2.02473ZM4.95962 13.9831C4.15555 13.9831 3.50129 13.3288 3.50129 12.5248C3.50129 12.1118 3.67419 11.7284 3.98837 11.4455C4.04962 11.39 4.08464 11.3114 4.08464 11.2288V2.02473C4.08464 1.54222 4.47714 1.14973 4.95964 1.14973C5.44215 1.14973 5.83464 1.54222 5.83464 2.02473V11.2287C5.83464 11.3114 5.86967 11.39 5.93092 11.4455C6.2451 11.7283 6.418 12.1117 6.418 12.5247C6.41797 13.3288 5.76371 13.9831 4.95962 13.9831Z" fill="#FFAB00"/>
<path d="M5.25066 11.7036V6.69158C5.25066 6.53036 5.1202 6.3999 4.95898 6.3999C4.79777 6.3999 4.66731 6.53036 4.66731 6.69158V11.7036C4.32855 11.8244 4.08398 12.1452 4.08398 12.5249C4.08398 13.0074 4.47648 13.3999 4.95898 13.3999C5.44149 13.3999 5.83398 13.0074 5.83398 12.5249C5.83398 12.1452 5.58942 11.8244 5.25066 11.7036ZM4.95898 12.8166C4.79807 12.8166 4.66731 12.6858 4.66731 12.5249C4.66731 12.364 4.79804 12.2332 4.95898 12.2332C5.1199 12.2332 5.25066 12.364 5.25066 12.5249C5.25066 12.6858 5.11993 12.8166 4.95898 12.8166Z" fill="#FFAB00"/>
<path d="M2.62566 9.8999H0.87566C0.714441 9.8999 0.583984 10.0304 0.583984 10.1916C0.583984 10.3528 0.714441 10.4833 0.87566 10.4833H2.62566C2.78688 10.4833 2.91734 10.3528 2.91734 10.1916C2.91734 10.0304 2.78688 9.8999 2.62566 9.8999Z" fill="#FFAB00"/>
<path d="M2.62695 8.7334H2.04363C1.88241 8.7334 1.75195 8.86386 1.75195 9.02507C1.75195 9.18627 1.88241 9.31672 2.04363 9.31672H2.62695C2.78817 9.31672 2.91863 9.18627 2.91863 9.02505C2.91863 8.86386 2.78817 8.7334 2.62695 8.7334Z" fill="#FFAB00"/>
<path d="M2.62695 7.56641H2.04363C1.88241 7.56641 1.75195 7.69686 1.75195 7.85808C1.75195 8.0193 1.88241 8.14976 2.04363 8.14976H2.62695C2.78817 8.14976 2.91863 8.0193 2.91863 7.85808C2.91863 7.69686 2.78817 7.56641 2.62695 7.56641Z" fill="#FFAB00"/>
<path d="M0.87566 6.98325H2.62566C2.78688 6.98325 2.91734 6.8528 2.91734 6.69158C2.91734 6.53036 2.78688 6.3999 2.62566 6.3999H0.87566C0.714441 6.3999 0.583984 6.53036 0.583984 6.69158C0.583984 6.8528 0.714441 6.98325 0.87566 6.98325Z" fill="#FFAB00"/>
<path d="M0.87566 3.48325H2.62566C2.78688 3.48325 2.91734 3.3528 2.91734 3.19158C2.91734 3.03036 2.78688 2.8999 2.62566 2.8999H0.87566C0.714441 2.8999 0.583984 3.03036 0.583984 3.19158C0.583984 3.3528 0.714441 3.48325 0.87566 3.48325Z" fill="#FFAB00"/>
<path d="M2.62695 5.23291H2.04363C1.88241 5.23291 1.75195 5.36337 1.75195 5.52459C1.75195 5.68578 1.88241 5.81623 2.04363 5.81623H2.62695C2.78817 5.81623 2.91863 5.68578 2.91863 5.52456C2.91863 5.36337 2.78817 5.23291 2.62695 5.23291Z" fill="#FFAB00"/>
<path d="M2.62695 4.06641H2.04363C1.88241 4.06641 1.75195 4.19686 1.75195 4.35808C1.75195 4.5193 1.88241 4.64976 2.04363 4.64976H2.62695C2.78817 4.64976 2.91863 4.5193 2.91863 4.35808C2.91863 4.19686 2.78817 4.06641 2.62695 4.06641Z" fill="#FFAB00"/>
<path d="M9.04228 5.23323H9.62561C10.1081 5.23323 10.5006 5.62572 10.5006 6.10822C10.5006 6.26944 10.6311 6.3999 10.7923 6.3999C10.9535 6.3999 11.084 6.26944 11.084 6.10822C11.084 5.30416 10.4297 4.6499 9.62563 4.6499H9.04231C8.23824 4.6499 7.58398 5.30416 7.58398 6.10822V8.44154C7.58398 9.24561 8.23824 9.89987 9.04231 9.89987H9.62561C10.4297 9.89987 11.0839 9.24561 11.0839 8.44154C11.0839 8.28033 10.9535 8.14987 10.7923 8.14987C10.631 8.14987 10.5006 8.28033 10.5006 8.44154C10.5006 8.92405 10.1081 9.31654 9.62561 9.31654H9.04228C8.55977 9.31654 8.16728 8.92405 8.16728 8.44154V6.10822C8.16728 5.62572 8.55977 5.23323 9.04228 5.23323Z" fill="#FFAB00"/>
<path d="M12.543 4.6499C12.0605 4.6499 11.668 5.04239 11.668 5.5249C11.668 6.00741 12.0605 6.3999 12.543 6.3999C13.0255 6.3999 13.418 6.00741 13.418 5.5249C13.418 5.04242 13.0255 4.6499 12.543 4.6499ZM12.543 5.81658C12.3821 5.81658 12.2513 5.68585 12.2513 5.5249C12.2513 5.36398 12.382 5.23323 12.543 5.23323C12.7039 5.23323 12.8346 5.36396 12.8346 5.5249C12.8346 5.68585 12.7039 5.81658 12.543 5.81658Z" fill="#FFAB00"/>
</g>
<defs>
<clipPath id="clip0">
<rect width="14" height="14" fill="white" transform="translate(0 0.566406)"/>
</clipPath>
</defs>
</svg>
