<svg width="20" height="21" viewBox="0 0 20 21" fill="none" xmlns="http://www.w3.org/2000/svg">
<path d="M10 0.851807C4.48837 0.851807 0 5.34018 0 10.8518C0 16.3634 4.48837 20.8518 10 20.8518C15.5116 20.8518 20 16.3634 20 10.8518C20 5.34018 15.5116 0.851807 10 0.851807ZM14.6512 9.03785L9.06977 14.6192C8.88372 14.8053 8.65116 14.8983 8.4186 14.8983C8.18605 14.8983 7.95349 14.8053 7.76744 14.6192L4.88372 11.782C4.51163 11.4099 4.51163 10.8286 4.88372 10.4565C5.25581 10.0844 5.83721 10.0844 6.2093 10.4565L8.39535 12.6425L13.3256 7.71227C13.6977 7.34018 14.2791 7.34018 14.6512 7.71227C15 8.08436 15 8.66576 14.6512 9.03785Z" fill="#8BE8CB"/>
</svg>
