<svg width="24" height="30" viewBox="0 0 24 30" fill="none" xmlns="http://www.w3.org/2000/svg">
<path d="M18.5483 9.18C18.949 0.415667 13.7493 0 12.7613 0C12.658 0 12.601 0.00499996 12.601 0.00499996L12.597 0.02L12.592 0.00566673C12.592 0.00566673 12.534 0.000666618 12.431 0.000666618C11.443 0.000666618 6.244 0.415333 6.64533 9.18067C6.64533 9.18067 6.67167 11.2817 6.00067 13.1387L9.949 21.4883L10.7583 23.2003H13.3107C14.516 23.2003 15.4937 24.1783 15.4937 25.3837V26.105C15.4937 27.3113 14.516 28.2883 13.3107 28.2883H3.895C2.689 28.2883 1.71167 27.3113 1.71167 26.105V25.3833C1.71167 24.415 2.34333 23.5943 3.217 23.3087L3.40433 21.5227L3.90867 16.7093C3.90167 16.716 3.89367 16.721 3.88667 16.7277C2.356 18.0823 1.389 20.0597 1.389 22.265C1.389 22.313 1.39133 22.357 1.392 22.4033C0.542334 23.1187 4.76838e-08 24.1883 4.76838e-08 25.3833V26.1047C-0.000333286 28.253 1.747 30 3.895 30H13.311C15.4587 30 17.206 28.253 17.206 26.1047V25.744V25.3833C17.206 23.861 16.326 22.543 15.0497 21.903L19.193 13.1397C18.5213 11.2823 18.5483 9.18 18.5483 9.18ZM14.308 17.15L12.597 19.9313L10.885 17.15C9.64133 16.8677 8.68033 16.2873 8.29267 15.5713C9.297 15.6583 10.1463 15.8423 10.3673 16.2037L9.424 14.1003C10.3277 15.003 11.4197 15.5307 12.5963 15.5307C13.7463 15.5307 14.8153 15.0263 15.7063 14.1623L15.048 15.5307C15.2487 15.202 15.947 15.0917 16.8 15.0917C16.8877 15.0917 16.978 15.0927 17.069 15.095C16.914 16.026 15.8187 16.8073 14.308 17.15ZM17.5093 8.23933C17.4123 9.521 17.0873 10.7013 16.593 11.6917C15.695 13.4933 14.2397 14.664 12.597 14.664C10.0927 14.664 8.02234 11.943 7.698 8.41367C7.69767 8.41533 9.67467 8.08767 10.856 7.62133C10.856 7.62133 11.4533 7.42033 12.3973 6.95767C12.3357 6.81433 12.3047 6.65833 12.314 6.49867C12.3287 6.24267 12.4377 6.00033 12.6217 5.816L12.7303 5.70733L12.6207 5.59733C12.4373 5.41333 12.3287 5.171 12.3137 4.91433C12.2973 4.624 12.4047 4.34067 12.608 4.139L13.3123 3.43467C13.5027 3.244 13.757 3.13867 14.0287 3.13867C14.305 3.13867 14.5767 3.253 14.771 3.44867L14.8803 3.558L14.989 3.44933C15.1857 3.252 15.4563 3.13967 15.732 3.13967C16.003 3.13967 16.2563 3.244 16.4483 3.435L17.151 4.13833C17.5493 4.535 17.545 5.18933 17.1383 5.599L17.0297 5.70767L17.14 5.81733C17.3227 6.00133 17.432 6.24433 17.446 6.501C17.462 6.791 17.3547 7.07333 17.152 7.275L16.989 7.43867L17.2277 7.469H17.2587L17.5653 7.52567C17.5607 7.76733 17.544 8.00567 17.5093 8.23933Z" fill="#2A3851"/>
<path d="M21.3023 16.7285C21.189 16.6281 21.0726 16.5325 20.9533 16.4395L19.3896 25.6791C19.3943 25.6791 19.399 25.6795 19.4036 25.6795C21.258 25.6795 22.7066 25.4715 23.3846 24.2521C23.6526 23.7665 23.805 23.1255 23.805 22.2655C23.805 20.0598 22.8353 18.0825 21.3023 16.7285Z" fill="#2A3851"/>
<path d="M8.60493 23.7471H7.53427C7.4356 23.7471 7.35693 23.8371 7.35693 23.9474V25.0314H6.2726C6.16193 25.0314 6.07227 25.1111 6.07227 25.2097V26.2794C6.07227 26.3781 6.16193 26.4577 6.2726 26.4577H7.35693V27.5424C7.35693 27.6527 7.4356 27.7421 7.53427 27.7421H8.60493C8.70227 27.7421 8.7826 27.6527 8.7826 27.5424V26.4577H9.86693C9.97727 26.4577 10.0663 26.3781 10.0663 26.2794V25.2097C10.0663 25.1111 9.97693 25.0314 9.86693 25.0314H8.7826V23.9474C8.7826 23.8371 8.7026 23.7471 8.60493 23.7471Z" fill="#2A3851"/>
</svg>
