<svg width="18" height="19" viewBox="0 0 18 19" fill="none" xmlns="http://www.w3.org/2000/svg">
<g clip-path="url(#clip0)">
<path d="M11.2803 5.87695C10.6206 5.87695 10.084 5.3403 10.084 4.68066V0.75H3.96582C2.92925 0.75 2.08594 1.59332 2.08594 2.62988V16.3701C2.08594 17.4067 2.92925 18.25 3.96582 18.25H13.5361C14.5727 18.25 15.416 17.4067 15.416 16.3701V5.87695H11.2803ZM4.88867 13.0547H7.37422C7.65736 13.0547 7.88691 13.2842 7.88691 13.5674C7.88691 13.8505 7.65736 14.0801 7.37422 14.0801H4.88867C4.60553 14.0801 4.37598 13.8505 4.37598 13.5674C4.37598 13.2842 4.60553 13.0547 4.88867 13.0547ZM4.37598 10.833C4.37598 10.5499 4.60553 10.3203 4.88867 10.3203H12.4082C12.6913 10.3203 12.9209 10.5499 12.9209 10.833C12.9209 11.1162 12.6913 11.3457 12.4082 11.3457H4.88867C4.60553 11.3457 4.37598 11.1162 4.37598 10.833ZM12.4082 7.58594C12.6913 7.58594 12.9209 7.81549 12.9209 8.09863C12.9209 8.38178 12.6913 8.61133 12.4082 8.61133H4.88867C4.60553 8.61133 4.37598 8.38178 4.37598 8.09863C4.37598 7.81549 4.60553 7.58594 4.88867 7.58594H12.4082Z" fill="#B5B5B5"/>
<path d="M11.1094 4.68092C11.1094 4.77516 11.186 4.85182 11.2803 4.85182H15.1875C15.0937 4.67867 14.973 4.51963 14.8281 4.38247L11.5324 1.26453C11.4045 1.14353 11.262 1.0426 11.1094 0.962891V4.68092H11.1094Z" fill="#B5B5B5"/>
</g>
<defs>
<clipPath id="clip0">
<rect width="17.5" height="17.5" fill="white" transform="translate(0 0.75)"/>
</clipPath>
</defs>
</svg>
