<svg width="24" height="24" viewBox="0 0 24 24" fill="none" xmlns="http://www.w3.org/2000/svg">
<path d="M19.5188 6.70191C19.2622 5.17693 18.5071 3.7852 17.3523 2.72906C16.0691 1.55447 14.401 0.907959 12.6638 0.907959C11.3214 0.907959 10.0136 1.29291 8.89328 2.01838C7.96052 2.62048 7.18569 3.43479 6.63788 4.39223C6.40099 4.34781 6.15423 4.32313 5.90746 4.32313C3.80999 4.32313 2.10241 6.03072 2.10241 8.12819C2.10241 8.39963 2.13202 8.6612 2.18137 8.91783C0.824183 9.90487 0 11.494 0 13.1868C0 14.5539 0.508328 15.8814 1.43615 16.9326C2.38865 18.0085 3.64713 18.6452 4.98951 18.7192C5.00432 18.7192 5.01419 18.7192 5.029 18.7192H9.27329C9.64343 18.7192 9.93954 18.4231 9.93954 18.0529C9.93954 17.6828 9.64343 17.3867 9.27329 17.3867H5.04874C3.03023 17.2633 1.33251 15.3435 1.33251 13.1819C1.33251 11.7852 2.08266 10.4823 3.2918 9.77656C3.5731 9.6137 3.69155 9.27317 3.58297 8.96718C3.48427 8.70068 3.43492 8.41937 3.43492 8.11832C3.43492 6.7562 4.54534 5.64578 5.90746 5.64578C6.19864 5.64578 6.48489 5.69513 6.75139 5.79383C7.07711 5.91228 7.43738 5.76422 7.58544 5.4533C8.50833 3.49402 10.5022 2.2306 12.6687 2.2306C15.5805 2.2306 17.984 4.41197 18.2603 7.30401C18.2899 7.60506 18.517 7.84689 18.8131 7.89624C21.0093 8.27132 22.6675 10.2997 22.6675 12.6143C22.6675 15.0671 20.7378 17.1991 18.359 17.3817H14.7218C14.3516 17.3817 14.0555 17.6779 14.0555 18.048C14.0555 18.4181 14.3516 18.7143 14.7218 18.7143H18.3837C18.3985 18.7143 18.4133 18.7143 18.4331 18.7143C19.9383 18.6057 21.3449 17.9147 22.3911 16.7599C23.4325 15.6149 24 14.1442 24 12.6143C23.9951 9.84565 22.1049 7.38298 19.5188 6.70191Z" fill="#B5B5B5"/>
<path d="M15.9998 13.8186C16.2614 13.5571 16.2614 13.1376 15.9998 12.876L12.4711 9.34731C12.3478 9.22393 12.175 9.1499 12.0023 9.1499C11.8296 9.1499 11.6568 9.219 11.5335 9.34731L8.00477 12.876C7.7432 13.1376 7.7432 13.5571 8.00477 13.8186C8.13308 13.9469 8.30582 14.016 8.47362 14.016C8.64141 14.016 8.81415 13.9519 8.94246 13.8186L11.336 11.425V22.4257C11.336 22.7958 11.6322 23.0919 12.0023 23.0919C12.3724 23.0919 12.6686 22.7958 12.6686 22.4257V11.425L15.0621 13.8186C15.3188 14.0802 15.7383 14.0802 15.9998 13.8186Z" fill="#B5B5B5"/>
</svg>
