<svg width="15" height="15" viewBox="0 0 15 15" fill="none" xmlns="http://www.w3.org/2000/svg">
<g clip-path="url(#clip0)">
<path d="M11.875 7.5C11.5294 7.5 11.25 7.78 11.25 8.125V13.125C11.25 13.4694 10.97 13.75 10.625 13.75H1.875C1.53 13.75 1.25 13.4694 1.25 13.125V4.375C1.25 4.03062 1.53 3.75 1.875 3.75H6.875C7.22063 3.75 7.5 3.47 7.5 3.125C7.5 2.78 7.22063 2.5 6.875 2.5H1.875C0.84125 2.5 0 3.34125 0 4.375V13.125C0 14.1587 0.84125 15 1.875 15H10.625C11.6588 15 12.5 14.1587 12.5 13.125V8.125C12.5 7.77938 12.2206 7.5 11.875 7.5Z" fill="#64C8BC"/>
<path d="M5.85977 6.93084C5.81602 6.97459 5.78664 7.03021 5.77414 7.09021L5.33227 9.30021C5.31164 9.40271 5.34414 9.50834 5.41789 9.58271C5.47727 9.64209 5.55727 9.67396 5.63914 9.67396C5.65914 9.67396 5.67977 9.67209 5.70039 9.66772L7.90977 9.22584C7.97102 9.21334 8.02664 9.18396 8.06977 9.14021L13.0148 4.19521L10.8054 1.98584L5.85977 6.93084Z" fill="#64C8BC"/>
<path d="M14.5431 0.457275C13.9337 -0.1521 12.9425 -0.1521 12.3337 0.457275L11.4688 1.32228L13.6781 3.53165L14.5431 2.66665C14.8381 2.37228 15.0006 1.97978 15.0006 1.56228C15.0006 1.14478 14.8381 0.752275 14.5431 0.457275Z" fill="#64C8BC"/>
</g>
<defs>
<clipPath id="clip0">
<rect width="15" height="15" fill="white"/>
</clipPath>
</defs>
</svg>
