<svg width="18" height="19" viewBox="0 0 18 19" fill="none" xmlns="http://www.w3.org/2000/svg">
<g clip-path="url(#clip0)">
<path d="M14.3748 9.527C14.0296 9.527 13.7498 9.80682 13.7498 10.152V16.4019C13.7498 16.7471 13.47 17.0269 13.1248 17.0269H1.87498C1.52979 17.0269 1.24997 16.7471 1.24997 16.4019V3.90208C1.24997 3.55689 1.52979 3.27707 1.87498 3.27707H9.37488C9.72006 3.27707 9.99988 2.99725 9.99988 2.65207C9.99988 2.30688 9.72006 2.0271 9.37488 2.0271H1.87498C0.839454 2.0271 0 2.86655 0 3.90208V16.4019C0 17.4374 0.839454 18.2769 1.87498 18.2769H13.1248C14.1603 18.2769 14.9998 17.4374 14.9998 16.4019V10.152C14.9998 9.80682 14.72 9.527 14.3748 9.527Z" fill="white"/>
<path d="M16.7992 1.4782C16.3504 1.02938 15.7417 0.77728 15.1071 0.777354C14.472 0.775523 13.8627 1.02806 13.4152 1.4786L5.1828 9.71033C5.1145 9.77914 5.06297 9.86278 5.03218 9.9547L3.7822 13.7047C3.67311 14.0322 3.85017 14.3861 4.17767 14.4951C4.24121 14.5163 4.30775 14.5271 4.37469 14.5272C4.44178 14.527 4.50846 14.5163 4.57218 14.4953L8.32214 13.2453C8.41424 13.2146 8.49792 13.1628 8.56651 13.0941L16.7989 4.86169C17.7333 3.92742 17.7334 2.41257 16.7992 1.4782ZM15.9152 3.97855L7.79026 12.1035L5.36279 12.9141L6.1709 10.4897L14.2989 2.36482C14.7458 1.91886 15.4696 1.91959 15.9155 2.36643C16.1286 2.57989 16.2486 2.86887 16.2495 3.17044C16.2503 3.47362 16.1299 3.76453 15.9152 3.97855Z" fill="white"/>
</g>
<defs>
<clipPath id="clip0">
<rect width="17.5" height="17.5" fill="white" transform="translate(0 0.7771)"/>
</clipPath>
</defs>
</svg>
