<svg width="49" height="27" viewBox="0 0 49 27" fill="none" xmlns="http://www.w3.org/2000/svg">
<path d="M43.0241 9.40378C43.0241 9.41693 43.0241 9.42844 43.0142 9.44323C43.0043 9.45802 43.0142 9.48431 43.0142 9.50568C43.09 9.56235 43.1766 9.60321 43.2687 9.62579C43.3608 9.64838 43.4565 9.65225 43.5501 9.63716L48.1391 8.88938C48.1391 8.82364 48.1391 8.76119 48.1391 8.70038L43.522 9.45309C43.3546 9.47998 43.1829 9.46299 43.0241 9.40378Z" fill="#3C609D"/>
<path d="M48.605 8.78247C48.7058 8.73793 48.7943 8.66989 48.8632 8.58408C48.9321 8.49827 48.9793 8.39721 49.0007 8.28943C48.8952 8.42648 48.7537 8.53172 48.5918 8.59347C48.5926 8.6088 48.5926 8.62416 48.5918 8.63949C48.6017 8.69044 48.6033 8.73645 48.605 8.78247Z" fill="#3C609D"/>
<path d="M48.5204 3.03691L45.3164 3.55954C45.2906 3.56249 45.2657 3.57069 45.2432 3.58364C45.2207 3.59659 45.2011 3.614 45.1857 3.63481C45.1702 3.65561 45.1592 3.67935 45.1533 3.70457C45.1475 3.72979 45.1469 3.75594 45.1515 3.78141L45.3494 4.98443C45.3526 5.01021 45.361 5.03508 45.3742 5.05751C45.3873 5.07993 45.405 5.09944 45.426 5.11483C45.447 5.13022 45.4709 5.14117 45.4963 5.14701C45.5217 5.15285 45.548 5.15345 45.5737 5.14877L48.7776 4.62615C48.8033 4.62297 48.8281 4.61462 48.8505 4.60161C48.8728 4.58859 48.8923 4.57118 48.9077 4.55043C48.9232 4.52969 48.9342 4.50604 48.9402 4.48091C48.9461 4.45579 48.9469 4.42972 48.9425 4.40428L48.7446 3.20126C48.7417 3.17537 48.7334 3.15037 48.7203 3.12783C48.7072 3.10528 48.6896 3.08567 48.6685 3.07024C48.6475 3.05481 48.6234 3.04388 48.5979 3.03815C48.5724 3.03241 48.546 3.03199 48.5204 3.03691ZM46.037 4.58506C45.9676 4.59481 45.8969 4.58392 45.8337 4.55378C45.7704 4.52363 45.7175 4.47556 45.6816 4.41559C45.6456 4.35562 45.6283 4.28641 45.6316 4.21663C45.6349 4.14685 45.6589 4.07961 45.7004 4.02332C45.7419 3.96703 45.7991 3.92419 45.8649 3.90018C45.9308 3.87617 46.0022 3.87205 46.0704 3.88833C46.1385 3.90462 46.2004 3.94058 46.2481 3.99172C46.2959 4.04286 46.3274 4.10691 46.3388 4.17584C46.3463 4.2225 46.3444 4.27017 46.3332 4.3161C46.3221 4.36202 46.3019 4.40528 46.2738 4.44335C46.2457 4.48143 46.2103 4.51356 46.1697 4.53789C46.129 4.56222 46.084 4.57825 46.037 4.58506Z" fill="#3C609D"/>
<path d="M43.141 9.02574C43.1228 9.06847 43.1047 9.1112 43.0898 9.15558C43.2123 9.20618 43.3466 9.22156 43.4773 9.19995L48.1043 8.4456C48.0928 8.38479 48.0812 8.32727 48.0664 8.28125L43.4378 9.0356C43.3389 9.04796 43.2388 9.04463 43.141 9.02574Z" fill="#3C609D"/>
<path d="M43.5257 7.84736C43.9725 7.51866 44.205 7.14888 44.1968 6.77417C44.1934 6.61962 44.1503 6.46852 44.0715 6.33536L43.7005 5.85547L43.3707 6.11349C43.3357 6.13965 43.2917 6.15088 43.2484 6.14471C43.2051 6.13855 43.1661 6.11549 43.1398 6.08062L42.9749 5.87026C42.7563 6.00941 42.5052 6.08981 42.2461 6.10363L42.5182 7.7471C42.5174 7.75035 42.5174 7.75372 42.5182 7.75697L42.5874 8.18427C42.5882 8.18751 42.5882 8.19089 42.5874 8.19413C42.6141 8.35368 42.6957 8.49898 42.8183 8.605C43.0029 8.3094 43.2431 8.05214 43.5257 7.84736Z" fill="#3C609D"/>
<path d="M48.5539 8.33883C48.6457 8.29369 48.7265 8.2289 48.7903 8.14907C48.8542 8.06924 48.8995 7.97634 48.9232 7.87701C48.8176 8.01183 48.6775 8.11574 48.5176 8.17777C48.5308 8.23036 48.544 8.28131 48.5539 8.33883Z" fill="#3C609D"/>
<path d="M47.2663 6.56218C47.217 6.59957 47.1798 6.65071 47.1596 6.70913C47.1395 6.76755 47.1371 6.83062 47.1529 6.89037C47.1687 6.95011 47.2019 7.00385 47.2484 7.04477C47.2948 7.08568 47.3524 7.11195 47.4139 7.12023C47.4753 7.12852 47.5378 7.11846 47.5935 7.09132C47.6492 7.06418 47.6956 7.02118 47.7267 6.96777C47.7579 6.91435 47.7724 6.85293 47.7686 6.79126C47.7647 6.7296 47.7425 6.67046 47.7049 6.62135C47.6546 6.5556 47.5801 6.51245 47.4979 6.50136C47.4157 6.49027 47.3324 6.51214 47.2663 6.56218Z" fill="#3C609D"/>
<path d="M47.0598 6.28932C46.9569 6.36892 46.88 6.4771 46.8387 6.60022C46.7974 6.72334 46.7936 6.85589 46.8278 6.98116C46.862 7.10643 46.9326 7.2188 47.0308 7.30412C47.129 7.38944 47.2503 7.44387 47.3795 7.46056C47.5086 7.47726 47.6399 7.45546 47.7566 7.39792C47.8734 7.34038 47.9704 7.24967 48.0355 7.13724C48.1006 7.0248 48.1309 6.89567 48.1225 6.76612C48.114 6.63658 48.0673 6.51241 47.9882 6.40929C47.9353 6.3404 47.8693 6.28262 47.794 6.23927C47.7186 6.19591 47.6354 6.16785 47.5491 6.1567C47.4628 6.14555 47.3751 6.15153 47.2912 6.17429C47.2072 6.19705 47.1286 6.23614 47.0598 6.28932ZM47.7887 7.24418C47.7026 7.30983 47.5989 7.34853 47.4907 7.35538C47.3825 7.36223 47.2747 7.33691 47.181 7.28264C47.0873 7.22836 47.0118 7.14758 46.9642 7.05052C46.9166 6.95346 46.8989 6.84449 46.9135 6.73743C46.9281 6.63038 46.9743 6.53004 47.0461 6.44915C47.118 6.36826 47.2123 6.31045 47.3172 6.28305C47.422 6.25565 47.5327 6.25989 47.6351 6.29524C47.7376 6.33059 47.8272 6.39545 47.8926 6.48161C47.936 6.53847 47.9678 6.6033 47.9861 6.67241C48.0044 6.74151 48.0088 6.81353 47.9992 6.88435C47.9895 6.95516 47.966 7.02339 47.9298 7.08513C47.8937 7.14688 47.8458 7.20092 47.7887 7.24418Z" fill="#3C609D"/>
<path d="M45.1031 5.02554L44.9052 3.82251C44.8861 3.70534 44.9142 3.58538 44.9834 3.48874C45.0525 3.3921 45.1572 3.32659 45.2746 3.30646L48.152 2.83808L47.776 0.583232C47.762 0.493062 47.7302 0.406566 47.6823 0.328771C47.6345 0.250976 47.5716 0.183432 47.4974 0.130065C47.4231 0.0766979 47.339 0.0385717 47.2498 0.0179017C47.1606 -0.00276829 47.0682 -0.00556982 46.9779 0.00965989L42.0872 0.806744C41.9966 0.821101 41.9097 0.853215 41.8316 0.901231C41.7536 0.949246 41.6858 1.01221 41.6323 1.08648C41.5788 1.16076 41.5406 1.24486 41.5199 1.33394C41.4992 1.42303 41.4964 1.51531 41.5117 1.60547L42.1713 5.65499C42.3553 5.65861 42.5352 5.60075 42.6824 5.49064L43.9917 4.50456C45.1097 3.65817 43.1211 1.24062 43.1178 1.23733L42.9314 1.37867C42.947 1.39981 42.9539 1.42612 42.9505 1.45215C42.9471 1.47817 42.9338 1.50189 42.9133 1.51837L42.2537 2.01141C42.2327 2.02737 42.2061 2.03442 42.1799 2.03104C42.1537 2.02765 42.1298 2.01411 42.1135 1.99333L41.8217 1.60876C41.8058 1.58757 41.799 1.56101 41.8027 1.53485C41.8065 1.5087 41.8204 1.48505 41.8415 1.46906L42.5011 0.976021C42.5256 0.962022 42.5544 0.957469 42.582 0.963224C42.6097 0.968979 42.6343 0.984642 42.6511 1.00725C42.8638 0.8429 43.2282 0.609527 43.5086 0.976021C44.3066 2.02456 45.4708 3.79951 44.2852 4.89077L44.4501 5.10278C44.4735 5.13672 44.4833 5.17819 44.4775 5.21898C44.4717 5.25976 44.4507 5.29689 44.4188 5.323L44.0774 5.58103L44.4518 6.07407C44.5859 6.2828 44.659 6.52469 44.6628 6.77255C44.6711 7.13575 44.5227 7.68467 43.8268 8.21223C43.606 8.37179 43.4156 8.56937 43.2645 8.79566C43.3084 8.79893 43.3525 8.79893 43.3964 8.79566L47.9871 8.02816C47.9591 7.9542 47.931 7.88846 47.9063 7.83587C47.6517 7.94612 47.3652 7.95863 47.1019 7.87099C46.8386 7.78336 46.6172 7.60177 46.4802 7.36117C46.3431 7.12056 46.3002 6.83796 46.3597 6.56772C46.4192 6.29749 46.5768 6.05872 46.8023 5.89737C47.0278 5.73603 47.3052 5.66349 47.5811 5.69373C47.857 5.72398 48.112 5.85486 48.2969 6.06119C48.4818 6.26752 48.5836 6.53472 48.5827 6.81138C48.5819 7.08804 48.4784 7.3546 48.2922 7.55977C48.3522 7.6805 48.404 7.80514 48.4472 7.93284C48.591 7.87263 48.7101 7.76556 48.785 7.62913C48.8599 7.4927 48.8861 7.33498 48.8594 7.18177L48.4818 4.93021L45.611 5.3986C45.4941 5.41561 45.3752 5.38597 45.2801 5.31612C45.185 5.24627 45.1214 5.14185 45.1031 5.02554Z" fill="#3C609D"/>
<path d="M48.1055 8.44563C48.1207 8.52984 48.1306 8.61492 48.1352 8.70037L48.3891 8.65928C48.4586 8.64655 48.5265 8.62673 48.5919 8.60012C48.5843 8.51245 48.5722 8.42523 48.5556 8.33881C48.4899 8.37079 48.4199 8.39347 48.3479 8.40619L48.1055 8.44563Z" fill="#3C609D"/>
<path d="M39.7642 3.77987L39.9489 3.64017C39.9651 3.66095 39.989 3.67449 40.0152 3.67788C40.0415 3.68126 40.068 3.67421 40.089 3.65825L40.7486 3.16521C40.7697 3.14922 40.7836 3.12557 40.7873 3.09942C40.791 3.07326 40.7842 3.0467 40.7684 3.02551L40.4765 2.62944C40.4602 2.6083 40.4362 2.59439 40.4097 2.5907C40.3831 2.58701 40.3562 2.59384 40.3347 2.60971L39.6751 3.10275C39.6551 3.12231 39.643 3.14856 39.6411 3.17647C39.6393 3.20437 39.6479 3.23197 39.6652 3.25395C39.4509 3.4183 39.126 3.70262 39.4047 4.07569C40.0643 4.93687 41.1279 6.16619 42.2491 6.10538L42.1749 5.65342C41.0932 5.65671 39.7658 3.77987 39.7642 3.77987Z" fill="#3C609D"/>
<path d="M47.9883 8.02818C48.0184 8.10825 48.0437 8.19002 48.0641 8.27306L48.3263 8.23033C48.391 8.21881 48.4545 8.2012 48.5159 8.17774C48.4929 8.08899 48.4714 8.01339 48.445 7.93286C48.3921 7.95501 48.3368 7.971 48.2801 7.98052L47.9883 8.02818Z" fill="#3C609D"/>
<path d="M48.1377 8.88933C48.1228 9.43825 47.8887 10.0989 47.0906 10.6972C46.2414 11.3397 45.4565 11.6405 44.7573 11.5912C44.4995 11.5754 44.2481 11.5042 44.0204 11.3825C43.7927 11.2608 43.5941 11.0915 43.4382 10.8862C43.1258 10.4938 42.9727 9.99865 43.0094 9.49906C42.9328 9.44509 42.8677 9.37636 42.8182 9.29691C42.8814 9.33844 42.9495 9.3721 43.021 9.39717C43.0362 9.31279 43.0582 9.22979 43.0869 9.149C42.9513 9.09763 42.8357 9.00433 42.7571 8.88276C42.8712 8.95464 42.9994 9.00117 43.1331 9.01917C43.1684 8.93681 43.2097 8.85716 43.2568 8.78086C43.0959 8.7784 42.9408 8.72031 42.8182 8.61652C42.6783 8.84995 42.5859 9.10849 42.5461 9.37744C42.4747 10.0221 42.6627 10.6686 43.0688 11.1754C43.2633 11.4329 43.5114 11.6456 43.796 11.7987C44.0806 11.9519 44.395 12.042 44.7178 12.0629C45.5422 12.1204 46.4244 11.7884 47.366 11.0768C48.3916 10.3011 48.6109 9.43332 48.5977 8.77593C48.5389 8.80499 48.4761 8.82547 48.4114 8.83674L48.1377 8.88933Z" fill="#3C609D"/>
<path d="M20.9703 8.81538C21.8162 8.81538 23.1139 8.73485 23.1139 8.73485L23.1782 9.90171L22.1377 10.0792C22.1048 10.3717 22.0899 10.8089 22.0899 11.0193L22.6093 18.101C22.6423 18.3114 22.7561 18.7584 22.8204 19.0411L23.9104 19.138L23.8296 20.3213C23.8296 20.3213 22.6588 20.2408 20.9027 20.2408C20.22 20.2408 19.2274 20.3213 19.2274 20.3213L19.1466 19.235L20.2349 19.0411C20.2678 18.668 20.3008 17.9712 20.3008 17.6145L20.0403 11.8459L17.0491 20.2408H15.5568L12.6464 11.8459L12.3364 17.6145C12.3364 17.9712 12.3694 18.668 12.4023 19.0411L13.5071 19.138L13.4099 20.3213C13.4099 20.3213 12.6629 20.2408 10.9067 20.2408C10.2241 20.2408 9.2578 20.3213 9.2578 20.3213L9.18359 19.2284L10.2884 19.0345C10.3692 18.7436 10.4681 18.3048 10.5159 18.0944L10.9711 11.0127C10.9581 10.7031 10.9256 10.3946 10.8738 10.0891L9.78381 9.89514L9.86626 8.72827C9.86626 8.72827 10.8903 8.8088 11.5894 8.8088H13.8815L14.2112 9.1375C14.2112 9.1375 14.7158 10.9864 14.9104 11.5846L16.5857 16.658L18.3996 11.3414C18.5298 10.97 19.0674 9.1375 19.0674 9.1375L19.3972 8.8088L20.9703 8.81538Z" fill="#3C609D"/>
<path d="M31.75 16.0269L31.4087 16.6597H27.0356C27.1494 18.3278 27.7826 18.9277 29.0671 18.9277C29.7599 18.9349 30.441 18.75 31.0343 18.3935L31.6032 19.3336C30.759 20.0945 29.6855 20.484 28.4175 20.484C25.9292 20.484 24.4336 18.9605 24.4336 16.3195C24.4336 13.5962 26.01 12.0892 28.3515 12.0892C30.66 12.0892 31.8967 13.5634 31.75 16.0269ZM27.0191 15.4764L29.1892 15.3465C29.1892 15.3465 29.2057 15.2496 29.2057 15.2167C29.2057 13.9857 28.8759 13.3694 28.1817 13.3694C27.3275 13.3694 27.0835 14.2438 27.0191 15.4764Z" fill="#3C609D"/>
<path d="M41.2138 20.3214C41.2138 20.3214 40.4174 20.2408 38.2226 20.2408L38.0924 19.0247C37.4097 19.9976 36.6611 20.4019 35.6041 20.4019C33.6254 20.4019 32.5156 18.9441 32.5156 16.3672C32.5156 13.6456 33.9997 12.0941 36.5968 12.0941C36.9859 12.0941 37.441 12.127 37.9159 12.1747V10.7284C37.9159 10.3997 37.751 9.31832 37.751 9.31832L36.5308 9.03893L36.6776 7.8244C36.6776 7.8244 37.8961 7.98875 38.5805 7.98875L40.0101 7.95752L40.3514 8.26485C40.3514 8.26485 40.1865 10.4014 40.1865 11.2149V17.1133C40.2002 17.7417 40.2486 18.3688 40.3317 18.9918L41.3078 19.0904L41.2138 20.3214ZM37.9159 13.8395C37.555 13.7131 37.177 13.6422 36.7947 13.6291C35.6074 13.6291 35.1028 14.3736 35.1028 16.1568C35.1028 17.8101 35.5431 18.5711 36.4863 18.5711C37.347 18.5711 37.8351 17.8578 37.9159 16.4641V13.8395Z" fill="#3C609D"/>
<path d="M7.86364 18.4067C6.35815 19.6295 4.82463 20.5745 3.24658 20.5745C-0.168394 20.5745 -0.8659 17.9449 1.04358 14.9061C2.60844 12.4278 4.51792 11.3398 5.74474 11.3398C7.76635 11.3398 9.01956 13.2561 7.02762 15.7426C5.82884 17.23 4.44867 17.8792 3.23504 17.5077C2.95832 17.4316 2.70464 17.2888 2.49631 17.0919C2.26051 18.2046 2.74695 18.9129 3.94574 18.9129C5.0192 18.9129 6.21799 18.2555 7.45965 17.2037C7.45965 17.207 8.41274 17.9433 7.86364 18.4067ZM3.10972 15.6506C3.07794 15.718 3.041 15.7828 2.99924 15.8445C3.6819 16.3737 4.46186 15.8445 5.11649 15.3038C6.00857 14.5528 6.76544 12.9274 6.05145 12.9274C5.33745 12.9274 4.01664 14.1337 3.10972 15.6506Z" fill="#00ACB4"/>
<path d="M29.4793 22.9287C29.4875 23.3137 29.4003 23.6947 29.2254 24.038C29.0648 24.3523 28.8124 24.6108 28.5015 24.7792C28.1625 24.9597 27.7825 25.0497 27.3983 25.0406H26.5508L27.2945 21.5285H28.1189C28.3035 21.5155 28.4887 21.5408 28.663 21.6027C28.8372 21.6647 28.9967 21.7619 29.1314 21.8884C29.3633 22.1239 29.4793 22.4707 29.4793 22.9287ZM27.4247 24.6856C27.7255 24.6926 28.0223 24.6163 28.2822 24.4653C28.5285 24.319 28.7255 24.1027 28.8478 23.8441C28.9838 23.5571 29.0515 23.2427 29.0456 22.9254C29.0658 22.642 28.9767 22.3617 28.7967 22.1415C28.7009 22.0484 28.5864 21.9765 28.4608 21.9306C28.3352 21.8847 28.2013 21.8658 28.0678 21.8752H27.6374L27.0339 24.6856H27.4247Z" fill="black"/>
<path d="M30.1791 25.0414H29.7734L30.344 22.4036H30.7496L30.1791 25.0414ZM30.4528 21.7298C30.4489 21.6491 30.4767 21.5701 30.5303 21.5095C30.5551 21.4814 30.5859 21.4591 30.6204 21.4443C30.6549 21.4295 30.6923 21.4226 30.7298 21.4241C30.7591 21.4201 30.789 21.4231 30.8169 21.4326C30.8449 21.4422 30.8702 21.4582 30.8909 21.4793C30.9116 21.5003 30.927 21.5259 30.936 21.554C30.9449 21.5821 30.9472 21.6119 30.9425 21.641C30.9445 21.7229 30.9157 21.8027 30.8617 21.8645C30.839 21.8924 30.8104 21.915 30.7779 21.9306C30.7454 21.9462 30.7098 21.9545 30.6738 21.9549C30.6438 21.9569 30.6137 21.9525 30.5857 21.9418C30.5576 21.9311 30.5322 21.9145 30.5112 21.8931C30.4902 21.8717 30.4741 21.846 30.464 21.8178C30.4539 21.7896 30.4501 21.7596 30.4528 21.7298Z" fill="black"/>
<path d="M32.432 22.351C32.573 22.3487 32.7113 22.3901 32.8278 22.4693C32.9491 22.5556 33.043 22.6748 33.0982 22.8128H33.1246L33.2895 22.3987H33.5962L33.0339 25.0364H32.7041L32.7667 24.5319H32.7486C32.4606 24.9 32.1572 25.0841 31.8384 25.0841C31.7378 25.0888 31.6375 25.0697 31.5458 25.0282C31.454 24.9868 31.3735 24.9243 31.3107 24.8458C31.1735 24.6549 31.1066 24.4227 31.1211 24.1884C31.1156 23.8712 31.1716 23.5559 31.286 23.2598C31.3826 22.9987 31.5457 22.767 31.7592 22.5877C31.9481 22.4315 32.1866 22.3475 32.432 22.351ZM31.9736 24.7488C32.1519 24.7388 32.319 24.6591 32.4386 24.527C32.6043 24.3625 32.7331 24.1647 32.8162 23.9468C32.9097 23.7193 32.9584 23.4761 32.9597 23.2303C32.9672 23.0863 32.9187 22.9451 32.8245 22.8358C32.7795 22.7874 32.7245 22.7492 32.6633 22.7239C32.6021 22.6987 32.5361 22.687 32.4699 22.6895C32.3822 22.6914 32.2958 22.7107 32.2157 22.7462C32.1356 22.7818 32.0633 22.8329 32.0033 22.8966C31.8476 23.0544 31.7313 23.2463 31.6636 23.457C31.5811 23.6971 31.5398 23.9494 31.5416 24.2032C31.5312 24.3489 31.5707 24.4937 31.6537 24.6141C31.6927 24.6603 31.7418 24.6969 31.7973 24.7211C31.8528 24.7454 31.9131 24.7565 31.9736 24.7537V24.7488Z" fill="black"/>
<path d="M35.4975 22.351C35.5953 22.3488 35.6929 22.3599 35.7877 22.3838L35.7003 22.7454C35.6178 22.7246 35.5331 22.7141 35.448 22.7142C35.2985 22.7152 35.1536 22.7655 35.0358 22.8572C34.8992 22.9667 34.7869 23.1032 34.706 23.2582C34.6081 23.437 34.5369 23.6291 34.4949 23.8285L34.2377 25.0364H33.832L34.396 22.3986H34.7258L34.673 22.8917H34.6961C34.7823 22.7743 34.8783 22.6643 34.983 22.563C35.0542 22.4995 35.1349 22.4474 35.2221 22.4085C35.3091 22.3711 35.4027 22.3516 35.4975 22.351Z" fill="black"/>
<path d="M36.1891 25.0414H35.7852L36.3507 22.4036H36.7564L36.1891 25.0414ZM36.4629 21.7298C36.4592 21.6494 36.4863 21.5707 36.5387 21.5095C36.564 21.4815 36.5951 21.4594 36.6298 21.4446C36.6646 21.4298 36.7021 21.4228 36.7399 21.4241C36.7692 21.4201 36.799 21.4231 36.827 21.4326C36.855 21.4422 36.8803 21.4582 36.901 21.4793C36.9216 21.5003 36.9371 21.5259 36.946 21.554C36.955 21.5821 36.9573 21.6119 36.9526 21.641C36.9546 21.7229 36.9258 21.8027 36.8718 21.8645C36.8491 21.8924 36.8204 21.915 36.7879 21.9306C36.7554 21.9462 36.7199 21.9545 36.6838 21.9549C36.6539 21.9569 36.6238 21.9525 36.5957 21.9418C36.5677 21.9311 36.5423 21.9145 36.5213 21.8931C36.5003 21.8717 36.4842 21.846 36.4741 21.8178C36.464 21.7896 36.4602 21.7596 36.4629 21.7298Z" fill="black"/>
<path d="M38.0844 25.089C37.9561 25.0961 37.8278 25.0763 37.7077 25.031C37.5876 24.9857 37.4783 24.9159 37.3869 24.8261C37.2096 24.6268 37.1188 24.3656 37.1346 24.0997C37.1338 23.8012 37.195 23.5057 37.3143 23.2319C37.4157 22.9799 37.5797 22.7576 37.7908 22.586C37.9772 22.4354 38.2104 22.354 38.4504 22.356C38.649 22.3423 38.8457 22.4007 39.0045 22.5203C39.0675 22.5759 39.117 22.645 39.1492 22.7225C39.1815 22.7999 39.1957 22.8836 39.1908 22.9673C39.1923 23.1061 39.1558 23.2426 39.0852 23.3622C39.0146 23.4819 38.9125 23.58 38.7901 23.6461C38.4376 23.8303 38.0415 23.9155 37.6441 23.8926H37.5633L37.5534 24.0849C37.5428 24.2616 37.5953 24.4363 37.7018 24.5779C37.7603 24.6398 37.832 24.6878 37.9117 24.7182C37.9913 24.7487 38.0768 24.7608 38.1619 24.7538C38.2678 24.7538 38.3732 24.7394 38.4752 24.7111C38.6129 24.6683 38.7464 24.6133 38.8742 24.5467V24.8984C38.746 24.9611 38.6118 25.0107 38.4735 25.0463C38.346 25.0761 38.2153 25.0904 38.0844 25.089ZM38.4141 22.6994C38.3248 22.7027 38.2371 22.7246 38.1568 22.7637C38.0764 22.8027 38.0051 22.8581 37.9475 22.9262C37.7875 23.1053 37.6742 23.321 37.6177 23.554H37.6457C37.9343 23.5684 38.2224 23.5196 38.49 23.4111C38.5753 23.3793 38.6489 23.3226 38.7013 23.2484C38.7536 23.1742 38.7823 23.086 38.7835 22.9953C38.7845 22.9558 38.7772 22.9166 38.7622 22.8801C38.7472 22.8436 38.7246 22.8106 38.6961 22.7833C38.6192 22.7224 38.5221 22.6924 38.424 22.6994H38.4141Z" fill="black"/>
<path d="M41.11 24.292C41.1151 24.4039 41.0936 24.5154 41.0472 24.6174C41.0008 24.7193 40.9307 24.8089 40.8428 24.8787C40.6231 25.0312 40.3582 25.1053 40.0909 25.0891C39.8361 25.0933 39.584 25.0369 39.3555 24.9247V24.5434C39.4692 24.6138 39.5917 24.6691 39.7199 24.7078C39.8372 24.742 39.9587 24.7603 40.081 24.762C40.2429 24.7738 40.4042 24.7316 40.5394 24.642C40.5882 24.6071 40.6278 24.5608 40.6548 24.5073C40.6818 24.4538 40.6954 24.3946 40.6944 24.3347C40.6976 24.2495 40.6674 24.1664 40.6103 24.103C40.5007 24.0019 40.3782 23.9156 40.2459 23.8466C40.077 23.7605 39.926 23.6434 39.8007 23.5015C39.7134 23.3868 39.6675 23.246 39.6704 23.1021C39.6674 23.0002 39.6879 22.8989 39.7302 22.806C39.7725 22.7132 39.8355 22.6312 39.9145 22.5663C40.0979 22.4249 40.3259 22.3533 40.5576 22.3642C40.8329 22.3642 41.1049 22.4248 41.354 22.5417L41.2237 22.8704L41.0885 22.8112C40.9204 22.7412 40.7398 22.7059 40.5576 22.7077C40.4312 22.7001 40.3061 22.7373 40.2047 22.8128C40.1634 22.8445 40.1303 22.8854 40.1079 22.9322C40.0856 22.9791 40.0746 23.0305 40.0761 23.0824C40.0747 23.1676 40.1052 23.2502 40.1618 23.3141C40.2676 23.4131 40.387 23.4966 40.5163 23.5623C40.6486 23.6314 40.773 23.7146 40.8873 23.8104C40.9563 23.873 41.0123 23.9483 41.0522 24.0323C41.0903 24.1136 41.11 24.2023 41.11 24.292Z" fill="black"/>
<mask id="path-25-inside-1" fill="white">
<path d="M5.63281 25.4572L10.5731 25.4128L15.5133 25.3882L15.449 25.4293L16.9331 21.9878L17.0271 21.7676L17.0782 22.0026L18.023 26.4564L17.8664 26.4499L19.2861 21.9188L19.3702 21.6509L19.4263 21.9254L20.0413 24.9757L19.982 24.928L23.9823 24.951L27.981 24.9888L23.9823 25.0266L19.982 25.048L19.9325 25.0496L19.9226 25.0003L19.2845 21.955L19.4246 21.9616L18.0214 26.4975L17.929 26.7934L17.8647 26.4893L16.9281 22.0339L17.0732 22.0487L15.5776 25.4852L15.5578 25.5262H15.5133L10.5731 25.5016L5.63281 25.4572Z"/>
</mask>
<path d="M5.63281 25.4572L10.5731 25.4128L15.5133 25.3882L15.449 25.4293L16.9331 21.9878L17.0271 21.7676L17.0782 22.0026L18.023 26.4564L17.8664 26.4499L19.2861 21.9188L19.3702 21.6509L19.4263 21.9254L20.0413 24.9757L19.982 24.928L23.9823 24.951L27.981 24.9888L23.9823 25.0266L19.982 25.048L19.9325 25.0496L19.9226 25.0003L19.2845 21.955L19.4246 21.9616L18.0214 26.4975L17.929 26.7934L17.8647 26.4893L16.9281 22.0339L17.0732 22.0487L15.5776 25.4852L15.5578 25.5262H15.5133L10.5731 25.5016L5.63281 25.4572Z" fill="black"/>
<path d="M5.63281 25.4572L5.62895 25.0274L5.62895 25.887L5.63281 25.4572ZM10.5731 25.4128L10.5709 24.983L10.5692 24.983L10.5731 25.4128ZM15.5133 25.3882L15.7447 25.7504L16.996 24.951L15.5112 24.9584L15.5133 25.3882ZM15.449 25.4293L15.0543 25.2591L14.4993 26.5461L15.6804 25.7915L15.449 25.4293ZM16.9331 21.9878L17.3278 22.1581L17.3284 22.1566L16.9331 21.9878ZM17.0271 21.7676L17.4471 21.6763L17.1607 20.3596L16.6317 21.5989L17.0271 21.7676ZM17.0782 22.0026L17.4986 21.9134L17.4982 21.9113L17.0782 22.0026ZM18.023 26.4564L18.005 26.8859L18.5584 26.9091L18.4435 26.3672L18.023 26.4564ZM17.8664 26.4499L17.4562 26.3214L17.2887 26.8558L17.8484 26.8793L17.8664 26.4499ZM19.2861 21.9188L18.876 21.7901L18.876 21.7903L19.2861 21.9188ZM19.3702 21.6509L19.7913 21.5649L19.4584 19.935L18.9601 21.5222L19.3702 21.6509ZM19.4263 21.9254L19.8476 21.8404L19.8474 21.8394L19.4263 21.9254ZM20.0413 24.9757L19.7722 25.3108L20.6971 26.0535L20.4627 24.8907L20.0413 24.9757ZM19.982 24.928L19.9844 24.4982L18.7513 24.4911L19.7129 25.2632L19.982 24.928ZM23.9823 24.951L23.9864 24.5212L23.9848 24.5212L23.9823 24.951ZM27.981 24.9888L27.9851 25.4186V24.559L27.981 24.9888ZM23.9823 25.0266L23.9846 25.4565L23.9864 25.4564L23.9823 25.0266ZM19.982 25.048L19.9797 24.618L19.9677 24.6184L19.982 25.048ZM19.9325 25.0496L19.5111 25.1342L19.5827 25.4913L19.9468 25.4792L19.9325 25.0496ZM19.9226 25.0003L20.3441 24.9158L20.3433 24.9122L19.9226 25.0003ZM19.2845 21.955L19.3046 21.5256L18.7499 21.4996L18.8638 22.0431L19.2845 21.955ZM19.4246 21.9616L19.8353 22.0886L19.9993 21.5582L19.4448 21.5322L19.4246 21.9616ZM18.0214 26.4975L18.4317 26.6256L18.432 26.6246L18.0214 26.4975ZM17.929 26.7934L17.5085 26.8823L17.849 28.4922L18.3393 26.9214L17.929 26.7934ZM17.8647 26.4893L17.4441 26.5777L17.4442 26.5783L17.8647 26.4893ZM16.9281 22.0339L16.9717 21.6063L16.3865 21.5466L16.5075 22.1223L16.9281 22.0339ZM17.0732 22.0487L17.4673 22.2202L17.7021 21.6807L17.1168 21.6211L17.0732 22.0487ZM15.5776 25.4852L15.9649 25.6717L15.9685 25.6642L15.9717 25.6567L15.5776 25.4852ZM15.5578 25.5262V25.9561H15.8279L15.9451 25.7127L15.5578 25.5262ZM15.5133 25.5262L15.5112 25.9561H15.5133V25.5262ZM10.5731 25.5016L10.5692 25.9314L10.5709 25.9314L10.5731 25.5016ZM5.63667 25.887L10.5769 25.8427L10.5692 24.983L5.62895 25.0274L5.63667 25.887ZM10.5752 25.8427L15.5155 25.818L15.5112 24.9584L10.5709 24.983L10.5752 25.8427ZM15.2819 25.026L15.2176 25.0671L15.6804 25.7915L15.7447 25.7504L15.2819 25.026ZM15.8437 25.5995L17.3278 22.1581L16.5384 21.8176L15.0543 25.2591L15.8437 25.5995ZM17.3284 22.1566L17.4224 21.9363L16.6317 21.5989L16.5377 21.8191L17.3284 22.1566ZM16.6071 21.859L16.6582 22.094L17.4982 21.9113L17.4471 21.6763L16.6071 21.859ZM16.6577 22.0918L17.6026 26.5456L18.4435 26.3672L17.4986 21.9134L16.6577 22.0918ZM18.041 26.027L17.8844 26.0204L17.8484 26.8793L18.005 26.8859L18.041 26.027ZM18.2765 26.5784L19.6963 22.0473L18.876 21.7903L17.4562 26.3214L18.2765 26.5784ZM19.6962 22.0476L19.7803 21.7797L18.9601 21.5222L18.876 21.7901L19.6962 22.0476ZM18.9491 21.737L19.0052 22.0114L19.8474 21.8394L19.7913 21.5649L18.9491 21.737ZM19.0049 22.0104L19.62 25.0606L20.4627 24.8907L19.8476 21.8404L19.0049 22.0104ZM20.3104 24.6405L20.2511 24.5929L19.7129 25.2632L19.7722 25.3108L20.3104 24.6405ZM19.9795 25.3578L23.9799 25.3808L23.9848 24.5212L19.9844 24.4982L19.9795 25.3578ZM23.9783 25.3808L27.977 25.4186L27.9851 24.559L23.9864 24.5212L23.9783 25.3808ZM27.977 24.559L23.9783 24.5968L23.9864 25.4564L27.9851 25.4186L27.977 24.559ZM23.98 24.5968L19.9797 24.6182L19.9843 25.4778L23.9846 25.4564L23.98 24.5968ZM19.9677 24.6184L19.9182 24.6201L19.9468 25.4792L19.9962 25.4776L19.9677 24.6184ZM20.3539 24.9651L20.344 24.9158L19.5012 25.0849L19.5111 25.1342L20.3539 24.9651ZM20.3433 24.9122L19.7052 21.8668L18.8638 22.0431L19.5019 25.0885L20.3433 24.9122ZM19.2643 22.3843L19.4045 22.3909L19.4448 21.5322L19.3046 21.5256L19.2643 22.3843ZM19.014 21.8345L17.6107 26.3705L18.432 26.6246L19.8353 22.0886L19.014 21.8345ZM17.6111 26.3695L17.5187 26.6653L18.3393 26.9214L18.4317 26.6256L17.6111 26.3695ZM18.3496 26.7044L18.2852 26.4004L17.4442 26.5783L17.5085 26.8823L18.3496 26.7044ZM18.2854 26.4009L17.3488 21.9454L16.5075 22.1223L17.4441 26.5777L18.2854 26.4009ZM16.8845 22.4615L17.0296 22.4763L17.1168 21.6211L16.9717 21.6063L16.8845 22.4615ZM16.6791 21.8771L15.1835 25.3136L15.9717 25.6567L17.4673 22.2202L16.6791 21.8771ZM15.1904 25.2987L15.1706 25.3398L15.9451 25.7127L15.9649 25.6717L15.1904 25.2987ZM15.5578 25.0964H15.5133V25.9561H15.5578V25.0964ZM15.5155 25.0964L10.5752 25.0718L10.5709 25.9314L15.5112 25.9561L15.5155 25.0964ZM10.5769 25.0718L5.63667 25.0274L5.62895 25.887L10.5692 25.9314L10.5769 25.0718Z" fill="black" mask="url(#path-25-inside-1)"/>
</svg>
