<?xml version="1.0" encoding="UTF-8"?>
<svg width="16px" height="16px" viewBox="0 0 16 16" version="1.1" xmlns="http://www.w3.org/2000/svg" xmlns:xlink="http://www.w3.org/1999/xlink">
    <!-- Generator: sketchtool 57.1 (101010) - https://sketch.com -->
    <title>9F8EBDCF-150C-4CDF-9728-907FF0FE9E88</title>
    <desc>Created with sketchtool.</desc>
    <g id="Page-1" stroke="none" stroke-width="1" fill="none" fill-rule="evenodd">
        <g id="Verify-payment" transform="translate(-543.000000, -634.000000)">
            <g id="ic_error_outline" transform="translate(542.000000, 633.000000)">
                <g id="Icon-24px">
                    <polygon id="Shape" points="0 0 18 0 18 18 0 18"></polygon>
                    <path d="M8.25,11.25 L9.75,11.25 L9.75,12.75 L8.25,12.75 L8.25,11.25 Z M8.25,5.25 L9.75,5.25 L9.75,9.75 L8.25,9.75 L8.25,5.25 Z M8.9925,1.5 C4.8525,1.5 1.5,4.86 1.5,9 C1.5,13.14 4.8525,16.5 8.9925,16.5 C13.14,16.5 16.5,13.14 16.5,9 C16.5,4.86 13.14,1.5 8.9925,1.5 L8.9925,1.5 Z M9,15 C5.685,15 3,12.315 3,9 C3,5.685 5.685,3 9,3 C12.315,3 15,5.685 15,9 C15,12.315 12.315,15 9,15 L9,15 Z" id="Shape" fill="#F18C34"></path>
                </g>
            </g>
        </g>
    </g>
</svg>