<svg width="12" height="11" viewBox="0 0 12 11" fill="none" xmlns="http://www.w3.org/2000/svg">
<g clip-path="url(#clip0)">
<path d="M5.84425 6.36136C6.28409 6.36136 6.64065 6.0048 6.64065 5.56496C6.64065 5.12512 6.28409 4.76855 5.84425 4.76855C5.40441 4.76855 5.04785 5.12512 5.04785 5.56496C5.04785 6.0048 5.40441 6.36136 5.84425 6.36136Z" fill="white"/>
<path d="M5.84356 3.2373C4.55994 3.2373 3.51562 4.28162 3.51562 5.56525C3.51562 6.84888 4.55994 7.89319 5.84356 7.89319C7.12719 7.89319 8.1715 6.84888 8.1715 5.56525C8.1715 4.28162 7.12719 3.2373 5.84356 3.2373ZM5.84356 7.07637C5.01032 7.07637 4.33245 6.39849 4.33245 5.56525C4.33245 4.73201 5.01032 4.05413 5.84356 4.05413C6.6768 4.05413 7.35468 4.73201 7.35468 5.56525C7.35468 6.39849 6.6768 7.07637 5.84356 7.07637Z" fill="white"/>
<path d="M10.7868 4.67366C10.5699 4.34067 9.95804 3.48583 8.96209 2.74115C7.95251 1.98629 6.89962 1.60352 5.83264 1.60352C4.76718 1.60352 3.71337 1.98525 2.70049 2.73807C1.7001 3.4816 1.08332 4.33538 0.864572 4.66794C0.50608 5.21296 0.50608 5.91726 0.864572 6.46228C1.08332 6.79485 1.7001 7.64864 2.70049 8.39217C3.71337 9.14499 4.76716 9.52672 5.83264 9.52672C7.47297 9.52672 8.792 8.6121 9.60966 7.84486C9.77415 7.69052 9.78238 7.43207 9.62804 7.26758C9.47368 7.10307 9.21525 7.09486 9.05076 7.2492C8.34057 7.91558 7.20578 8.70992 5.8326 8.70992C3.84964 8.70992 2.2057 7.01495 1.54694 6.01342C1.36781 5.74109 1.36781 5.38919 1.54694 5.11686C2.2057 4.11533 3.84964 2.42038 5.8326 2.42038C7.81551 2.42038 9.44942 4.11696 10.1023 5.11943C10.2786 5.39019 10.2786 5.74008 10.1023 6.01085C9.97918 6.19986 10.0326 6.45286 10.2216 6.57596C10.4106 6.69904 10.6637 6.64562 10.7868 6.45658C11.1394 5.91503 11.1394 5.21518 10.7868 4.67366Z" fill="white"/>
</g>
<defs>
<clipPath id="clip0">
<rect width="10.4555" height="10.4555" fill="white" transform="translate(0.595703 0.336914)"/>
</clipPath>
</defs>
</svg>
