<svg width="16" height="16" viewBox="0 0 16 16" fill="none" xmlns="http://www.w3.org/2000/svg">
<g clip-path="url(#clip0)">
<path d="M14.0605 8.75184C14.0563 8.75484 14.0521 8.75754 14.0482 8.76024L11.3887 10.5143L15.8671 14.8205V7.56055L14.0605 8.75184Z" fill="#64C8BC"/>
<path d="M0.566406 7.56055V14.8205L5.04481 10.5143C3.98125 9.81285 1.40428 8.11297 0.566406 7.56055Z" fill="#64C8BC"/>
<path d="M8.46335 12.4427C8.31449 12.5406 8.11952 12.5425 7.96775 12.4427L5.81585 11.0234L1.24805 15.4142H15.183L10.6152 11.0234L8.46335 12.4427Z" fill="#64C8BC"/>
<path d="M2.18195 7.54856C2.18195 7.13849 2.18195 5.97378 2.18195 5.60547C1.2056 6.41097 1.48424 6.18108 0.873047 6.68546C0.873047 6.68546 1.54508 7.12871 2.18195 7.54856Z" fill="#64C8BC"/>
<path d="M8.02576 0.783424L6.64648 1.92132H9.78688L8.4076 0.783424C8.29675 0.691984 8.13661 0.691984 8.02576 0.783424Z" fill="#64C8BC"/>
<path d="M15.5608 6.68546C14.9494 6.1809 15.2282 6.41094 14.252 5.60547V7.54856C14.8782 7.13576 15.5608 6.68546 15.5608 6.68546Z" fill="#64C8BC"/>
<path d="M8.21713 11.5275C11.6704 9.24994 9.79405 10.4874 13.3522 8.14081V3.12031C13.3522 2.95462 13.2179 2.82031 13.0522 2.82031H3.38203C3.21634 2.82031 3.08203 2.95462 3.08203 3.12031V8.14081C3.31261 8.29288 8.00866 11.39 8.21713 11.5275ZM5.74783 6.69661C5.74783 5.68321 6.57235 4.85551 7.58863 4.85551H9.22423L8.88943 4.52071C8.71393 4.34491 8.71393 4.05991 8.88943 3.88411C9.06523 3.70861 9.35023 3.70861 9.52603 3.88411L10.6291 4.98751C10.8058 5.16418 10.8038 5.44918 10.6291 5.62381L9.52603 6.72691C9.35098 6.90196 9.06559 6.90307 8.88943 6.72691C8.88853 6.72601 8.88793 6.72541 8.88703 6.72451C8.71366 6.54811 8.71504 6.26503 8.88943 6.09061L9.22453 5.75551H7.58863C7.06873 5.75551 6.64783 6.17908 6.64783 6.69661C6.64783 7.21333 7.0681 7.63741 7.58863 7.63741H10.3108C10.5595 7.63741 10.7608 7.83901 10.7608 8.08741C10.7608 8.33581 10.5595 8.53741 10.3108 8.53741C8.76817 8.53741 9.12397 8.53741 7.58863 8.53741C6.57133 8.53741 5.74783 7.70947 5.74783 6.69661Z" fill="#64C8BC"/>
</g>
<defs>
<clipPath id="clip0">
<rect width="15.3" height="15.3" fill="white" transform="translate(0.566406 0.414062)"/>
</clipPath>
</defs>
</svg>
