<svg width="11" height="9" viewBox="0 0 11 9" fill="none" xmlns="http://www.w3.org/2000/svg">
<path d="M10.4723 3.91963C10.2555 3.58664 9.64359 2.7318 8.64764 1.98712C7.63806 1.23226 6.58517 0.849487 5.51819 0.849487C4.45272 0.849487 3.39892 1.23122 2.38603 1.98404C1.38565 2.72757 0.768869 3.58135 0.550119 3.91391C0.191627 4.45893 0.191627 5.16323 0.550119 5.70825C0.768869 6.04082 1.38565 6.89461 2.38603 7.63814C3.39892 8.39096 4.4527 8.77269 5.51819 8.77269C7.15851 8.77269 8.47755 7.85807 9.29521 7.09083C9.4597 6.93649 9.46793 6.67804 9.31359 6.51355C9.15922 6.34904 8.9008 6.34083 8.7363 6.49517C8.02612 7.16155 6.89132 7.95589 5.51815 7.95589C3.53519 7.95589 1.89125 6.26092 1.23249 5.25939C1.05335 4.98706 1.05335 4.63516 1.23249 4.36283C1.89125 3.3613 3.53519 1.66635 5.51815 1.66635C7.50106 1.66635 9.13496 3.36293 9.7878 4.3654C9.96414 4.63616 9.96414 4.98606 9.7878 5.25682C9.66473 5.44584 9.71817 5.69883 9.90719 5.82193C10.0962 5.94501 10.3492 5.89159 10.4723 5.70255C10.8249 5.161 10.8249 4.46115 10.4723 3.91963Z" fill="#FFAB00"/>
</svg>
