<svg width="12" height="11" viewBox="0 0 12 11" fill="none" xmlns="http://www.w3.org/2000/svg">
<g clip-path="url(#clip0)">
<path d="M6.12453 6.36038C6.56437 6.36038 6.92093 6.00382 6.92093 5.56398C6.92093 5.12414 6.56437 4.76758 6.12453 4.76758C5.68469 4.76758 5.32812 5.12414 5.32812 5.56398C5.32812 6.00382 5.68469 6.36038 6.12453 6.36038Z" fill="#FFAB00"/>
<path d="M6.12384 3.23633C4.84021 3.23633 3.7959 4.28064 3.7959 5.56427C3.7959 6.8479 4.84021 7.89222 6.12384 7.89222C7.40746 7.89222 8.45177 6.8479 8.45177 5.56427C8.45177 4.28064 7.40746 3.23633 6.12384 3.23633ZM6.12384 7.07539C5.2906 7.07539 4.61272 6.39752 4.61272 5.56427C4.61272 4.73103 5.2906 4.05315 6.12384 4.05315C6.95708 4.05315 7.63495 4.73103 7.63495 5.56427C7.63495 6.39752 6.95708 7.07539 6.12384 7.07539Z" fill="#FFAB00"/>
<path d="M11.067 4.6717C10.8502 4.33872 10.2383 3.48387 9.24236 2.7392C8.23279 1.98433 7.1799 1.60156 6.11292 1.60156C5.04745 1.60156 3.99364 1.98329 2.98076 2.73612C1.98037 3.47965 1.3636 4.33343 1.14485 4.66599C0.786354 5.211 0.786354 5.91531 1.14485 6.46032C1.3636 6.7929 1.98037 7.64668 2.98076 8.39021C3.99364 9.14304 5.04743 9.52477 6.11292 9.52477C7.75324 9.52477 9.07228 8.61015 9.88993 7.84291C10.0544 7.68857 10.0627 7.43012 9.90831 7.26563C9.75395 7.10111 9.49552 7.09291 9.33103 7.24725C8.62085 7.91363 7.48605 8.70797 6.11288 8.70797C4.12991 8.70797 2.48598 7.013 1.82721 6.01147C1.64808 5.73913 1.64808 5.38724 1.82721 5.1149C2.48598 4.11337 4.12991 2.41842 6.11288 2.41842C8.09578 2.41842 9.72969 4.11501 10.3825 5.11747C10.5589 5.38824 10.5589 5.73813 10.3825 6.00889C10.2595 6.19791 10.3129 6.45091 10.5019 6.57401C10.6909 6.69708 10.9439 6.64366 11.067 6.45463C11.4197 5.91308 11.4197 5.21323 11.067 4.6717Z" fill="#FFAB00"/>
</g>
<defs>
<clipPath id="clip0">
<rect width="10.4555" height="10.4555" fill="white" transform="translate(0.875977 0.335938)"/>
</clipPath>
</defs>
</svg>
