<svg width="16" height="17" viewBox="0 0 16 17" fill="none" xmlns="http://www.w3.org/2000/svg">
<g clip-path="url(#clip0)">
<path d="M10.5 1.66162H9.414C9.208 1.07962 8.652 0.661621 8 0.661621C7.348 0.661621 6.792 1.07962 6.585 1.66162H5.5C5.224 1.66162 5 1.88562 5 2.16162V4.16162C5 4.43762 5.224 4.66162 5.5 4.66162H10.5C10.776 4.66162 11 4.43762 11 4.16162V2.16162C11 1.88562 10.776 1.66162 10.5 1.66162Z" fill="#344563"/>
<path d="M11.847 10.6611L10.468 14.3371C10.395 14.5321 10.208 14.6611 10 14.6611C9.993 14.6611 9.986 14.6611 9.979 14.6611C9.764 14.6521 9.578 14.5061 9.519 14.2991L7.921 8.7041L6.464 12.3461C6.397 12.5141 6.244 12.6321 6.065 12.6571C5.885 12.6811 5.708 12.6051 5.6 12.4611L4.25 10.6611H2V15.6611C2 16.2221 2.439 16.6611 3 16.6611H13C13.561 16.6611 14 16.2221 14 15.6611V10.6611H11.847Z" fill="#344563"/>
<path d="M13 2.66162H12V4.16162C12 4.98862 11.327 5.66162 10.5 5.66162H5.5C4.673 5.66162 4 4.98862 4 4.16162V2.66162H3C2.449 2.66162 2 3.11062 2 3.66162V9.66162H4.5C4.657 9.66162 4.806 9.73562 4.9 9.86162L5.866 11.1496L7.535 6.97562C7.615 6.77762 7.817 6.64962 8.025 6.66162C8.239 6.67262 8.421 6.81862 8.481 7.02362L10.064 12.5656L11.032 9.98562C11.105 9.79062 11.292 9.66162 11.5 9.66162H14V3.66162C14 3.10062 13.561 2.66162 13 2.66162Z" fill="#344563"/>
</g>
<defs>
<clipPath id="clip0">
<rect width="16" height="16" fill="white" transform="translate(0 0.661621)"/>
</clipPath>
</defs>
</svg>
