<?xml version="1.0" encoding="UTF-8"?>
<svg width="16px" height="16px" viewBox="0 0 16 16" version="1.1" xmlns="http://www.w3.org/2000/svg" xmlns:xlink="http://www.w3.org/1999/xlink">
    <!-- Generator: sketchtool 57.1 (101010) - https://sketch.com -->
    <title>718C1CEF-D5A1-4C79-812A-7BB9B5BAC54C</title>
    <desc>Created with sketchtool.</desc>
    <g id="Page-1" stroke="none" stroke-width="1" fill="none" fill-rule="evenodd">
        <g id="Head-of-Lab" transform="translate(-1106.000000, -790.000000)">
            <g id="ic_search" transform="translate(1104.000000, 788.000000)">
                <g id="Icon-24px">
                    <path d="M12.9166667,11.6666667 L12.2583333,11.6666667 L12.025,11.4416667 C12.8416667,10.4916667 13.3333333,9.25833333 13.3333333,7.91666667 C13.3333333,4.925 10.9083333,2.5 7.91666667,2.5 C4.925,2.5 2.5,4.925 2.5,7.91666667 C2.5,10.9083333 4.925,13.3333333 7.91666667,13.3333333 C9.25833333,13.3333333 10.4916667,12.8416667 11.4416667,12.025 L11.6666667,12.2583333 L11.6666667,12.9166667 L15.8333333,17.075 L17.075,15.8333333 L12.9166667,11.6666667 L12.9166667,11.6666667 Z M7.91666667,11.6666667 C5.84166667,11.6666667 4.16666667,9.99166667 4.16666667,7.91666667 C4.16666667,5.84166667 5.84166667,4.16666667 7.91666667,4.16666667 C9.99166667,4.16666667 11.6666667,5.84166667 11.6666667,7.91666667 C11.6666667,9.99166667 9.99166667,11.6666667 7.91666667,11.6666667 L7.91666667,11.6666667 Z" id="Shape" fill="#333333"></path>
                    <polygon id="Shape" points="0 0 20 0 20 20 0 20"></polygon>
                </g>
            </g>
        </g>
    </g>
</svg>