<svg width="158" height="50" viewBox="0 0 158 50" fill="none" xmlns="http://www.w3.org/2000/svg">
<path d="M8.63156 4.21053C3.84209 6.31579 2.99998 8.94737 3.26314 21.0526C3.42104 29.6316 3.5263 30.4211 4.68419 32.2632C6.15788 34.6316 9.21051 36.3158 12.1052 36.3158C14.5263 36.3158 14.6842 36.7368 12.8947 38.4211C12.1579 39.1053 11.6842 39.7368 11.7895 39.8421C11.8947 39.9474 13.1052 39.4737 14.5263 38.7368C20.1579 36 21.6842 36.3684 27.6316 42.1053C32.4737 46.7368 35.2631 47.6842 40.7895 46.5263C42.7895 46.1053 45.3684 45.2105 46.5789 44.5263C48.7895 43.1579 54.3684 37.8947 53.9474 37.4737C53.7895 37.3158 53.2631 37.5263 52.7895 37.9474C51.3684 39.1579 49.1052 40 47.3684 40C45.8947 40 42.6316 37.7895 42.6316 36.7895C42.6316 36.5263 43.7895 36.3158 45.2105 36.3158C46.6316 36.3158 48.4737 36.0526 49.3158 35.7368C51.421 34.9474 53.5789 32.7368 53.9474 31C54.1579 30.1579 54.5263 29.4737 54.7895 29.4737C55.0526 29.4737 55.2631 25.4211 55.2631 20C55.2631 14.0526 55.0526 10.5263 54.7368 10.5263C54.4737 10.5263 54.2105 10.0526 54.2105 9.52632C54.2105 8 51.6316 5.26316 49.2105 4.1579C47.3158 3.26316 45.4737 3.1579 28.9474 3.21053C12.5789 3.21053 10.5789 3.31579 8.63156 4.21053ZM11.5789 5.31579C10.2631 5.47369 9.10525 5.57895 8.99998 5.47369C8.5263 5.05264 11.3158 4.42105 12.5789 4.68421C13.7368 4.89474 13.5263 5 11.5789 5.31579ZM31.2631 4.78947C31.1579 4.94737 27.5789 5.1579 23.3684 5.21053C19.1052 5.26316 15.421 5.42105 15.2105 5.52632C15 5.68421 14.7368 5.47369 14.5789 5.10527C14.3684 4.52632 15.9474 4.36842 22.8947 4.42105C27.6316 4.47369 31.3684 4.63158 31.2631 4.78947ZM34.4737 4.73684C34.3158 5 33.7368 5.1579 33.1579 5.10527C31.8947 5 32.2105 4.47369 33.6316 4.36842C34.2631 4.31579 34.6316 4.47369 34.4737 4.73684ZM43.3684 4.78947C43.2631 4.94737 41.3684 5.10527 39.1052 5.10527C36.8421 5.10527 35.5263 4.94737 36.2105 4.78947C37.7895 4.36842 43.6316 4.36842 43.3684 4.78947ZM46.4737 5.10527C46.1052 5.21053 45.4737 5.21053 45.1579 5.10527C44.7895 4.94737 45.0526 4.84211 45.7895 4.84211C46.5263 4.84211 46.7895 4.94737 46.4737 5.10527ZM49.3158 5.57895C49.1579 5.73684 48.6842 5.78947 48.3158 5.63158C47.8947 5.47369 48.0526 5.31579 48.6316 5.31579C49.2105 5.26316 49.5263 5.42105 49.3158 5.57895ZM7.89472 6.57895C7.5263 7 6.99998 7.21053 6.73683 7.05264C6.42104 6.84211 6.47367 6.52632 6.89472 6.26316C8.05261 5.52632 8.63156 5.73684 7.89472 6.57895ZM49.8947 8.10527L51.8421 9.89474L52 19.1053C52.1579 26.7895 52.0526 28.6316 51.3158 30C50 32.4737 47.6316 33.6842 43.8947 33.6842C41 33.6842 40.5789 33.5263 39 31.8947L37.2631 30.1053L38.421 28.9474C39.0526 28.3158 40.0526 26.6842 40.6842 25.3158C43.7368 18.5263 39.8947 10.5263 32.3684 8.1579C29.8947 7.42105 29.1052 7.36842 26.5263 7.94737C16.8947 10.1053 13 21.6316 19.5263 28.6842C21.7368 31.0526 21.9474 31.5789 20.9474 31.5789C20.5789 31.5789 19.6842 32.0526 18.9474 32.6316C17.1052 34.0526 11.4737 34.1053 9.10525 32.6316C8.21051 32.1053 7.21051 31.1579 6.89472 30.6316C6.57893 30.0526 6.31577 25.4737 6.31577 20C6.21051 11.2632 6.31577 10.2632 7.26314 9C9.21051 6.36842 9.5263 6.31579 29.3684 6.31579H47.8947L49.8947 8.10527ZM5.84209 9.1579C5.10525 11.0526 4.68419 10.8947 5.3684 8.89474C5.68419 8.05264 5.99998 7.42105 6.10525 7.52632C6.26314 7.63158 6.10525 8.36842 5.84209 9.1579ZM31.6842 9.84211C32.3684 10.4737 32.6316 11.4737 32.6316 13.7895V16.8947L35.8421 16.7368C39.5263 16.5789 40.5263 17.3684 40.5263 20.4737C40.5263 23.2632 39.3158 24.2105 35.6842 24.2105H32.6316V26.2632C32.6316 27.9474 32.4737 28.2632 31.7368 28.1053C31.2105 27.9474 29.5263 28.2105 28.0526 28.5789L25.2631 29.3158V26.7895V24.2105H22.1579C19.4737 24.2105 18.8947 24.0526 18.2105 23.0526C17.0526 21.3684 17.1579 18.7895 18.421 17.6316C19.2105 16.8947 20.2105 16.6842 22.3684 16.7895L25.2631 16.8947V13.8947C25.2631 11.8421 25.5263 10.5789 26.1579 9.89474C27.2105 8.68421 30.3684 8.63158 31.6842 9.84211ZM24.421 10.5789C24.2105 10.9474 24.0526 12.1579 24.0526 13.2632C24.0526 14.9474 23.8947 15.3158 22.8421 15.5789C22.1052 15.7895 21.1052 15.7895 20.5789 15.6316C20.0526 15.5263 19.2631 15.6316 18.7895 15.8947C18.1579 16.2105 18.3684 15.6316 19.3684 14.0526C20.1579 12.7368 20.9474 11.7895 21.1052 11.8947C21.3158 12 21.6316 11.7368 21.7895 11.3158C22.0526 10.5789 24.2631 9.36842 24.6842 9.78947C24.7368 9.84211 24.6316 10.2105 24.421 10.5789ZM35.7895 11.3158C36.2105 12.1053 36.7368 12.4211 37.3158 12.2632C37.7895 12.1053 37.3158 12.7895 36.3684 13.8421C35.3684 14.9474 34.3684 15.7895 34.2105 15.7895C34.0526 15.7895 33.8421 14.7895 33.7895 13.5263C33.6842 12.3158 33.5263 10.8947 33.3684 10.4211C32.9474 9.10527 35 9.84211 35.7895 11.3158ZM38.6316 14C38.8421 14.5789 38.7368 14.7895 38.2105 14.5789C37.7368 14.3684 37.5263 14.5263 37.6842 14.8947C37.7895 15.2632 37.3684 15.5789 36.5263 15.5789L35.1579 15.6842L36.3684 14.4211C37.7368 12.9474 38.2105 12.8421 38.6316 14ZM24.1052 26.6842C24.0526 27.5263 24.2105 28.6842 24.421 29.3684C25.0526 31.3158 23.3158 31.5263 21.8421 29.6842C21.1579 28.8421 20.7368 27.9474 20.8947 27.6842C21.1052 27.4211 20.9474 27.3684 20.6316 27.5789C20.3158 27.7368 19.7895 27.4211 19.4737 26.7895C19.0526 26 19 25.7895 19.421 26C19.7368 26.2105 20 26.1053 20 25.8421C20 25.5263 20.9474 25.2632 22.1052 25.2632C24.1052 25.2632 24.2105 25.3684 24.1052 26.6842ZM39.1579 25.8947C38.8947 26.2632 38.1579 27.4211 37.3684 28.4737C36.1052 30.2632 35.9474 30.3158 34.3158 29.7895C33.1579 29.3684 32.7895 29 33.1579 28.6316C33.421 28.3684 33.7368 27.4737 33.7895 26.6842C33.8947 25.3158 34.0526 25.2632 36.7368 25.2632C38.8421 25.2632 39.421 25.4211 39.1579 25.8947ZM35.1579 31.2632C37.1579 32.3158 39.421 34.8421 41 37.7368C42 39.4737 43 40.5263 44.5789 41.2632C45.7895 41.8947 46.7895 42.4737 46.8421 42.6842C46.8421 43.2632 39.5789 45.2632 37.3684 45.2632C34.2105 45.2632 31 43.5789 28.6316 40.6842C26.4737 38.0526 22.4737 35.2632 20.8947 35.2632C19.2631 35.2632 20.6842 33.9474 24.3684 32.1053C27.9474 30.3158 32.6316 29.9474 35.1579 31.2632ZM19.6316 34.7368C19.4737 35.3158 18.7368 35.9474 17.9474 36.1053C17.2105 36.2632 16.3684 36.4737 16.0526 36.5263C15.7895 36.6316 15.0526 36.2632 14.5263 35.7368C13.5263 34.7368 13.5263 34.7368 15.8421 34.7368C17.1052 34.7368 18.5263 34.4737 18.9474 34.2105C19.3684 33.9474 19.7895 33.6842 19.8421 33.6842C19.8421 33.6842 19.7895 34.1579 19.6316 34.7368ZM42.3158 35.3684C42.1579 35.5789 41.8421 35.7895 41.5263 35.7895C41.2631 35.7895 41.0526 35.5789 41.0526 35.3684C41.0526 35.1053 41.421 34.8947 41.8421 34.8947C42.2631 34.8947 42.4737 35.1053 42.3158 35.3684ZM48.5789 41.4211C48.2105 41.5263 47.5789 41.5263 47.2631 41.4211C46.8947 41.2632 47.1579 41.1579 47.8947 41.1579C48.6316 41.1579 48.8947 41.2632 48.5789 41.4211Z" fill="#D32027"/>
<path d="M31.3158 33.2632C30.0526 33.9474 26.7368 37.4211 27.0526 37.7369C27.1579 37.8948 28.6316 38.5264 30.2631 39.2106C32.5263 40.1053 33.6316 40.3158 34.6842 39.9474C38.8947 38.579 40 38.1053 40 37.7895C40 37.5264 39.6842 37.3685 39.3158 37.3685C38.9473 37.3685 37.9473 36.6316 37.0526 35.7369C35.7895 34.3685 33.1579 32.579 32.5263 32.6316C32.421 32.6316 31.8947 32.9474 31.3158 33.2632ZM34.2105 34.2106C34.2105 34.4737 33.6316 34.7369 32.8947 34.7369C32.1579 34.7369 31.5789 34.4737 31.5789 34.2106C31.5789 33.8948 32.1579 33.6843 32.8947 33.6843C33.6316 33.6843 34.2105 33.8948 34.2105 34.2106ZM31.5789 37.4211C31.5789 38.4737 30.3158 38.7895 29.7368 37.8948C29.3158 37.2106 30.4737 35.6843 31.1052 36.1053C31.3684 36.2632 31.5789 36.8421 31.5789 37.4211ZM33.1579 37.3685C33.1579 37.6316 32.9473 37.8948 32.6316 37.8948C32.3684 37.8948 32.1052 37.6316 32.1052 37.3685C32.1052 37.0527 32.3684 36.8421 32.6316 36.8421C32.9473 36.8421 33.1579 37.0527 33.1579 37.3685ZM36.8421 37.9474C36.8421 38.2106 36.4737 38.4211 36.0526 38.4211C35.2631 38.4211 35 37.7895 35.5789 37.2106C36 36.7895 36.8421 37.2632 36.8421 37.9474Z" fill="#D32027"/>
<path d="M62.3684 6.68423C59.6316 8.15791 60.0526 11.4737 63.2105 13.4737C64.3158 14.1579 65.2631 15.0527 65.2631 15.4737C65.2631 16.6316 63.6316 16.9474 62.3158 16.0527C60.6316 15 60.5263 15.0527 60.5263 16.7895C60.5263 18.4737 61.2631 18.9474 64 18.9474C66.5263 18.9474 68 17.3684 67.7895 14.8421C67.6842 13.2632 67.2631 12.6842 65.3684 11.4211C63.2631 10 63.1579 9.78949 63.8947 9.05265C64.5789 8.36844 65.0526 8.31581 66.2105 8.73686C67.6316 9.26318 67.7368 9.26318 67.7368 7.84212C67.7368 7.00002 67.4737 6.31581 67.1579 6.26318C66.8421 6.26318 65.9474 6.15791 65.1579 6.10528C64.3684 6.05265 63.1053 6.31581 62.3684 6.68423Z" fill="#D32027"/>
<path d="M97.3684 7.78947C97.3684 9.73684 97.3158 9.78947 95.8421 9.57894C93.421 9.26315 92.1053 10.9474 92.1053 14.421C92.1053 18 92.8421 18.6842 96.9474 18.6842H100V12.2105V5.78947H98.6842C97.5263 5.78947 97.3684 5.99999 97.3684 7.78947ZM98.5789 11.0526C98.421 11.6316 98.1053 11.9474 97.7895 11.7895C97.5263 11.6316 97.5789 11.1579 97.9474 10.7368C98.7895 9.73684 98.8947 9.78947 98.5789 11.0526ZM96.7368 12.2105C97.6316 13.1053 97.5263 15.5263 96.5263 16.3684C95.7895 16.9474 95.5789 16.8947 94.9474 16.0526C94.0526 14.8947 94.0526 14.6842 94.7368 12.9474C95.3158 11.421 95.7895 11.2632 96.7368 12.2105Z" fill="#D32027"/>
<path d="M138.947 7.78947C138.947 9.73684 138.895 9.78947 137.421 9.57894C135 9.26315 133.684 10.9474 133.684 14.421C133.684 18 134.421 18.6842 138.526 18.6842H141.579V12.2632V5.78947H140.263C139.105 5.78947 138.947 5.99999 138.947 7.78947ZM140.158 10.7895C140 11.2632 139.737 11.5263 139.632 11.3684C139.474 11.2105 139.526 10.8947 139.737 10.5789C140.211 9.73684 140.526 9.89473 140.158 10.7895ZM138.316 12.2105C139.211 13.1053 139.105 15.5263 138.105 16.3684C137.368 16.9474 137.158 16.8947 136.526 16.0526C135.632 14.8947 135.632 14.6842 136.316 12.9474C136.895 11.421 137.368 11.2632 138.316 12.2105Z" fill="#D32027"/>
<path d="M143.947 6.57895C143.105 9.31579 143.158 10 144.158 10C144.789 10 145.263 9.52632 145.474 8.73684C145.632 8.05263 145.947 7.10526 146.105 6.63158C146.316 6.05263 146.105 5.89474 145.263 5.94737C144.632 6 144 6.26316 143.947 6.57895Z" fill="#D32027"/>
<path d="M84.7368 12.4737V18.6842H87.8947C90.8421 18.6842 91.0526 18.5789 91.0526 17.4737C91.0526 16.4737 90.7895 16.3158 89.2105 16.3158C87.579 16.3158 87.3684 16.1579 87.3684 15C87.3684 13.8947 87.6316 13.6842 88.9474 13.6842C90.3158 13.6842 90.5263 13.4737 90.5263 12.3158C90.5263 11.1053 90.3684 10.9474 88.9474 11.1579C87.5263 11.3684 87.3684 11.2632 87.3684 9.99999C87.3684 8.73684 87.5263 8.63157 89.1579 8.8421C90.7895 9.05263 90.9474 8.94736 90.8947 7.68421C90.7895 6.36842 90.6316 6.31578 87.7895 6.31578H84.7368V12.4737ZM86.3684 12.6316C86.3684 14.6842 86.2632 16.5263 86.1053 16.7368C85.9474 16.8947 85.7895 15.0526 85.7895 12.6316C85.7895 10.2105 85.8947 8.36841 86.0526 8.52631C86.2105 8.68421 86.3684 10.5263 86.3684 12.6316Z" fill="#D32027"/>
<path d="M71.2105 7.42107C70.4737 7.68423 70 8.31581 70 8.94739C70 9.52633 69.6842 10 69.3158 10C68.9474 10 68.6316 10.4737 68.6316 11.0527C68.6316 11.6316 68.9474 12.1053 69.3158 12.1053C69.7895 12.1053 70 12.9474 70 14.8948C70 18.0527 70.6316 18.9474 72.7368 18.9474C73.9474 18.9474 74.2105 18.7369 74.2105 17.6316C74.2105 16.6842 74 16.4211 73.421 16.6316C72.7895 16.8948 72.6316 16.4737 72.6316 14.5263C72.6316 12.7369 72.8421 12.1053 73.421 12.1053C73.8947 12.1053 74.2105 11.6316 74.2105 10.7895C74.2105 9.89476 74 9.57897 73.4737 9.78949C72.9474 10 72.6316 9.6316 72.5263 8.52633C72.3684 7.15791 72.2105 7.05265 71.2105 7.42107ZM71.5789 10.7895C71.5789 11.2105 71.3684 11.579 71.1052 11.579C70.421 11.579 69.9474 10.7369 70.3684 10.3158C70.9474 9.73686 71.5789 10 71.5789 10.7895Z" fill="#D32027"/>
<path d="M101.579 14.2105C101.579 18.7895 101.579 18.8421 102.895 18.7368C104.105 18.6842 104.211 18.5263 104.211 15.7895C104.211 14.2105 104.421 12.5789 104.684 12.1579C105.579 10.7368 106.316 12.2105 106.316 15.5263C106.316 18.7368 106.368 18.8421 107.632 18.7368C108.895 18.6842 108.947 18.5263 108.947 15.7368C108.947 13.8947 109.211 12.5263 109.632 12.1579C110.737 11.2632 111.053 12 111.053 15.5789C111.053 18.7368 111.105 18.8421 112.368 18.7368C113.684 18.6842 113.737 18.6316 113.579 14.5263C113.421 9.68421 112.737 8.78948 110 9.84211C109.105 10.1579 108.316 10.2105 108.105 9.94737C107.684 9.26316 105.579 9.36842 104.842 10.1053C104.474 10.4737 104.211 10.5263 104.211 10.2105C104.211 9.94737 103.632 9.68421 102.895 9.68421C101.579 9.57895 101.579 9.63158 101.579 14.2105ZM107.895 12.2105C107.895 13.2105 107.789 13.2632 107.368 12.6316C106.684 11.6316 106.684 11.0526 107.368 11.0526C107.684 11.0526 107.895 11.5789 107.895 12.2105Z" fill="#D32027"/>
<path d="M115.263 13.3684C115.263 18.3158 115.579 18.6842 119.474 18.6842H122.632V14.2105C122.632 9.8421 122.579 9.73684 121.316 9.6842C120.105 9.57894 120.053 9.73684 119.895 13.1053C119.789 15.7895 119.579 16.5789 118.947 16.5789C118.368 16.5789 118.105 15.7368 117.895 13.1579C117.632 10.0526 117.526 9.73684 116.474 9.6842C115.316 9.63157 115.263 9.8421 115.263 13.3684ZM116.684 13.7895C116.526 14.2105 116.368 14.0526 116.368 13.4737C116.316 12.8947 116.474 12.5789 116.632 12.7895C116.789 12.9474 116.842 13.421 116.684 13.7895ZM116.684 15.8947C116.526 16.3158 116.368 16.1579 116.368 15.5789C116.316 15 116.474 14.6842 116.632 14.8947C116.789 15.0526 116.842 15.5263 116.684 15.8947Z" fill="#D32027"/>
<path d="M124.737 14.2106C124.737 18.579 124.789 18.6842 126.053 18.7369C127.263 18.8421 127.316 18.6842 127.474 15.3158C127.579 12.6316 127.789 11.8421 128.421 11.8421C129 11.8421 129.263 12.6842 129.474 15.2632C129.737 18.3684 129.842 18.6842 130.947 18.7369C132.053 18.7895 132.105 18.579 132.105 15.0527C132.105 10.1053 131.789 9.73687 127.895 9.73687H124.737V14.2106ZM130.895 15.8948C130.789 16.579 130.684 16.0527 130.684 14.7369C130.684 13.4211 130.789 12.8948 130.895 13.5263C131 14.2106 131 15.2632 130.895 15.8948Z" fill="#D32027"/>
<path d="M148.474 10.4737C147.105 11.8421 147.632 14.0527 149.526 15.0527C150.368 15.4737 151.053 16.0527 151.053 16.3158C151.053 17 149.684 17 148.421 16.3158C147.579 15.8421 147.474 15.9474 147.579 17.2632C147.737 18.4737 148 18.6842 149.632 18.8421C151 18.9474 151.842 18.6842 152.632 17.8948C154.105 16.4211 153.789 14.7369 151.684 13.3685C149.947 12.1579 150.211 11.2106 152.105 11.8421C152.947 12.1053 153.158 11.9474 153.158 10.8421C153.158 9.63162 152.947 9.47372 151.316 9.47372C150.211 9.47372 149.053 9.89477 148.474 10.4737Z" fill="#D32027"/>
<path d="M75.4737 16.579C75 17.7895 75.6316 18.9474 76.7895 18.9474C78 18.9474 78.6316 17.4737 77.8421 16.5263C77.0526 15.579 75.8421 15.579 75.4737 16.579Z" fill="#D32027"/>
<path d="M131.158 22.4737C131.368 23.6316 133.421 23.7895 133.421 22.6316C133.421 22.2106 132.842 21.7895 132.21 21.6842C131.21 21.5263 131 21.6842 131.158 22.4737Z" fill="#D32027"/>
<path d="M153.158 26.3158C153.158 30.6842 153.211 31.0526 154.211 31.0526C155.211 31.0526 155.263 30.6842 155.263 26.3158C155.263 21.9473 155.211 21.5789 154.211 21.5789C153.211 21.5789 153.158 21.9473 153.158 26.3158Z" fill="#D32027"/>
<path d="M61.0526 26.5789V31.0526H63.421C65.1579 31.0526 65.7895 30.8421 65.7895 30.2631C65.7895 29.7895 65.3158 29.4737 64.4737 29.4737C63.5263 29.4737 63.1579 29.2105 63.1579 28.421C63.1579 27.7368 63.5263 27.3684 64.2105 27.3684C64.7895 27.3684 65.2632 27 65.2632 26.5789C65.2632 26.1579 64.7895 25.7895 64.2105 25.7895C63.5263 25.7895 63.1579 25.421 63.1579 24.7368C63.1579 23.9473 63.5263 23.6842 64.4737 23.6842C65.3158 23.6842 65.7895 23.3684 65.7895 22.8947C65.7895 22.3158 65.1579 22.1052 63.421 22.1052H61.0526V26.5789Z" fill="#D32027"/>
<path d="M93.1579 26.5789C93.1579 30.6842 93.2631 31.0526 94.2105 31.0526C95.0526 31.0526 95.2631 30.6842 95.2631 29.2105C95.2631 27.5789 95.421 27.3684 96.5789 27.3684C97.7368 27.3684 97.8947 27.5789 97.8947 29.2105C97.8947 30.6842 98.1053 31.0526 98.9474 31.0526C99.8947 31.0526 100 30.6842 100 26.5789C100 22.4737 99.8947 22.1052 98.9474 22.1052C98.1053 22.1052 97.8947 22.4737 97.8947 23.9473C97.8947 25.5789 97.7368 25.7895 96.5789 25.7895C95.421 25.7895 95.2631 25.5789 95.2631 23.9473C95.2631 22.4737 95.0526 22.1052 94.2105 22.1052C93.2631 22.1052 93.1579 22.4737 93.1579 26.5789Z" fill="#D32027"/>
<path d="M138.053 23C137.684 23.1053 137.368 23.579 137.368 24C137.368 24.4211 137.158 24.7369 136.842 24.7369C136.579 24.7369 136.316 25.1053 136.316 25.5263C136.316 25.9474 136.579 26.3158 136.842 26.3158C137.158 26.3158 137.368 27.2632 137.368 28.4211C137.368 29.6842 137.632 30.6316 138.053 30.7895C139.842 31.3684 140.737 31.2632 140.947 30.3684C141.053 29.8421 140.789 29.4737 140.316 29.4737C139.737 29.4737 139.474 29 139.474 27.8948C139.474 26.8421 139.737 26.3158 140.263 26.3158C140.684 26.3158 141.053 25.9474 141.053 25.5263C141.053 25.1053 140.684 24.7369 140.263 24.7369C139.842 24.7369 139.474 24.2632 139.474 23.6842C139.474 22.6316 139.211 22.4737 138.053 23Z" fill="#D32027"/>
<path d="M78.8947 25.3158C77.6316 26.579 77.5789 29.1579 78.8421 30.4211C80.1579 31.7369 83.1579 31.3684 83.1579 29.9474C83.1579 29.1053 82.9474 29 82.2631 29.3684C81.2105 29.8948 80 29.6316 80 28.8948C80 28.6316 80.8421 28.4211 81.8421 28.4211C83.2631 28.4211 83.6842 28.2105 83.6842 27.4737C83.6842 25.0527 80.5789 23.6316 78.8947 25.3158ZM81.5789 26.8948C81.5789 27.1579 81.2105 27.3684 80.7895 27.3684C80 27.3684 79.7368 26.7369 80.3158 26.1579C80.7368 25.7369 81.5789 26.2105 81.5789 26.8948Z" fill="#D32027"/>
<path d="M114.421 25C112.947 26.0527 113.105 27.3684 114.789 28.3684C116.474 29.4211 116.263 30.1579 114.421 29.6842C113.474 29.4211 113.158 29.579 113.158 30.2105C113.158 30.6842 113.474 31.1053 113.842 31.1053C114.158 31.1579 114.842 31.2105 115.263 31.2632C117.895 31.5263 119 28.3684 116.579 27.2632C115.105 26.579 115.368 25.579 116.895 26.0527C117.579 26.2632 117.895 26.1579 117.895 25.579C117.895 25.1053 117.737 24.7369 117.526 24.6842C117.263 24.6842 116.684 24.579 116.211 24.4737C115.737 24.3684 114.895 24.6316 114.421 25Z" fill="#D32027"/>
<path d="M123.579 24.5789L121.579 24.7895V29.5263C121.579 33.9474 121.632 34.2105 122.684 34.2105C123.632 34.2105 123.789 33.9474 123.579 32.6316C123.368 31.2105 123.474 31 124.474 31.1579C125.105 31.2105 126.053 31 126.526 30.5789C127.632 29.6842 127.632 26.1579 126.526 25.0526C126.105 24.5789 125.684 24.2631 125.632 24.3158C125.579 24.3684 124.632 24.4737 123.579 24.5789ZM125.263 27.8947C125.263 28.9474 125 29.4737 124.474 29.4737C123.947 29.4737 123.684 28.9474 123.684 27.8947C123.684 26.8421 123.947 26.3158 124.474 26.3158C125 26.3158 125.263 26.8421 125.263 27.8947Z" fill="#D32027"/>
<path d="M145.053 24.8421C143.632 25.6316 144.053 26.4211 145.79 26.0526C147.895 25.5789 147.79 26.4737 145.684 27.4211C142.474 28.8421 143.632 31.5263 147.316 31.1579C149.474 30.9474 149.474 30.9474 149.474 28.7368C149.474 27.5263 149.158 26.1579 148.842 25.6842C147.947 24.6316 146.158 24.2105 145.053 24.8421ZM147.158 29.2632C146.895 30 146.684 30.0526 146.158 29.5263C145.684 29.0526 145.684 28.7895 146.316 28.4211C147.263 27.8421 147.579 28.1053 147.158 29.2632Z" fill="#D32027"/>
<path d="M69.7368 27.9474C71 31.1579 71 32.8947 69.6842 32.4211C69.2105 32.2105 68.9473 32.5263 68.9473 33.2105C68.9473 34.0526 69.2105 34.2632 70.3684 34.1053C71.6842 33.9474 72 33.4737 73.4737 29.3158L75.1052 24.7368H73.8947C72.9473 24.7368 72.6316 25.0526 72.6316 25.8947C72.6316 28.1579 71.7368 28.6842 71.3684 26.6316C71.0526 25.1053 70.7895 24.7368 69.7368 24.7368H68.4737L69.7368 27.9474Z" fill="#D32027"/>
<path d="M104.737 25.5264C102.842 27.8421 104.737 31.7369 107.526 31.2106C108.316 31.0527 109.158 30.6316 109.421 30.3158C110.263 29.3158 110.316 26.5264 109.526 25.579C108.632 24.5264 105.632 24.4737 104.737 25.5264ZM108.421 27.8948C108.421 28.0527 108.105 28.6843 107.684 29.2106C107 30.1579 106.947 30.1579 106.368 29.0527C105.895 28.1579 105.895 27.6316 106.368 26.7369C106.947 25.6316 107 25.6316 107.684 26.579C108.105 27.1053 108.421 27.7369 108.421 27.8948Z" fill="#D32027"/>
<path d="M131.053 27.8947C131.053 30.6842 131.158 31.0526 132.105 31.0526C133.053 31.0526 133.158 30.6842 133.158 27.8947C133.158 25.1052 133.053 24.7368 132.105 24.7368C131.158 24.7368 131.053 25.1052 131.053 27.8947Z" fill="#D32027"/>
<path d="M61.6842 36.4211C60.6842 37.4211 60.9474 38.2105 62.5263 39.4737L63.9474 40.579L62.5263 40.3684C61.5789 40.2105 61.0526 40.3684 61.0526 40.7895C61.0526 42.3158 64.421 42.1579 65 40.6316C65.2105 40.0526 64.8421 39.3684 64 38.6842C62.3684 37.3684 62.2105 36.6316 63.6842 37C64.3684 37.1579 64.7368 37 64.7368 36.5263C64.7368 35.6316 62.5789 35.5263 61.6842 36.4211Z" fill="#D32027"/>
<path d="M65.7895 36.3158C65.7895 36.5789 66.1579 36.8421 66.579 36.8421C67 36.8421 67.3684 36.5789 67.3684 36.3158C67.3684 36 67 35.7895 66.579 35.7895C66.1579 35.7895 65.7895 36 65.7895 36.3158Z" fill="#D32027"/>
<path d="M84.6316 36.1579C83.6316 36.421 83.3158 37.8947 84.2105 37.8947C84.5263 37.8947 84.7368 38.7368 84.7368 39.7368C84.7368 41 85 41.5789 85.5263 41.5789C86.1579 41.5789 86.3158 40.8947 86.3158 38.6842C86.3158 37.1052 86.1579 35.8421 85.9474 35.8421C85.6842 35.8947 85.1052 36 84.6316 36.1579Z" fill="#D32027"/>
<path d="M88.4211 36.5789C87.5263 37.6842 88 39.2105 89.3684 39.3684C90.9474 39.6316 90.8421 40.5263 89.2105 40.5263C87.7369 40.5263 87.4211 41.3158 88.7369 41.7895C90.8421 42.5789 92.8421 39.2105 91.579 36.8947C90.9474 35.6316 89.3684 35.4737 88.4211 36.5789ZM90.5263 37.5789C90.5263 38 90.3158 38.5263 90 38.6842C89.7369 38.8421 89.4737 38.5263 89.4737 37.9474C89.4737 37.3158 89.7369 36.8421 90 36.8421C90.3158 36.8421 90.5263 37.1579 90.5263 37.5789Z" fill="#D32027"/>
<path d="M93.4737 36.6316C92.2631 37.7895 92.3684 40.8947 93.6315 41.579C94.9473 42.2632 96.1579 41.7895 96.5789 40.4737C96.9473 39.3158 96.0526 37.8947 94.8947 37.8947C94.4737 37.8947 94.3158 37.6316 94.4737 37.3158C94.6842 37 95.1579 36.8947 95.5789 37.0526C96 37.2105 96.3158 37 96.3158 36.579C96.3158 35.5263 94.5263 35.579 93.4737 36.6316ZM95.2631 39.7369C95.2631 40.1579 95.0526 40.5263 94.7368 40.5263C94.4737 40.5263 94.2105 40.1579 94.2105 39.7369C94.2105 39.3158 94.4737 38.9474 94.7368 38.9474C95.0526 38.9474 95.2631 39.3158 95.2631 39.7369Z" fill="#D32027"/>
<path d="M97.5263 37.579C97.4737 39.0526 97.6316 39.3158 98.4737 39.1053C99.1579 38.8948 99.4737 39.1053 99.4737 39.6842C99.4737 40.1579 99.0526 40.5263 98.421 40.5263C97.8421 40.5263 97.3684 40.7895 97.3684 41.0526C97.3684 41.9474 98.7895 42.2105 99.9474 41.579C101.368 40.8421 101.421 38.6316 100 38.1579C99.421 38 98.9474 37.579 98.9474 37.3158C98.9474 37 99.421 36.9474 100 37.1053C100.737 37.3684 101.053 37.2105 101.053 36.6316C101.053 36.0526 100.526 35.7895 99.3158 35.7895C97.6842 35.7895 97.5789 35.8948 97.5263 37.579Z" fill="#D32027"/>
<path d="M65.7895 39.4737C65.7895 40.8421 66.0526 41.5789 66.4737 41.5789C66.9474 41.5789 67.0526 40.9473 66.9474 39.4737C66.8421 38.3158 66.5263 37.3684 66.2632 37.3684C66 37.3684 65.7895 38.3158 65.7895 39.4737Z" fill="#D32027"/>
<path d="M67.8947 39.4737C67.8947 41 68.1052 41.5789 68.6842 41.5789C69.1579 41.5789 69.4737 41.1052 69.4737 40.3158C69.4737 39.5789 69.7368 38.8421 70 38.6842C70.3158 38.4737 70.5263 39.0526 70.5263 39.9473C70.5263 41.0526 70.7895 41.5789 71.3684 41.5789C72 41.5789 72.1052 41.1052 72 39.5789C71.8421 37.7368 71.7368 37.6316 69.8947 37.5263C67.8947 37.421 67.8947 37.421 67.8947 39.4737Z" fill="#D32027"/>
<path d="M73.1579 38.1579C71.7895 39.7895 74 42.9474 75.7895 41.8421C76.6842 41.2631 76.3684 40.5263 75.2105 40.5263C74.4737 40.5263 74.2105 40.2631 74.3158 39.5789C74.5789 38.2631 75.8947 38.4737 76.6316 39.9474C77.421 41.5263 78.5789 42.2105 79.6842 41.7895C80.8947 41.3158 80.7368 40.3684 79.5263 40.7895C78.9474 40.9474 78.3684 40.8421 78.1579 40.5263C77.9474 40.2105 78.3684 40 79.2105 40C80.3684 40 80.5789 39.7895 80.421 38.7895C80.2105 37.3684 78.3684 37 77.1579 38.1579C76.421 38.9474 76.3158 38.9474 76.3158 38.2105C76.3158 37.1053 74.0526 37.1053 73.1579 38.1579ZM79.4737 38.9474C79.4737 39.2105 79.1053 39.4737 78.6316 39.4737C78.2105 39.4737 78 39.2105 78.1579 38.9474C78.3158 38.6316 78.6842 38.421 79 38.421C79.2631 38.421 79.4737 38.6316 79.4737 38.9474Z" fill="#D32027"/>
</svg>
