<svg width="14" height="15" viewBox="0 0 14 15" fill="none" xmlns="http://www.w3.org/2000/svg">
<path d="M12.2257 11.6562H11.4023L11.5953 12.0421V12.9688H12.0328V12.0421L12.2257 11.6562Z" fill="white"/>
<path d="M12.25 4.875H11.375V11.2188H12.25V4.875Z" fill="white"/>
<path d="M12.0312 2.25H11.5938V3.125H12.0312V2.25Z" fill="white"/>
<path d="M13.0609 4.72034L12.25 3.90944V3.5625H11.375V4.4375H12.1594L12.6875 4.96556V6.625H13.125V4.875C13.125 4.81699 13.1019 4.76136 13.0609 4.72034Z" fill="white"/>
<path d="M5.25 4.875V5.3125H5.6875V4.875C5.6875 4.81698 5.71055 4.76134 5.75157 4.72032C5.79259 4.6793 5.84823 4.65625 5.90625 4.65625H6.34375V4.21875H5.90625C5.84823 4.21875 5.79259 4.1957 5.75157 4.15468C5.71055 4.11366 5.6875 4.05802 5.6875 4V3.5625H5.25V4C5.25 4.05802 5.22695 4.11366 5.18593 4.15468C5.14491 4.1957 5.08927 4.21875 5.03125 4.21875H4.59375V4.65625H5.03125C5.08927 4.65625 5.14491 4.6793 5.18593 4.72032C5.22695 4.76134 5.25 4.81698 5.25 4.875Z" fill="white"/>
<path d="M5.46875 6.1875C5.81487 6.1875 6.15321 6.08487 6.441 5.89257C6.72878 5.70028 6.95309 5.42697 7.08554 5.1072C7.21799 4.78743 7.25265 4.43556 7.18512 4.09609C7.1176 3.75663 6.95093 3.44481 6.70619 3.20006C6.46145 2.95532 6.14962 2.78865 5.81016 2.72113C5.47069 2.6536 5.11882 2.68826 4.79905 2.82071C4.47928 2.95316 4.20597 3.17747 4.01368 3.46525C3.82139 3.75304 3.71875 4.09138 3.71875 4.4375C3.71927 4.90147 3.90381 5.34629 4.23189 5.67436C4.55996 6.00244 5.00478 6.18698 5.46875 6.1875ZM4.15625 4.875V4C4.15625 3.94198 4.1793 3.88634 4.22032 3.84532C4.26134 3.8043 4.31698 3.78125 4.375 3.78125H4.8125V3.34375C4.8125 3.28573 4.83555 3.23009 4.87657 3.18907C4.91759 3.14805 4.97323 3.125 5.03125 3.125H5.90625C5.96427 3.125 6.01991 3.14805 6.06093 3.18907C6.10195 3.23009 6.125 3.28573 6.125 3.34375V3.78125H6.5625C6.62052 3.78125 6.67616 3.8043 6.71718 3.84532C6.7582 3.88634 6.78125 3.94198 6.78125 4V4.875C6.78125 4.93302 6.7582 4.98866 6.71718 5.02968C6.67616 5.0707 6.62052 5.09375 6.5625 5.09375H6.125V5.53125C6.125 5.58927 6.10195 5.64491 6.06093 5.68593C6.01991 5.72695 5.96427 5.75 5.90625 5.75H5.03125C4.97323 5.75 4.91759 5.72695 4.87657 5.68593C4.83555 5.64491 4.8125 5.58927 4.8125 5.53125V5.09375H4.375C4.31698 5.09375 4.26134 5.0707 4.22032 5.02968C4.1793 4.98866 4.15625 4.93302 4.15625 4.875Z" fill="white"/>
<path d="M8.59534 2.53284C8.63637 2.49183 8.692 2.4688 8.75 2.4688C8.808 2.4688 8.86363 2.49183 8.90466 2.53284L9.1875 2.81569V1.375H8.3125V2.81569L8.59534 2.53284Z" fill="white"/>
<path d="M10.0625 2.03125C10.0619 1.89601 10.0196 1.76424 9.94129 1.65397C9.86298 1.54371 9.75251 1.46033 9.625 1.41525V3.34375C9.62499 3.38701 9.61216 3.42929 9.58812 3.46526C9.56408 3.50122 9.52992 3.52925 9.48996 3.5458C9.44999 3.56236 9.40601 3.56669 9.36359 3.55825C9.32116 3.54982 9.28219 3.52899 9.25159 3.49841L8.75 2.99681L8.24841 3.49841C8.21781 3.52899 8.17884 3.54982 8.13641 3.55825C8.09399 3.56669 8.05001 3.56236 8.01004 3.5458C7.97008 3.52925 7.93592 3.50122 7.91188 3.46526C7.88784 3.42929 7.87501 3.38701 7.875 3.34375V1.375H1.53125C1.3572 1.375 1.19028 1.44414 1.06721 1.56721C0.94414 1.69028 0.875 1.8572 0.875 2.03125V12.9688C0.875 13.1428 0.94414 13.3097 1.06721 13.4328C1.19028 13.5559 1.3572 13.625 1.53125 13.625H9.40625C9.5803 13.625 9.74722 13.5559 9.87029 13.4328C9.99336 13.3097 10.0625 13.1428 10.0625 12.9688V2.03125ZM5.46875 2.25C5.9014 2.25 6.32433 2.37829 6.68406 2.61866C7.04379 2.85903 7.32417 3.20067 7.48974 3.60038C7.6553 4.00009 7.69862 4.43993 7.61422 4.86426C7.52981 5.28859 7.32147 5.67837 7.01555 5.9843C6.70962 6.29022 6.31984 6.49856 5.89551 6.58297C5.47118 6.66737 5.03134 6.62405 4.63163 6.45849C4.23192 6.29292 3.89028 6.01254 3.64991 5.65281C3.40954 5.29308 3.28125 4.87015 3.28125 4.4375C3.28189 3.85753 3.51256 3.30151 3.92266 2.89141C4.33276 2.48131 4.88878 2.25064 5.46875 2.25ZM2.1875 7.28125H3.0625V7.71875H2.1875V7.28125ZM8.75 12.0938H2.1875V11.6562H8.75V12.0938ZM8.75 11H2.1875V10.5625H8.75V11ZM8.75 9.90625H2.1875V9.46875H8.75V9.90625ZM8.75 8.8125H2.1875V8.375H8.75V8.8125ZM8.75 7.71875H3.5V7.28125H8.75V7.71875Z" fill="white"/>
</svg>
