<svg xmlns="http://www.w3.org/2000/svg" width="100" height="55.59" viewBox="0 0 100 55.59">
  <defs>
    <style>
      .cls-1 {
        fill: #313366;
      }

      .cls-2 {
        fill: #f16722;
      }
    </style>
  </defs>
  <g id="Group_8812" data-name="Group 8812" transform="translate(0 0)">
    <path id="Path_777" data-name="Path 777" class="cls-1" d="M120.456,20.923a2.345,2.345,0,0,0,2.17,1.219,1.675,1.675,0,0,0,1.849-1.728c0-2.452-4.475-1.112-4.475-4.153a2.492,2.492,0,0,1,2.68-2.479,3.2,3.2,0,0,1,2.3,1.045l-.482.589a2.679,2.679,0,0,0-1.822-.844,1.648,1.648,0,0,0-1.876,1.635c0,2.184,4.488,1.032,4.488,4.126a2.559,2.559,0,0,1-2.68,2.6,3.028,3.028,0,0,1-2.773-1.527Z" transform="translate(-72.747 -13.42)"/>
    <path id="Path_778" data-name="Path 778" class="cls-1" d="M131.025,18.919a3.282,3.282,0,1,1-3.269-3.349A3.336,3.336,0,0,1,131.025,18.919Zm-5.8,0a2.532,2.532,0,1,0,2.532-2.613,2.586,2.586,0,0,0-2.572,2.613Z" transform="translate(-71.177 -12.81)"/>
    <path id="Path_779" data-name="Path 779" class="cls-1" d="M130.644,16.41v-.67c0-1.876,1.139-2.17,2.452-2.17l.2.75c-1.742,0-1.916.308-1.916,1.581v.509H133.2v.737h-1.8V22.8l-.737.147v-5.8H129.8l.188-.737Z" transform="translate(-69.363 -13.49)"/>
    <path id="Path_780" data-name="Path 780" class="cls-1" d="M133.107,14.625l.737-.415v1.983h1.742v.737h-1.742v4.019c0,.777.335,1.058,1.152,1.058h.6v.683a3.658,3.658,0,0,1-.67.08,1.661,1.661,0,0,1-1.822-1.822V16.93h-.857l.188-.737h.67Z" transform="translate(-68.531 -13.272)"/>
    <path id="Path_781" data-name="Path 781" class="cls-1" d="M139.785,17.218l-2.264,5.051h0l-2.84-6.538.723-.161,2.13,4.877,2.3-4.877,2.385,4.877,2.17-4.877.71.161-2.867,6.538h0Z" transform="translate(-67.705 -12.81)"/>
    <path id="Path_782" data-name="Path 782" class="cls-1" d="M143.332,15.959a4.93,4.93,0,0,1,1.862-.389c.991,0,2,.523,2,1.621v4.93l-.737.147v-.764h0a1.688,1.688,0,0,1-1.568.8,2.331,2.331,0,1,1-.094-4.649,2.68,2.68,0,0,1,1.688.737V17.338c0-.536-.656-.991-1.5-.991a6.4,6.4,0,0,0-1.862.509Zm1.581,5.547a1.594,1.594,0,0,0,0-3.175,1.591,1.591,0,1,0,0,3.175Z" transform="translate(-65.103 -12.81)"/>
    <path id="Path_783" data-name="Path 783" class="cls-1" d="M147.724,17.009h0a2.184,2.184,0,0,1,2.371-1.434l-.322.75h-.295c-.8,0-1.782.991-1.782,2.6v3.215l-.737.147V15.737l.737-.161Z" transform="translate(-63.533 -12.816)"/>
    <path id="Path_784" data-name="Path 784" class="cls-1" d="M150.332,20.052a2.6,2.6,0,0,0,2.264,1.46,3.818,3.818,0,0,0,2.425-1.058v.9a3.644,3.644,0,0,1-2.371.9,3.256,3.256,0,0,1-3.309-3.416,3.189,3.189,0,0,1,3.336-3.282,2.934,2.934,0,0,1,2.519,1.487Zm3.711-3.175a1.849,1.849,0,0,0-1.34-.563,2.519,2.519,0,0,0-2.626,2.519,2.384,2.384,0,0,0,0,.523Z" transform="translate(-62.725 -12.818)"/>
    <path id="Path_785" data-name="Path 785" class="cls-1" d="M122.4,22c1.487,0,2.465.7,2.465,2.291a1.983,1.983,0,0,1-1.139,1.929,2.184,2.184,0,0,1,1.34,2.157c0,1.514-.9,2.358-2.76,2.358H120.12V22Zm-1.434,3.912h1.206c1.273,0,1.916-.616,1.916-1.608A1.46,1.46,0,0,0,122.5,22.79h-1.541Zm0,4.019h1.34c1.568,0,1.956-.75,1.956-1.581a1.568,1.568,0,0,0-1.7-1.675h-1.594Z" transform="translate(-72.652 -10.483)"/>
    <path id="Path_786" data-name="Path 786" class="cls-1" d="M125.523,23.66v4.234c0,1.152.455,1.8,1.554,1.8s1.956-.429,1.956-3V23.807l.75-.147V30.2l-.75.107V29.247h0a2.2,2.2,0,0,1-2.01,1.112c-1.621,0-2.224-.924-2.224-2.371v-4.18Z" transform="translate(-71.062 -9.898)"/>
    <path id="Path_787" data-name="Path 787" class="cls-1" d="M129.763,28.914a2.117,2.117,0,0,0,1.608.71,1.219,1.219,0,0,0,1.34-1.192c0-1.608-3.376-.67-3.376-2.907a1.943,1.943,0,0,1,2.1-1.862,3.1,3.1,0,0,1,1.916.75l-.415.589a2.6,2.6,0,0,0-1.527-.6c-.737,0-1.34.348-1.34,1.085,0,1.608,3.376.549,3.376,2.907,0,1.34-1.032,1.969-2.278,1.969a2.679,2.679,0,0,1-2.01-.965Z" transform="translate(-69.581 -9.9)"/>
    <path id="Path_788" data-name="Path 788" class="cls-1" d="M134.479,22.316l-.589.67-.589-.67.589-.656Zm-.9,8.722V24.487l.737-.147v6.538Z" transform="translate(-68.174 -10.602)"/>
    <path id="Path_789" data-name="Path 789" class="cls-1" d="M135.36,30.305v-6.5l.737-.147v1.058h0a2.211,2.211,0,0,1,1.849-1.058c1.233,0,2.371.482,2.371,2.251V30.2l-.737.107V25.75c0-.938-.6-1.434-1.621-1.434a1.849,1.849,0,0,0-1.889,1.742V30.2Z" transform="translate(-67.474 -9.899)"/>
    <path id="Path_790" data-name="Path 790" class="cls-1" d="M140.813,28.129a2.68,2.68,0,0,0,2.264,1.5,3.859,3.859,0,0,0,2.425-1.058v.9a3.658,3.658,0,0,1-2.371.911,3.256,3.256,0,0,1-3.309-3.43,3.189,3.189,0,0,1,3.336-3.269,2.934,2.934,0,0,1,2.519,1.487Zm3.711-3.162a1.849,1.849,0,0,0-1.34-.563,2.519,2.519,0,0,0-2.6,2.546,2.3,2.3,0,0,0,0,.523Z" transform="translate(-65.96 -9.892)"/>
    <path id="Path_791" data-name="Path 791" class="cls-1" d="M145.079,28.914a2.13,2.13,0,0,0,1.608.71,1.219,1.219,0,0,0,1.34-1.192c0-1.608-3.376-.67-3.376-2.907a1.943,1.943,0,0,1,2.117-1.862,3.028,3.028,0,0,1,1.9.75l-.415.589a2.532,2.532,0,0,0-1.527-.6c-.723,0-1.34.348-1.34,1.085,0,1.608,3.376.549,3.376,2.907,0,1.34-1.032,1.969-2.278,1.969a2.68,2.68,0,0,1-2-.965Z" transform="translate(-64.372 -9.9)"/>
    <path id="Path_792" data-name="Path 792" class="cls-1" d="M148.78,28.914a2.13,2.13,0,0,0,1.608.71,1.219,1.219,0,0,0,1.34-1.192c0-1.608-3.376-.67-3.376-2.907a1.943,1.943,0,0,1,2.117-1.862,3.028,3.028,0,0,1,1.9.75l-.415.589a2.532,2.532,0,0,0-1.527-.6c-.723,0-1.34.348-1.34,1.085,0,1.608,3.376.549,3.376,2.907,0,1.34-1.032,1.969-2.278,1.969a2.68,2.68,0,0,1-2-.965Z" transform="translate(-63.115 -9.9)"/>
    <path id="Path_793" data-name="Path 793" class="cls-1" d="M120.443,37.077a2.345,2.345,0,0,0,2.17,1.219,1.675,1.675,0,0,0,1.849-1.728c0-2.452-4.475-1.112-4.475-4.153A2.492,2.492,0,0,1,122.72,30a3.2,3.2,0,0,1,2.3,1.045l-.482.589a2.679,2.679,0,0,0-1.822-.844,1.648,1.648,0,0,0-1.876,1.635c0,2.184,4.488,1.032,4.488,4.126a2.559,2.559,0,0,1-2.68,2.6,3.028,3.028,0,0,1-2.773-1.527Z" transform="translate(-72.734 -7.631)"/>
    <path id="Path_794" data-name="Path 794" class="cls-1" d="M131.025,35.089a3.282,3.282,0,1,1-3.269-3.349A3.336,3.336,0,0,1,131.025,35.089Zm-5.8,0a2.532,2.532,0,1,0,2.532-2.68,2.586,2.586,0,0,0-2.572,2.68Z" transform="translate(-71.177 -7.024)"/>
    <path id="Path_795" data-name="Path 795" class="cls-1" d="M131.077,38.971l-.737.147V29.9l.737-.161Z" transform="translate(-69.18 -7.72)"/>
    <path id="Path_796" data-name="Path 796" class="cls-1" d="M132.923,31.74v4.247c0,1.139.456,1.8,1.554,1.8s1.956-.429,1.956-3V31.9l.75-.161v6.551l-.75.107V37.34h0a2.211,2.211,0,0,1-2.01,1.1c-1.621,0-2.224-.911-2.224-2.358V31.9Z" transform="translate(-68.548 -7.023)"/>
    <path id="Path_797" data-name="Path 797" class="cls-1" d="M137.327,30.8l.737-.415v1.983h1.782V33.1h-1.728v4.019c0,.777.322,1.058,1.139,1.058h.589v.683a3.39,3.39,0,0,1-.656.08,1.661,1.661,0,0,1-1.822-1.822V33.1h-.857l.174-.737h.683Z" transform="translate(-67.083 -7.496)"/>
    <path id="Path_798" data-name="Path 798" class="cls-1" d="M140.816,30.41l-.59.656-.576-.656.576-.67Zm-.9,8.708V32.58l.75-.161v6.551Z" transform="translate(-66.017 -7.72)"/>
    <path id="Path_799" data-name="Path 799" class="cls-1" d="M147.928,35.089a3.269,3.269,0,1,1-3.269-3.349,3.336,3.336,0,0,1,3.269,3.349Zm-5.8,0a2.532,2.532,0,1,0,2.532-2.68,2.6,2.6,0,0,0-2.532,2.68Z" transform="translate(-65.425 -7.024)"/>
    <path id="Path_800" data-name="Path 800" class="cls-1" d="M147,38.4V31.9l.737-.161V32.8h0a2.251,2.251,0,0,1,1.849-1.058c1.233,0,2.385.482,2.385,2.264v4.287l-.75.107V33.83c0-.924-.589-1.42-1.608-1.42a1.849,1.849,0,0,0-1.9,1.742v4.14Z" transform="translate(-63.519 -7.024)"/>
    <path id="Path_801" data-name="Path 801" class="cls-1" d="M151.963,37.007a2.144,2.144,0,0,0,1.608.7,1.179,1.179,0,0,0,1.34-1.179c0-1.608-3.376-.683-3.376-2.921a1.956,1.956,0,0,1,2.1-1.862,3.162,3.162,0,0,1,1.916.75l-.415.59a2.6,2.6,0,0,0-1.527-.6c-.737,0-1.34.362-1.34,1.085,0,1.608,3.376.549,3.376,2.921,0,1.34-1.032,1.956-2.278,1.956a2.68,2.68,0,0,1-2.01-.965Z" transform="translate(-62.038 -7.025)"/>
    <path id="Path_802" data-name="Path 802" class="cls-1" d="M125.837,46.775a4.153,4.153,0,0,1-1.648.415,4.582,4.582,0,0,1,0-9.151,4.14,4.14,0,0,1,1.648.4l.121.978a3.189,3.189,0,0,0-1.822-.589,3.792,3.792,0,0,0,0,7.57,3.014,3.014,0,0,0,1.822-.589Z" transform="translate(-72.742 -4.761)"/>
    <path id="Path_803" data-name="Path 803" class="cls-1" d="M131.548,43.179a3.269,3.269,0,1,1-3.269-3.349A3.336,3.336,0,0,1,131.548,43.179Zm-5.8,0a2.532,2.532,0,1,0,2.532-2.613,2.6,2.6,0,0,0-2.532,2.613Z" transform="translate(-70.99 -4.146)"/>
    <path id="Path_804" data-name="Path 804" class="cls-1" d="M130.61,46.475v-6.5l.737-.147v1.058h0A2.251,2.251,0,0,1,133.2,39.83c1.233,0,2.385.482,2.385,2.251v4.287l-.737.107V41.92c0-.938-.6-1.434-1.621-1.434a1.849,1.849,0,0,0-1.9,1.742v4.14Z" transform="translate(-69.088 -4.145)"/>
    <path id="Path_805" data-name="Path 805" class="cls-1" d="M135.583,45.084a2.117,2.117,0,0,0,1.608.71,1.219,1.219,0,0,0,1.34-1.192c0-1.608-3.376-.67-3.376-2.907a1.943,1.943,0,0,1,2.117-1.862,3.028,3.028,0,0,1,1.9.75l-.415.589a2.559,2.559,0,0,0-1.527-.6c-.737,0-1.34.348-1.34,1.085,0,1.608,3.376.549,3.376,2.907,0,1.34-1.032,1.969-2.278,1.969a2.679,2.679,0,0,1-2.01-.965Z" transform="translate(-67.603 -4.147)"/>
    <path id="Path_806" data-name="Path 806" class="cls-1" d="M139.8,39.83v4.247c0,1.152.456,1.8,1.554,1.8s1.956-.429,1.956-3V39.977l.737-.147v6.538l-.737.107V45.417h0a2.17,2.17,0,0,1-2,1.112c-1.621,0-2.224-.924-2.224-2.371v-4.18Z" transform="translate(-66.207 -4.145)"/>
    <path id="Path_807" data-name="Path 807" class="cls-1" d="M144.827,47.048l-.737.161V37.977l.737-.147Z" transform="translate(-64.508 -4.834)"/>
    <path id="Path_808" data-name="Path 808" class="cls-1" d="M146.3,38.872l.75-.4v1.969h1.8v.737h-1.728v3.952c0,.777.322,1.072,1.139,1.072a4.544,4.544,0,0,0,.6,0v.683a3.524,3.524,0,0,1-.67.08,1.661,1.661,0,0,1-1.822-1.822V41.176h-.844l.174-.737h.67Z" transform="translate(-64.022 -4.613)"/>
    <path id="Path_809" data-name="Path 809" class="cls-1" d="M149.809,38.486l-.59.67-.59-.67.59-.656Zm-.9,8.722V40.657l.737-.147v6.538Z" transform="translate(-62.965 -4.834)"/>
    <path id="Path_810" data-name="Path 810" class="cls-1" d="M150.69,46.475v-6.5l.737-.147v1.058h0a2.251,2.251,0,0,1,1.849-1.058c1.233,0,2.385.482,2.385,2.251v4.287l-.75.107V41.92c0-.938-.589-1.434-1.608-1.434a1.849,1.849,0,0,0-1.9,1.742v4.14Z" transform="translate(-62.266 -4.145)"/>
    <path id="Path_811" data-name="Path 811" class="cls-1" d="M155.5,46.814a3.055,3.055,0,0,0,2.331,1.233c1.032,0,2.13-.643,2.13-1.608a1.983,1.983,0,0,0-2.063-1.835,4.528,4.528,0,0,0-1.675.362l.268-.844a2.13,2.13,0,0,1-1.233-1.809,2.438,2.438,0,0,1,2.68-2.412h.777a10.865,10.865,0,0,0,2.09-.241l-.214.75a1.9,1.9,0,0,1-.563.08,1.433,1.433,0,0,1-.335,0h0a2.264,2.264,0,0,1,.965,1.768,2.157,2.157,0,0,1-1.34,1.956,2.278,2.278,0,0,1,1.474,2.117,2.68,2.68,0,0,1-2.934,2.438A3.631,3.631,0,0,1,155,47.216Zm.5-4.528a1.755,1.755,0,0,0,1.929,1.621,1.8,1.8,0,0,0,1.956-1.621,1.956,1.956,0,0,0-3.885,0Z" transform="translate(-60.801 -4.183)"/>
    <path id="Path_812" data-name="Path 812" class="cls-2" d="M93.29,51.372a12.835,12.835,0,0,0,23.888-6.7c0-7.342-5.064-11.83-11.884-12.969-2.68-.429-4.676-2.01-4.676-4.984a5.024,5.024,0,0,1,5.359-5.118A4.93,4.93,0,0,1,110,24.027l-1.018.362a4.019,4.019,0,0,0-3.3-1.782,4.081,4.081,0,0,0-.2,8.159c7.342,1.34,12.768,5.935,12.768,13.907a13.96,13.96,0,0,1-13.84,13.974,14.121,14.121,0,0,1-11.951-6.7,20.1,20.1,0,0,1-1.889-4.461l1.34.643A16.787,16.787,0,0,0,93.29,51.372Zm6.967-4.1a4.743,4.743,0,0,0,4.019,2.331,4.81,4.81,0,0,0,4.743-4.863,5,5,0,0,0-4.555-4.93c-6.886-1.139-11.937-5.694-11.937-13.09A13.13,13.13,0,0,1,105.6,13.51a13.478,13.478,0,0,1,12.058,8.213c.188.442.844,2.519,1.018,2.947l-1.34-.764s-.241-.817-.563-1.608a12.433,12.433,0,0,0-11.254-7.784A12.3,12.3,0,0,0,93.384,26.787c0,6.7,4.689,10.932,11,12.058,3.162.509,5.573,2.465,5.573,5.949a5.721,5.721,0,0,1-10.718,3.028ZM94.9,50.179a11.013,11.013,0,0,0,9.378,5.56,10.892,10.892,0,0,0,10.812-11c0-6.257-4.3-9.928-10.048-10.879-3.671-.63-6.444-3.162-6.444-7.074a6.994,6.994,0,0,1,13.344-3.242l-1.032.241A6.016,6.016,0,0,0,99.6,26.774c0,3.47,2.412,5.493,5.573,6,6.257,1.072,10.986,5.252,10.986,11.951a11.951,11.951,0,0,1-11.817,12.058,12.245,12.245,0,0,1-10.236-5.935A11.268,11.268,0,0,1,92.968,48.4l-.147-.63,1.34.442s-.469-.054.764,1.969Zm20.163-26.8a10.048,10.048,0,0,0-19.534,3.725c0,5.359,4.18,8.976,9.11,9.74,4.167.63,7.449,3.349,7.449,7.9a7.811,7.811,0,0,1-7.824,7.9,7.583,7.583,0,0,1-6.833-4.18l.817-.63a6.994,6.994,0,0,0,5.721,3.832,6.806,6.806,0,0,0,7.141-6.886c0-3.926-2.84-6.391-6.511-6.953-5.748-.9-9.928-4.917-9.928-11.12a10.986,10.986,0,0,1,21.3-3.926l.362,1.085-1.246-.509M96.639,49a8.749,8.749,0,0,0,16.493-4.3c0-5.064-3.671-8.226-8.347-8.909s-8.146-4.073-8.146-9a8.976,8.976,0,0,1,17.417-3.363,3.305,3.305,0,0,1,.134.389l-1.072-.348a8.039,8.039,0,1,0-8.146,11.415c4.984.817,9.218,4.019,9.218,9.539A9.794,9.794,0,0,1,95.808,49.6c-.268-.482-.643-1.112-.643-1.112h1.34a4.236,4.236,0,0,0,.134.509Z" transform="translate(-82.692 -13.51)"/>
    <path id="Path_813" data-name="Path 813" class="cls-1" d="M119.256,47.369a16.76,16.76,0,0,0,3.443-1.541,12.9,12.9,0,0,0-6.779-23.915c-7.342,0-11.83,5.064-12.969,11.884-.442,2.68-2.023,4.689-4.984,4.689a5.038,5.038,0,0,1-5.131-5.359,4.97,4.97,0,0,1,2.572-4.019l.389.978A4.019,4.019,0,0,0,93.854,33.5a4.081,4.081,0,1,0,8.159.188c1.34-7.329,5.935-12.768,13.907-12.768a13.88,13.88,0,0,1,7.208,25.791A15.033,15.033,0,0,1,118.72,48.6Zm.308-9.378a4.729,4.729,0,0,0,1.219-3.242,4.81,4.81,0,0,0-4.863-4.743,5,5,0,0,0-4.93,4.555c-1.139,6.886-5.694,11.951-13.09,11.951a13.13,13.13,0,0,1-13.21-13.09A13.4,13.4,0,0,1,92.9,21.364a18.61,18.61,0,0,1,2.237-.844l-.268,1.085-1.34.576a12.433,12.433,0,0,0-7.784,11.254A12.3,12.3,0,0,0,98.021,45.574c6.7,0,10.932-4.676,12.058-11,.509-3.162,2.465-5.56,5.949-5.56a5.748,5.748,0,0,1,5.868,6.069,5.533,5.533,0,0,1-1.956,3.939S119.685,38.419,119.564,37.991ZM95.033,28.009a6.283,6.283,0,0,0-3.229,5.1,6.083,6.083,0,0,0,6.136,6.377c3.47,0,5.493-2.4,6-5.56,1.072-6.257,5.238-11,11.951-11a11.964,11.964,0,0,1,12.058,11.817,11.817,11.817,0,0,1-5.975,10.2A15.835,15.835,0,0,1,119.738,46l.268-1.206a11.067,11.067,0,0,0,6.94-10.048A10.892,10.892,0,0,0,115.92,23.936c-6.27,0-9.928,4.3-10.879,10.062-.63,3.658-3.162,6.444-7.074,6.444a6.994,6.994,0,0,1-3.122-13.331m25.2,13.063a6.7,6.7,0,0,0-4.126-12.192c-3.926,0-6.391,2.854-6.953,6.511-.9,5.761-4.93,9.928-11.066,9.928a10.986,10.986,0,0,1-3.926-21.3l.7-.241s-.08.884-.08,1.058a10.075,10.075,0,0,0,3.684,19.6c5.359,0,8.976-4.167,9.74-9.1.63-4.18,3.349-7.462,7.9-7.462a7.8,7.8,0,0,1,7.891,7.838,7.7,7.7,0,0,1-3.658,6.578c0-.389-.107-1.219-.107-1.219Zm.147,2.184a7.931,7.931,0,0,0,4.7-7.543,8.909,8.909,0,0,0-8.976-8.856c-5.064,0-8.226,3.671-8.923,8.347s-4.1,8.159-9.03,8.159a8.963,8.963,0,0,1-3.349-17.283l.067.951a7.945,7.945,0,0,0-4.877,7.355,8.146,8.146,0,0,0,16.251.764c.817-5,4.019-9.231,9.539-9.231s10.423,4.019,10.3,9.794a9.285,9.285,0,0,1-5.774,8.869Z" transform="translate(-84.69 -10.926)"/>
    <path id="Path_814" data-name="Path 814" class="cls-2" d="M120.881,49.543h.59A2.251,2.251,0,0,1,123.9,52.33a3.51,3.51,0,0,1-3.47,2.8h-.536Zm-.335,5.051a2.68,2.68,0,0,0,2.773-2.3,1.809,1.809,0,0,0-1.849-2.224h-.094Z" transform="translate(-72.73 -0.693)"/>
    <path id="Path_815" data-name="Path 815" class="cls-2" d="M123.627,53.517a.871.871,0,0,0,.831.6,2.076,2.076,0,0,0,.938-.281v.469a2.452,2.452,0,0,1-1.032.281,1.34,1.34,0,0,1-1.34-1.554,1.943,1.943,0,0,1,1.822-1.554,1.152,1.152,0,0,1,1.166.831Zm1.8-1.34a.657.657,0,0,0-.59-.255,1.34,1.34,0,0,0-1.246,1.018.335.335,0,0,0,0,.161Z" transform="translate(-71.671 -0.031)"/>
    <path id="Path_816" data-name="Path 816" class="cls-2" d="M126.864,49.47l-.991,5.627-.522.094.991-5.627Z" transform="translate(-70.875 -0.713)"/>
    <path id="Path_817" data-name="Path 817" class="cls-2" d="M127.7,50.815l-.469.389-.335-.4.482-.4Zm-.857,1.152.509-.094-.509,2.907-.523.094Z" transform="translate(-70.546 -0.397)"/>
    <path id="Path_818" data-name="Path 818" class="cls-2" d="M127.966,51.5l.482,2.01,1.259-2.01.523.094-2.023,3.095-.817-3.095Z" transform="translate(-70.182 -0.023)"/>
    <path id="Path_819" data-name="Path 819" class="cls-2" d="M130.05,53.517a.871.871,0,0,0,.831.6,2.077,2.077,0,0,0,.938-.281v.469a2.452,2.452,0,0,1-1.032.281,1.34,1.34,0,0,1-1.273-1.554,1.956,1.956,0,0,1,1.822-1.554,1.152,1.152,0,0,1,1.166.831Zm1.8-1.34a.657.657,0,0,0-.589-.255,1.34,1.34,0,0,0-1.246,1.018.656.656,0,0,0,0,.161Z" transform="translate(-69.466 -0.031)"/>
    <path id="Path_820" data-name="Path 820" class="cls-2" d="M132.279,51.594l.482-.094-.08.456a1.474,1.474,0,0,1,.965-.456l-.161.456c-.509.08-.884.482-1.032,1.34l-.2,1.139-.482.094Z" transform="translate(-68.694 -0.023)"/>
    <path id="Path_821" data-name="Path 821" class="cls-2" d="M134.447,50.812l-.482.4-.322-.4.469-.4Zm-.857,1.152.509-.094-.509,2.907-.509.094Z" transform="translate(-68.249 -0.394)"/>
    <path id="Path_822" data-name="Path 822" class="cls-2" d="M134.576,51.61l.482-.094v.348a1.34,1.34,0,0,1,.924-.4.844.844,0,0,1,.924,1.1l-.335,1.862-.509.094.308-1.715c.08-.523-.094-.844-.509-.844a.978.978,0,0,0-.938.871l-.281,1.594-.522.094Z" transform="translate(-67.895 -0.039)"/>
    <path id="Path_823" data-name="Path 823" class="cls-2" d="M136.759,54.766a.857.857,0,0,0,.723.442.884.884,0,0,0,.817-.683.576.576,0,0,0-.576-.67,1.125,1.125,0,0,0-.723.335l-.255-.362a1.152,1.152,0,0,1,.482-.281h0a.75.75,0,0,1-.536-.911,1.42,1.42,0,0,1,1.434-1.139.764.764,0,0,1,.322,0l.723-.107-.134.322h-.228a.831.831,0,0,1,.228.8,1.219,1.219,0,0,1-.938.951h0a.75.75,0,0,1,.643.951,1.474,1.474,0,0,1-1.447,1.166,1.246,1.246,0,0,1-.965-.509Zm1.058-1.541a.844.844,0,0,0,.817-.656.536.536,0,0,0-.589-.643.831.831,0,0,0-.8.643.536.536,0,0,0,.576.656Z" transform="translate(-67.145 -0.061)"/>
    <path id="Path_824" data-name="Path 824" class="cls-2" d="M141.042,49.542h.6a2.264,2.264,0,0,1,2.371,2.787,3.524,3.524,0,0,1-3.483,2.8h-.522Zm-.335,5.051a2.68,2.68,0,0,0,2.787-2.3,1.809,1.809,0,0,0-1.849-2.224h-.134Z" transform="translate(-65.894 -0.691)"/>
    <path id="Path_825" data-name="Path 825" class="cls-2" d="M144.517,50.812l-.469.4-.335-.4.469-.4Zm-.844,1.152.509-.094-.523,2.907-.509.094Z" transform="translate(-64.827 -0.394)"/>
    <path id="Path_826" data-name="Path 826" class="cls-2" d="M144.9,50.75a1.34,1.34,0,0,1,1.42-1.34v.456a.951.951,0,0,0-.884.831l-.268,1.514h.71l-.08.442h-.7l-.429,2.425-.523.094Z" transform="translate(-64.487 -0.734)"/>
    <path id="Path_827" data-name="Path 827" class="cls-2" d="M146.094,50.75a1.407,1.407,0,0,1,1.42-1.34v.456a.951.951,0,0,0-.884.831l-.268,1.514h.71l-.08.442h-.75l-.429,2.425-.523.094Z" transform="translate(-64.1 -0.733)"/>
    <path id="Path_828" data-name="Path 828" class="cls-2" d="M147.157,53.517a.871.871,0,0,0,.831.6,2.077,2.077,0,0,0,.938-.281v.469a2.452,2.452,0,0,1-1.032.281,1.34,1.34,0,0,1-1.34-1.554,1.929,1.929,0,0,1,1.822-1.554,1.166,1.166,0,0,1,1.166.831Zm1.782-1.34a.63.63,0,0,0-.576-.255,1.34,1.34,0,0,0-1.246,1.018.335.335,0,0,0,0,.161Z" transform="translate(-63.676 -0.03)"/>
    <path id="Path_829" data-name="Path 829" class="cls-2" d="M149.329,51.594l.482-.094-.08.456a1.474,1.474,0,0,1,.965-.456l-.161.456c-.523.08-.884.482-1.032,1.34l-.2,1.139-.482.094Z" transform="translate(-62.901 -0.023)"/>
    <path id="Path_830" data-name="Path 830" class="cls-2" d="M150.74,53.517a.871.871,0,0,0,.831.6,2.077,2.077,0,0,0,.938-.281v.469a2.452,2.452,0,0,1-1.032.281,1.34,1.34,0,0,1-1.273-1.554,1.929,1.929,0,0,1,1.822-1.554,1.166,1.166,0,0,1,1.166.831Zm1.782-1.34a.63.63,0,0,0-.576-.255,1.34,1.34,0,0,0-1.246,1.018.335.335,0,0,0,0,.161Z" transform="translate(-62.436 -0.03)"/>
    <path id="Path_831" data-name="Path 831" class="cls-2" d="M153.023,51.61l.482-.094-.067.348a1.34,1.34,0,0,1,.924-.4.844.844,0,0,1,.924,1.1l-.335,1.862-.509.094.308-1.715c.08-.523-.094-.844-.509-.844a.978.978,0,0,0-.938.871l-.281,1.594-.523.094Z" transform="translate(-61.651 -0.039)"/>
    <path id="Path_832" data-name="Path 832" class="cls-2" d="M155.912,54.7h-.174c-.6,0-.764-.308-.683-.737l.308-1.742h-.2l.121-.442h.147l.174-.951.509-.08-.188,1.032h.67l-.08.442h-.656l-.308,1.7c0,.214,0,.335.322.335h.2Z" transform="translate(-60.789 -0.278)"/>
    <path id="Path_833" data-name="Path 833" class="cls-2" d="M157.631,49.47l-.991,5.627-.509.094.991-5.627Z" transform="translate(-60.417 -0.713)"/>
    <path id="Path_834" data-name="Path 834" class="cls-2" d="M157.219,51.594l.549-.094.63,1.742L159.59,51.5l.509.094-2.76,4.019-.509-.094,1.192-1.755Z" transform="translate(-60.179 -0.023)"/>
  </g>
</svg>
