<svg width="17" height="15" viewBox="0 0 17 15" fill="none" xmlns="http://www.w3.org/2000/svg">
<path d="M14.9225 8.05798C15.1488 7.79679 15.1488 7.4137 14.9225 7.15251C14.8006 7.01321 11.9275 3.66992 8.27074 3.66992C4.61402 3.66992 1.74089 7.01321 1.61899 7.15251C1.39263 7.4137 1.39263 7.79679 1.61899 8.05798C1.74089 8.19729 4.61402 11.5406 8.27074 11.5406C11.9275 11.5406 14.8006 8.19729 14.9225 8.05798ZM7.52198 5.2545C7.97472 5.2545 8.34039 5.62017 8.34039 6.07291C8.34039 6.52564 7.97472 6.89132 7.52198 6.89132C7.06924 6.89132 6.70357 6.52564 6.70357 6.07291C6.70357 5.62017 7.06924 5.2545 7.52198 5.2545ZM8.27074 10.1301C6.00705 10.1301 3.98715 8.44107 3.13392 7.60525C3.65631 7.08286 4.63143 6.24704 5.81551 5.68982C5.74586 5.9336 5.69362 6.17739 5.69362 6.45599C5.69362 7.88385 6.84288 9.03311 8.27074 9.03311C9.6986 9.03311 10.8479 7.88385 10.8479 6.45599C10.8479 6.1948 10.7956 5.9336 10.726 5.68982C11.91 6.26445 12.8852 7.10027 13.4076 7.60525C12.5543 8.44107 10.5344 10.1301 8.27074 10.1301Z" fill="#484B51"/>
<path d="M0.696517 5.25489C1.0796 5.25489 1.39303 4.94146 1.39303 4.55837V2.01608H3.91791C4.301 2.01608 4.61443 1.70265 4.61443 1.31956C4.61443 0.93648 4.301 0.623047 3.91791 0.623047H0.696517C0.313433 0.623047 0 0.93648 0 1.31956V4.55837C0 4.94146 0.313433 5.25489 0.696517 5.25489Z" fill="#484B51"/>
<path d="M3.93549 13.195H1.41061V10.6702C1.41061 10.2871 1.09718 9.97363 0.714096 9.97363C0.331011 9.97363 0.0175781 10.2871 0.0175781 10.6702V13.909C0.0175781 14.292 0.331011 14.6055 0.714096 14.6055H3.9529C4.33599 14.6055 4.64942 14.292 4.64942 13.909C4.64942 13.5085 4.31857 13.195 3.93549 13.195Z" fill="#484B51"/>
<path d="M15.8455 0.605469H12.6067C12.2236 0.605469 11.9102 0.918902 11.9102 1.30199C11.9102 1.68507 12.2236 1.9985 12.6067 1.9985H15.1315V4.52338C15.1315 4.90646 15.445 5.2199 15.8281 5.2199C16.2112 5.2199 16.5246 4.90646 16.5246 4.52338V1.3194C16.542 0.918902 16.2286 0.605469 15.8455 0.605469Z" fill="#484B51"/>
<path d="M15.8455 9.95605C15.4624 9.95605 15.149 10.2695 15.149 10.6526V13.1774H12.6067C12.2236 13.1774 11.9102 13.4909 11.9102 13.874C11.9102 14.2571 12.2236 14.5705 12.6067 14.5705H15.8455C16.2286 14.5705 16.542 14.2571 16.542 13.874V10.67C16.542 10.2695 16.2286 9.95605 15.8455 9.95605Z" fill="#484B51"/>
</svg>
