<svg width="14" height="15" viewBox="0 0 14 15" fill="none" xmlns="http://www.w3.org/2000/svg">
<g clip-path="url(#clip0)">
<path d="M6.70282 3.68311C3.68411 3.68311 1.22852 6.13826 1.22852 9.15741C1.22852 12.1761 3.68411 14.6321 6.70282 14.6321C9.72109 14.6321 12.1776 12.1757 12.1776 9.15741C12.1776 6.1387 9.72109 3.68311 6.70282 3.68311ZM6.70282 13.6489C4.22587 13.6489 2.21093 11.6339 2.21093 9.1561C2.21093 6.67959 4.22587 4.66464 6.70282 4.66464C9.1802 4.66464 11.1951 6.68002 11.1951 9.1561C11.1951 11.6339 9.1802 13.6489 6.70282 13.6489Z" fill="#3C609D"/>
<path d="M1.47362 5.66012C2.28747 5.66012 2.94723 5.00036 2.94723 4.18651C2.94723 3.37265 2.28747 2.71289 1.47362 2.71289C0.65976 2.71289 0 3.37265 0 4.18651C0 5.00036 0.65976 5.66012 1.47362 5.66012Z" fill="#3C609D"/>
<path d="M11.6208 4.96625C12.2431 4.96625 12.7475 4.46181 12.7475 3.83957C12.7475 3.21732 12.2431 2.71289 11.6208 2.71289C10.9986 2.71289 10.4941 3.21732 10.4941 3.83957C10.4941 4.46181 10.9986 4.96625 11.6208 4.96625Z" fill="#3C609D"/>
<path d="M13.294 2.59038C13.6839 2.59038 14.0001 2.27426 14.0001 1.8843C14.0001 1.49435 13.6839 1.17822 13.294 1.17822C12.904 1.17822 12.5879 1.49435 12.5879 1.8843C12.5879 2.27426 12.904 2.59038 13.294 2.59038Z" fill="#3C609D"/>
<path d="M4.23625 2.71323C4.54148 2.71323 4.78891 2.4658 4.78891 2.16057C4.78891 1.85534 4.54148 1.60791 4.23625 1.60791C3.93103 1.60791 3.68359 1.85534 3.68359 2.16057C3.68359 2.4658 3.93103 2.71323 4.23625 2.71323Z" fill="#3C609D"/>
<path d="M5.12609 6.84277C4.44093 6.84277 3.90658 7.03455 3.52303 7.4181C3.13904 7.80208 2.94727 8.33731 2.94727 9.02683C2.94727 9.51978 3.04402 9.93035 3.23798 10.2581C3.4315 10.5872 3.68429 10.8265 3.99636 10.9781C4.308 11.1289 4.70201 11.2052 5.17796 11.2052C5.64606 11.2052 6.03702 11.1176 6.35083 10.942C6.66465 10.7659 6.90393 10.5196 7.07043 10.2058C7.23605 9.88938 7.3193 9.48578 7.3193 8.99196C7.3193 8.31247 7.12927 7.78421 6.7492 7.40764C6.36958 7.03063 5.82825 6.84277 5.12609 6.84277ZM5.7851 9.9565C5.63124 10.1387 5.41462 10.2298 5.13481 10.2298C4.86196 10.2298 4.64709 10.1369 4.48887 9.9504C4.33022 9.76385 4.25133 9.45832 4.25133 9.03249C4.25133 8.60318 4.3311 8.29503 4.49062 8.10892C4.6497 7.92281 4.86066 7.82911 5.12391 7.82911C5.39763 7.82911 5.61512 7.92107 5.77595 8.10413C5.9359 8.28719 6.01654 8.57746 6.01654 8.97496C6.01566 9.44655 5.93852 9.77431 5.7851 9.9565Z" fill="#3C609D"/>
<path d="M8.75522 10.3665C8.80796 10.3238 8.91213 10.2305 9.06904 10.122C9.33186 9.93629 9.51317 9.75759 9.61298 9.6033C9.71192 9.44813 9.76204 9.2812 9.76204 9.11166C9.76204 8.9517 9.71846 8.80482 9.63172 8.67624C9.54412 8.54679 9.42513 8.45003 9.27432 8.38901C9.12178 8.32625 8.90995 8.29443 8.63667 8.29443C8.37473 8.29443 8.17075 8.32669 8.02212 8.3925C7.8748 8.45701 7.7593 8.55115 7.67911 8.67406C7.59804 8.7961 7.54225 8.96652 7.51174 9.18531L8.28886 9.24895C8.31022 9.09161 8.3525 8.98134 8.4157 8.91857C8.47846 8.85668 8.55909 8.82574 8.65847 8.82574C8.75392 8.82574 8.83281 8.85537 8.896 8.91596C8.9592 8.97654 8.99015 9.04889 8.99015 9.13388C8.99015 9.21234 8.95833 9.29602 8.89513 9.38319C8.83106 9.4708 8.68592 9.5985 8.45841 9.76718C8.08619 10.0439 7.83296 10.2475 7.69785 10.4488C7.56273 10.652 7.48167 11.0625 7.45508 11.0625H9.58029V10.5713H8.5713C8.6406 10.5718 8.70249 10.4092 8.75522 10.3665Z" fill="#3C609D"/>
</g>
<defs>
<clipPath id="clip0">
<rect width="13.9996" height="14" fill="white" transform="translate(0 0.904785)"/>
</clipPath>
</defs>
</svg>
