<svg width="24" height="25" viewBox="0 0 24 25" fill="none" xmlns="http://www.w3.org/2000/svg">
<path d="M20.1448 10.0312L12.1539 4.2196C11.8633 4.00167 11.5727 4.00167 11.2821 4.2196L3.29119 10.0312C2.71002 10.3944 3.07326 11.3388 3.72706 11.3388H5.17997V19.3297C5.17997 19.7656 5.47054 20.0562 5.90641 20.0562H17.5296C17.9654 20.0562 18.256 19.7656 18.256 19.3297V11.3388H19.7089C20.3627 11.3388 20.726 10.3944 20.1448 10.0312ZM11.718 18.6033C9.32072 18.6033 7.35931 16.6419 7.35931 14.2446C7.35931 11.8473 9.32072 9.8859 11.718 9.8859C14.1153 9.8859 16.0767 11.8473 16.0767 14.2446C16.0767 16.6419 14.1153 18.6033 11.718 18.6033Z" fill="#344563"/>
<path d="M12.8079 13.1549V10.9756H10.6286V13.1549H8.44922V15.3343H10.6286V17.5136H12.8079V15.3343H14.9873V13.1549H12.8079Z" fill="#344563"/>
</svg>
