<svg xmlns="http://www.w3.org/2000/svg" xmlns:xlink="http://www.w3.org/1999/xlink" width="65" height="65" viewBox="0 0 65 65">
  <defs>
    <style>
      .cls-1, .cls-4 {
        fill: #fff;
      }

      .cls-1 {
        stroke: #ebebf2;
      }

      .cls-2 {
        fill: #303c42;
      }

      .cls-3 {
        fill: #beb7b3;
      }

      .cls-4 {
        opacity: 0.2;
      }

      .cls-5 {
        fill: #ffbc30;
      }

      .cls-6 {
        fill: #fafafa;
      }

      .cls-7 {
        opacity: 0.1;
      }

      .cls-8 {
        fill: url(#linear-gradient);
      }

      .cls-9 {
        stroke: none;
      }

      .cls-10 {
        fill: none;
      }

      .cls-11 {
        filter: url(#Ellipse_8);
      }
    </style>
    <filter id="Ellipse_8" x="0" y="0" width="65" height="65" filterUnits="userSpaceOnUse">
      <feOffset dy="2" input="SourceAlpha"/>
      <feGaussianBlur stdDeviation="3" result="blur"/>
      <feFlood flood-opacity="0.102"/>
      <feComposite operator="in" in2="blur"/>
      <feComposite in="SourceGraphic"/>
    </filter>
    <linearGradient id="linear-gradient" x1="-0.155" y1="0.287" x2="1.115" y2="0.681" gradientUnits="objectBoundingBox">
      <stop offset="0" stop-color="#fff" stop-opacity="0.2"/>
      <stop offset="1" stop-color="#fff" stop-opacity="0"/>
    </linearGradient>
  </defs>
  <g id="Group_10127" data-name="Group 10127" transform="translate(-295 -1066)">
    <g class="cls-11" transform="matrix(1, 0, 0, 1, 295, 1066)">
      <g id="Ellipse_8-2" data-name="Ellipse 8" class="cls-1" transform="translate(9 7)">
        <circle class="cls-9" cx="23.5" cy="23.5" r="23.5"/>
        <circle class="cls-10" cx="23.5" cy="23.5" r="23"/>
      </g>
    </g>
    <g id="iconfinder_Prescription_addigtion_drugs_Drug_3122426" transform="translate(316 1085)">
      <path id="Path_61" data-name="Path 61" class="cls-2" d="M18,0H6A2,2,0,0,0,4,2V5A1.993,1.993,0,0,0,5,6.722V22a2,2,0,0,0,2,2H17a2,2,0,0,0,2-2V6.722A1.993,1.993,0,0,0,20,5V2A2,2,0,0,0,18,0Z"/>
      <rect id="Rectangle_148" data-name="Rectangle 148" class="cls-3" width="2" height="5" transform="translate(14 1)"/>
      <rect id="Rectangle_149" data-name="Rectangle 149" class="cls-3" width="2" height="5" transform="translate(8 1)"/>
      <rect id="Rectangle_150" data-name="Rectangle 150" class="cls-3" width="2" height="5" transform="translate(11 1)"/>
      <rect id="Rectangle_151" data-name="Rectangle 151" class="cls-4" width="2" height="1" transform="translate(14 1)"/>
      <rect id="Rectangle_152" data-name="Rectangle 152" class="cls-4" width="2" height="1" transform="translate(8 1)"/>
      <rect id="Rectangle_153" data-name="Rectangle 153" class="cls-4" width="2" height="1" transform="translate(11 1)"/>
      <path id="Path_62" data-name="Path 62" class="cls-3" d="M5,2A1,1,0,0,1,6,1H7V6H6A1,1,0,0,1,5,5Z"/>
      <path id="Path_63" data-name="Path 63" class="cls-5" d="M10,21a2,2,0,1,1,1.986-2.208,2.978,2.978,0,0,0-.954,1.886A1.954,1.954,0,0,1,10,21Z"/>
      <circle id="Ellipse_10" data-name="Ellipse 10" class="cls-5" cx="2" cy="2" r="2" transform="translate(12 19)"/>
      <path id="Path_64" data-name="Path 64" class="cls-4" d="M12.5,21.5a2,2,0,0,1,3.14-1.639,2,2,0,1,0-2.78,2.779A1.985,1.985,0,0,1,12.5,21.5Z"/>
      <path id="Path_65" data-name="Path 65" class="cls-4" d="M8.5,19.5a2,2,0,0,1,3.14-1.639,2,2,0,1,0-2.78,2.779A1.985,1.985,0,0,1,8.5,19.5Z"/>
      <path id="Path_66" data-name="Path 66" class="cls-6" d="M18,22a1,1,0,0,1-1,1h-.78a2.988,2.988,0,0,0-3.335-4.78A2.995,2.995,0,1,0,10,22a2.926,2.926,0,0,0,1.113-.229A2.983,2.983,0,0,0,11.78,23H7a1,1,0,0,1-1-1V7H18Z"/>
      <path id="Path_67" data-name="Path 67" class="cls-3" d="M19,5a1,1,0,0,1-1,1H17V1h1a1,1,0,0,1,1,1Z"/>
      <path id="Path_68" data-name="Path 68" class="cls-4" d="M6,1A1,1,0,0,0,5,2V3A1,1,0,0,1,6,2H7V1Z"/>
      <path id="Path_69" data-name="Path 69" class="cls-4" d="M18,1H17V2h1a1,1,0,0,1,1,1V2A1,1,0,0,0,18,1Z"/>
      <rect id="Rectangle_154" data-name="Rectangle 154" class="cls-7" width="2" height="1" transform="translate(8 5)"/>
      <rect id="Rectangle_155" data-name="Rectangle 155" class="cls-7" width="2" height="1" transform="translate(14 5)"/>
      <rect id="Rectangle_156" data-name="Rectangle 156" class="cls-7" width="2" height="1" transform="translate(11 5)"/>
      <path id="Path_70" data-name="Path 70" class="cls-7" d="M18,6a1,1,0,0,0,1-1V4a1,1,0,0,1-1,1H17V6Z"/>
      <path id="Path_71" data-name="Path 71" class="cls-7" d="M6,6H7V5H6A1,1,0,0,1,5,4V5A1,1,0,0,0,6,6Z"/>
      <path id="Path_72" data-name="Path 72" class="cls-8" d="M18,0H6A2,2,0,0,0,4,2V5A1.993,1.993,0,0,0,5,6.722V22a2,2,0,0,0,2,2H17a2,2,0,0,0,2-2V6.722A1.993,1.993,0,0,0,20,5V2A2,2,0,0,0,18,0Z"/>
    </g>
  </g>
</svg>
