<svg width="11" height="12" viewBox="0 0 11 12" fill="none" xmlns="http://www.w3.org/2000/svg">
<path d="M7.62449 1.43457C7.39252 1.33322 7.12233 1.43912 7.02099 1.67109C6.91964 1.90306 7.02554 2.17325 7.25751 2.27459C8.7488 2.92609 9.73313 4.40107 9.73313 6.05662C9.73313 8.33471 7.88606 10.1817 5.6081 10.1817C3.32983 10.1817 1.48307 8.33489 1.48307 6.05662C1.48307 4.40143 2.46706 2.92645 3.95791 2.27453C4.18984 2.17312 4.29565 1.90289 4.19422 1.67096C4.09282 1.43904 3.82258 1.33322 3.59066 1.43465C1.769 2.23119 0.566406 4.03387 0.566406 6.0566C0.566406 8.84113 2.82359 11.0983 5.60812 11.0983C8.39234 11.0983 10.6498 8.84098 10.6498 6.0566C10.6498 4.0334 9.44674 2.23063 7.62449 1.43457Z" fill="#344563"/>
<path d="M5.60872 5.13998C5.86185 5.13998 6.06705 4.93478 6.06705 4.68165V0.556618C6.06707 0.303465 5.86185 0.0982666 5.60872 0.0982666C5.35559 0.0982666 5.15039 0.303465 5.15039 0.556596V4.68163C5.15039 4.93476 5.35559 5.13998 5.60872 5.13998Z" fill="#344563"/>
</svg>
