<svg width="12" height="12" viewBox="0 0 12 12" fill="none" xmlns="http://www.w3.org/2000/svg">
<path d="M8.48488 1.45772C8.23182 1.34716 7.93707 1.46268 7.82652 1.71574C7.71596 1.9688 7.83148 2.26355 8.08454 2.37411C9.7114 3.08483 10.7852 4.6939 10.7852 6.49996C10.7852 8.98515 8.77023 11 6.28518 11C3.7998 11 1.78515 8.98534 1.78515 6.49996C1.78515 4.6943 2.85859 3.08523 4.48498 2.37404C4.73799 2.26341 4.85342 1.96861 4.74277 1.7156C4.63215 1.46259 4.33735 1.34716 4.08434 1.45781C2.09708 2.32676 0.785156 4.29332 0.785156 6.49994C0.785156 9.5376 3.24754 12 6.28521 12C9.32254 12 11.7853 9.53744 11.7853 6.49994C11.7853 4.29281 10.4728 2.32615 8.48488 1.45772Z" fill="#D32027"/>
<path d="M6.28515 5.50005C6.56129 5.50005 6.78515 5.2762 6.78515 5.00005V0.500019C6.78517 0.223853 6.56129 0 6.28515 0C6.00901 0 5.78516 0.223853 5.78516 0.499996V5.00003C5.78516 5.27617 6.00901 5.50005 6.28515 5.50005Z" fill="#D32027"/>
</svg>
