<svg xmlns="http://www.w3.org/2000/svg" xmlns:xlink="http://www.w3.org/1999/xlink" width="18" height="27" viewBox="0 0 18 27">
  <defs>
    <style>
      .cls-1 {
        fill: #303c42;
      }

      .cls-2 {
        fill: #beb7b3;
      }

      .cls-3 {
        fill: #fff;
        opacity: 0.2;
      }

      .cls-4 {
        fill: #d666a7;
      }

      .cls-5 {
        fill: #fafafa;
      }

      .cls-6 {
        opacity: 0.1;
      }

      .cls-7 {
        fill: url(#linear-gradient);
      }
    </style>
    <linearGradient id="linear-gradient" x1="-0.155" y1="0.287" x2="1.115" y2="0.681" gradientUnits="objectBoundingBox">
      <stop offset="0" stop-color="#fff" stop-opacity="0.2"/>
      <stop offset="1" stop-color="#fff" stop-opacity="0"/>
    </linearGradient>
  </defs>
  <g id="iconfinder_Prescription_addigtion_drugs_Drug_3122426" transform="translate(-4)">
    <path id="Path_3012" data-name="Path 3012" class="cls-1" d="M19.75,0H6.25A2.253,2.253,0,0,0,4,2.25V5.625A2.243,2.243,0,0,0,5.125,7.562V24.75A2.253,2.253,0,0,0,7.375,27h11.25a2.253,2.253,0,0,0,2.25-2.25V7.562A2.243,2.243,0,0,0,22,5.625V2.25A2.253,2.253,0,0,0,19.75,0Z"/>
    <rect id="Rectangle_1511" data-name="Rectangle 1511" class="cls-2" width="2.25" height="5.625" transform="translate(15.25 1.125)"/>
    <rect id="Rectangle_1512" data-name="Rectangle 1512" class="cls-2" width="2.25" height="5.625" transform="translate(8.5 1.125)"/>
    <rect id="Rectangle_1513" data-name="Rectangle 1513" class="cls-2" width="2.25" height="5.625" transform="translate(11.875 1.125)"/>
    <rect id="Rectangle_1514" data-name="Rectangle 1514" class="cls-3" width="2.25" height="1.125" transform="translate(15.25 1.125)"/>
    <rect id="Rectangle_1515" data-name="Rectangle 1515" class="cls-3" width="2.25" height="1.125" transform="translate(8.5 1.125)"/>
    <rect id="Rectangle_1516" data-name="Rectangle 1516" class="cls-3" width="2.25" height="1.125" transform="translate(11.875 1.125)"/>
    <path id="Path_3013" data-name="Path 3013" class="cls-2" d="M5,2.125A1.126,1.126,0,0,1,6.125,1H7.25V6.625H6.125A1.126,1.126,0,0,1,5,5.5Z" transform="translate(0.125 0.125)"/>
    <path id="Path_3014" data-name="Path 3014" class="cls-4" d="M10.25,21.5a2.25,2.25,0,1,1,2.234-2.484,3.35,3.35,0,0,0-1.073,2.122A2.2,2.2,0,0,1,10.25,21.5Z" transform="translate(0.5 2.125)"/>
    <circle id="Ellipse_12" data-name="Ellipse 12" class="cls-4" cx="2.25" cy="2.25" r="2.25" transform="translate(13 21.375)"/>
    <path id="Path_3015" data-name="Path 3015" class="cls-3" d="M12.562,21.813a2.245,2.245,0,0,1,3.532-1.844,2.247,2.247,0,1,0-3.127,3.126A2.234,2.234,0,0,1,12.562,21.813Z" transform="translate(1 2.375)"/>
    <path id="Path_3016" data-name="Path 3016" class="cls-3" d="M8.563,19.813a2.245,2.245,0,0,1,3.532-1.844,2.247,2.247,0,1,0-3.127,3.126A2.234,2.234,0,0,1,8.563,19.813Z" transform="translate(0.5 2.125)"/>
    <path id="Path_3017" data-name="Path 3017" class="cls-5" d="M19.5,23.875A1.126,1.126,0,0,1,18.375,25H17.5a3.362,3.362,0,0,0-3.752-5.377A3.369,3.369,0,1,0,10.5,23.875a3.292,3.292,0,0,0,1.252-.257A3.356,3.356,0,0,0,12.5,25H7.125A1.126,1.126,0,0,1,6,23.875V7H19.5Z" transform="translate(0.25 0.875)"/>
    <path id="Path_3018" data-name="Path 3018" class="cls-2" d="M19.25,5.5a1.126,1.126,0,0,1-1.125,1.125H17V1h1.125A1.126,1.126,0,0,1,19.25,2.125Z" transform="translate(1.625 0.125)"/>
    <path id="Path_3019" data-name="Path 3019" class="cls-3" d="M6.125,1A1.126,1.126,0,0,0,5,2.125V3.25A1.126,1.126,0,0,1,6.125,2.125H7.25V1Z" transform="translate(0.125 0.125)"/>
    <path id="Path_3020" data-name="Path 3020" class="cls-3" d="M18.125,1H17V2.125h1.125A1.126,1.126,0,0,1,19.25,3.25V2.125A1.126,1.126,0,0,0,18.125,1Z" transform="translate(1.625 0.125)"/>
    <rect id="Rectangle_1517" data-name="Rectangle 1517" class="cls-6" width="2.25" height="1.125" transform="translate(8.5 5.625)"/>
    <rect id="Rectangle_1518" data-name="Rectangle 1518" class="cls-6" width="2.25" height="1.125" transform="translate(15.25 5.625)"/>
    <rect id="Rectangle_1519" data-name="Rectangle 1519" class="cls-6" width="2.25" height="1.125" transform="translate(11.875 5.625)"/>
    <path id="Path_3021" data-name="Path 3021" class="cls-6" d="M18.125,6.25A1.126,1.126,0,0,0,19.25,5.125V4a1.126,1.126,0,0,1-1.125,1.125H17V6.25Z" transform="translate(1.625 0.5)"/>
    <path id="Path_3022" data-name="Path 3022" class="cls-6" d="M6.125,6.25H7.25V5.125H6.125A1.126,1.126,0,0,1,5,4V5.125A1.126,1.126,0,0,0,6.125,6.25Z" transform="translate(0.125 0.5)"/>
    <path id="Path_3023" data-name="Path 3023" class="cls-7" d="M19.75,0H6.25A2.253,2.253,0,0,0,4,2.25V5.625A2.243,2.243,0,0,0,5.125,7.562V24.75A2.253,2.253,0,0,0,7.375,27h11.25a2.253,2.253,0,0,0,2.25-2.25V7.562A2.243,2.243,0,0,0,22,5.625V2.25A2.253,2.253,0,0,0,19.75,0Z"/>
  </g>
</svg>
