<svg width="16" height="16" viewBox="0 0 16 16" fill="none" xmlns="http://www.w3.org/2000/svg">
<g clip-path="url(#clip0)">
<path d="M12.5381 3.12813V2.41903C12.5381 1.19718 11.544 0.203125 10.3222 0.203125H4.88583C3.66398 0.203125 2.66992 1.19718 2.66992 2.41903V3.12813H12.5381Z" fill="#3C609D"/>
<path d="M3.55273 9.62891V13.2335V14.0016V14.4448C3.55273 14.9343 3.94956 15.3312 4.4391 15.3312H10.7618C11.2514 15.3312 11.6482 14.9343 11.6482 14.4448V14.0016V13.2335V9.62891H3.55273ZM8.78228 13.4107H6.41864C6.17389 13.4107 5.97546 13.2123 5.97546 12.9675C5.97546 12.7228 6.17389 12.5244 6.41864 12.5244H8.78228C9.02703 12.5244 9.22546 12.7228 9.22546 12.9675C9.22546 13.2123 9.02703 13.4107 8.78228 13.4107ZM8.78228 11.5198H6.41864C6.17389 11.5198 5.97546 11.3214 5.97546 11.0766C5.97546 10.8319 6.17389 10.6335 6.41864 10.6335H8.78228C9.02703 10.6335 9.22546 10.8319 9.22546 11.0766C9.22546 11.3214 9.02703 11.5198 8.78228 11.5198Z" fill="#3C609D"/>
<path d="M12.9521 4.01367H2.28622C1.06437 4.01367 0.0703125 5.00773 0.0703125 6.22958V9.77504C0.0703125 10.9969 1.06437 11.9909 2.28622 11.9909H2.67031V9.62731H2.4044C2.15965 9.62731 1.96122 9.42888 1.96122 9.18413C1.96122 8.93937 2.15965 8.74094 2.4044 8.74094H3.11349H12.0953H12.8044C13.0492 8.74094 13.2476 8.93937 13.2476 9.18413C13.2476 9.42888 13.0492 9.62731 12.8044 9.62731H12.5385V11.9909H12.9521C14.174 11.9909 15.168 10.9969 15.168 9.77504V6.22958C15.168 5.00773 14.174 4.01367 12.9521 4.01367ZM3.82258 6.79094H2.4044C2.15965 6.79094 1.96122 6.59252 1.96122 6.34776C1.96122 6.10301 2.15965 5.90458 2.4044 5.90458H3.82258C4.06734 5.90458 4.26577 6.10301 4.26577 6.34776C4.26577 6.59252 4.06734 6.79094 3.82258 6.79094Z" fill="#3C609D"/>
</g>
<defs>
<clipPath id="clip0">
<rect width="15.1273" height="15.1273" fill="white" transform="translate(0.0546875 0.208984)"/>
</clipPath>
</defs>
</svg>
