<svg width="30" height="31" viewBox="0 0 30 31" fill="none" xmlns="http://www.w3.org/2000/svg">
<rect y="0.661621" width="30" height="30" rx="5" fill="#EBEFF5"/>
<path d="M12.1691 11.7966C12.2343 11.6008 12.411 11.4637 12.6168 11.4491C12.8232 11.4348 13.0169 11.5453 13.1091 11.7297L15.6313 16.774L16.2661 14.8693C16.3356 14.6611 16.5305 14.5206 16.75 14.5206H23.2764C23.6562 12.8066 23.181 10.9396 21.8503 9.60893C19.8962 7.65483 16.7855 7.54508 14.7015 9.27974C12.6175 7.54508 9.50677 7.65483 7.55263 9.60897C6.22192 10.9396 5.7467 12.8066 6.12655 14.5206H11.2611L12.1691 11.7966Z" fill="#344563"/>
<path d="M16.2101 18.265C16.1449 18.4608 15.9682 18.5979 15.7625 18.6125C15.7503 18.6133 15.7382 18.6138 15.7262 18.6138C15.5341 18.6138 15.357 18.5055 15.2702 18.3319L12.748 13.2876L12.1131 15.1923C12.0437 15.4006 11.8488 15.541 11.6293 15.541H6.46484C6.72138 16.1135 7.08392 16.6496 7.5532 17.1189L14.3414 23.907C14.441 24.0066 14.5715 24.0564 14.702 24.0564C14.8325 24.0564 14.9631 24.0066 15.0626 23.907L21.8508 17.1189C22.3201 16.6496 22.6827 16.1135 22.9392 15.541H17.1181L16.2101 18.265Z" fill="#344563"/>
</svg>
