<svg width="15" height="12" viewBox="0 0 15 12" fill="none" xmlns="http://www.w3.org/2000/svg">
<path d="M9.39738 11.5707C9.38092 11.5707 9.38092 11.5707 9.36443 11.5707C9.1668 11.5542 9.00207 11.4224 8.93618 11.2413L5.85619 2.64364L3.91266 6.46481C3.83031 6.6295 3.66559 6.72833 3.46796 6.72833H1.16207C0.882091 6.72833 0.667969 6.51424 0.667969 6.23423C0.667969 5.95422 0.882091 5.74013 1.16207 5.74013H3.17149L5.51032 1.1613C5.59266 0.980121 5.79033 0.881288 5.98796 0.897776C6.1856 0.914264 6.35032 1.04601 6.41621 1.22719L9.47972 9.82482L11.4232 6.00365C11.5056 5.83896 11.6703 5.74013 11.868 5.74013H14.1738C14.4538 5.74013 14.6679 5.95425 14.6679 6.23423C14.6679 6.51424 14.4538 6.72833 14.1738 6.72833H12.1644L9.84208 11.3072C9.75973 11.4719 9.57855 11.5707 9.39738 11.5707Z" fill="#344563"/>
</svg>
