<svg width="14" height="15" viewBox="0 0 14 15" fill="none" xmlns="http://www.w3.org/2000/svg">
<g clip-path="url(#clip0)">
<path d="M5.89989 4.8024H5.66734L5.70359 4.30419H6.38295C6.46148 4.30419 6.50072 4.21964 6.50072 4.13209C6.50072 4.04752 6.46148 3.95996 6.38295 3.95996H5.45299C5.40771 3.95996 5.38356 4.00828 5.37752 4.08375L5.29899 4.87786C5.29899 4.90504 5.29598 4.93222 5.29598 4.95637C5.29598 5.04997 5.32923 5.11037 5.45302 5.11037H5.89992C6.09619 5.11037 6.21697 5.21909 6.21697 5.44856V5.50592C6.21697 5.73539 6.09619 5.84108 5.89691 5.84108C5.72178 5.84108 5.58591 5.75956 5.58591 5.61161C5.58591 5.52706 5.55569 5.46064 5.38963 5.46064C5.26582 5.46064 5.19336 5.49988 5.19336 5.63879C5.19336 5.91958 5.44396 6.18531 5.90594 6.18531C6.29545 6.18531 6.60946 6.00112 6.60946 5.50592V5.44856C6.60946 4.9745 6.29846 4.8024 5.89989 4.8024Z" fill="#64C8BC"/>
<path d="M6.96509 5.77441C6.84735 5.77441 6.75977 5.86804 6.75977 5.97974C6.75977 6.08843 6.84735 6.18506 6.96509 6.18506C7.07378 6.18506 7.16741 6.08846 7.16741 5.97974C7.16741 5.86804 7.07381 5.77441 6.96509 5.77441Z" fill="#64C8BC"/>
<path d="M8.40642 4.95938C8.57852 4.899 8.69626 4.74804 8.69626 4.4944C8.69626 4.11095 8.42755 3.95996 8.05921 3.95996C7.68782 3.95996 7.41909 4.11093 7.41909 4.4944C7.41909 4.74804 7.53683 4.899 7.70893 4.95938C7.49456 5.03788 7.34961 5.21603 7.34961 5.52703V5.56326C7.34961 6.01315 7.66062 6.18528 8.05921 6.18528C8.45774 6.18528 8.76571 6.01315 8.76571 5.56326V5.52703C8.76571 5.21603 8.6238 5.03788 8.40642 4.95938ZM8.05918 4.28002C8.2222 4.28002 8.31883 4.35552 8.31883 4.54271C8.31883 4.72991 8.2222 4.8054 8.05918 4.8054C7.89312 4.8054 7.7995 4.72991 7.7995 4.54271C7.7995 4.35552 7.89312 4.28002 8.05918 4.28002ZM8.37319 5.51801C8.37319 5.75352 8.25849 5.86525 8.05921 5.86525C7.86291 5.86525 7.74216 5.75653 7.74216 5.51801V5.45761C7.74216 5.22811 7.8599 5.12546 8.05921 5.12546C8.25545 5.12546 8.37319 5.22814 8.37319 5.45761V5.51801Z" fill="#64C8BC"/>
<path d="M10.2062 7.7334H5.40826C5.29495 7.7334 5.20312 7.82525 5.20312 7.93853C5.20312 8.05182 5.29495 8.14366 5.40826 8.14366H10.2062C10.3195 8.14366 10.4114 8.05182 10.4114 7.93853C10.4114 7.82525 10.3195 7.7334 10.2062 7.7334Z" fill="#64C8BC"/>
<path d="M4.44181 7.7334H3.79302C3.67971 7.7334 3.58789 7.82525 3.58789 7.93853C3.58789 8.05182 3.67971 8.14366 3.79302 8.14366H4.44181C4.55512 8.14366 4.64694 8.05182 4.64694 7.93853C4.64694 7.82525 4.55512 7.7334 4.44181 7.7334Z" fill="#64C8BC"/>
<path d="M10.0106 3.0083H3.98859C3.76765 3.0083 3.58789 3.18806 3.58789 3.409V6.77427C3.58789 6.99523 3.76765 7.17496 3.98859 7.17496H10.0105C10.2315 7.17496 10.4113 6.9952 10.4113 6.77427V3.409H10.4113C10.4113 3.18803 10.2315 3.0083 10.0106 3.0083ZM10.001 6.7647H3.99816V3.41854H10.001V6.7647Z" fill="#64C8BC"/>
<path d="M11.4089 3.90721C11.2956 3.90721 11.2038 3.99906 11.2038 4.11234V8.69895C11.2038 9.36687 11.0043 10.0113 10.6271 10.5624C10.3182 11.0136 9.924 11.3971 9.47343 11.695V10.0995C9.47343 9.88137 9.29591 9.70385 9.07776 9.70385H4.92103C4.70285 9.70385 4.52534 9.88137 4.52534 10.0995V11.695C4.07477 11.3971 3.68056 11.0136 3.37171 10.5624C2.99445 10.0112 2.795 9.36684 2.795 8.69895V3.14454C2.795 1.99791 3.72786 1.06505 4.87449 1.06505H9.12428C10.2709 1.06505 11.2038 1.99791 11.2038 3.14454C11.2038 3.25782 11.2956 3.34967 11.4089 3.34967C11.5222 3.34967 11.6141 3.25782 11.6141 3.14454C11.6141 1.77169 10.4971 0.654785 9.12428 0.654785H4.87449C3.50162 0.654785 2.38477 1.77169 2.38477 3.14454V8.69892C2.38477 9.44991 2.60898 10.1744 3.03322 10.7942C3.44124 11.3902 3.98495 11.8787 4.60907 12.2251C4.62328 12.2356 4.63884 12.2443 4.65555 12.2508C5.04985 12.4639 5.4754 12.6202 5.91856 12.7117V14.3493C5.91856 14.5178 6.05557 14.6548 6.22401 14.6548H7.77484C7.94327 14.6548 8.08032 14.5178 8.08032 14.3493V12.7117C8.52345 12.6202 8.94898 12.4639 9.34324 12.2509C9.36001 12.2443 9.37562 12.2356 9.38987 12.2251C10.014 11.8786 10.5576 11.3902 10.9656 10.7942C11.3899 10.1744 11.6141 9.44994 11.6141 8.69892V4.11231C11.6141 3.99903 11.5222 3.90721 11.4089 3.90721ZM5.91853 12.292C5.57599 12.214 5.24582 12.0933 4.9356 11.9347V10.1141H5.91853V12.292ZM7.67003 14.2445H6.32879V12.2292H7.67003V14.2445ZM7.67003 11.8189H6.32879V10.9902H7.67003V11.8189ZM7.67003 10.5799H6.32879V10.1141H7.67003V10.5799ZM8.08027 12.292V10.1141H9.06316V11.9347C8.75295 12.0933 8.42277 12.214 8.08027 12.292Z" fill="#64C8BC"/>
</g>
<defs>
<clipPath id="clip0">
<rect width="14" height="14" fill="white" transform="translate(0 0.654785)"/>
</clipPath>
</defs>
</svg>
