<svg width="11" height="12" viewBox="0 0 11 12" fill="none" xmlns="http://www.w3.org/2000/svg">
<path d="M9.46799 8.56317C9.287 8.42854 9.03117 8.46613 8.89653 8.64708C8.82249 8.74662 8.74325 8.84425 8.66102 8.93727C8.51164 9.10625 8.52751 9.36438 8.69649 9.51378C8.77421 9.58248 8.8707 9.61621 8.96684 9.61621C9.07981 9.61621 9.19229 9.56959 9.27299 9.47829C9.37038 9.36814 9.46421 9.25251 9.5519 9.13462C9.68653 8.95367 9.64898 8.69779 9.46799 8.56317Z" fill="#344563"/>
<path d="M10.1519 6.64786C9.9316 6.59989 9.71389 6.73967 9.66592 6.96005C9.63952 7.08129 9.60762 7.20275 9.57105 7.32111C9.50445 7.53664 9.62518 7.76531 9.84068 7.8319C9.88085 7.8443 9.92145 7.8502 9.96139 7.8502C10.1358 7.8502 10.2973 7.7376 10.3515 7.56222C10.3949 7.42177 10.4327 7.27762 10.4641 7.13379C10.512 6.91341 10.3723 6.69585 10.1519 6.64786Z" fill="#344563"/>
<path d="M7.50184 9.87146C7.3934 9.93199 7.28113 9.98856 7.16816 10.0396C6.96258 10.1324 6.8712 10.3743 6.96403 10.5799C7.03224 10.7309 7.18088 10.8203 7.33649 10.8203C7.39269 10.8203 7.44981 10.8087 7.50435 10.784C7.63837 10.7235 7.77148 10.6564 7.90005 10.5846C8.09701 10.4747 8.16752 10.2259 8.05754 10.0289C7.94761 9.83203 7.6988 9.76152 7.50184 9.87146Z" fill="#344563"/>
<path d="M4.92586 2.74997V5.84816L3.42821 7.34579C3.26872 7.5053 3.26872 7.76389 3.42821 7.92338C3.50797 8.00314 3.61247 8.04301 3.71702 8.04301C3.82154 8.04301 3.92607 8.00312 4.00584 7.92338L5.6231 6.30612C5.69967 6.22954 5.7427 6.12564 5.7427 6.01733V2.74997C5.7427 2.5244 5.55985 2.34155 5.33428 2.34155C5.10871 2.34155 4.92586 2.5244 4.92586 2.74997Z" fill="#344563"/>
<path d="M10.1545 1.66741C9.92897 1.66741 9.74612 1.85026 9.74612 2.07583V3.20993C8.79548 1.71903 7.13532 0.789307 5.33519 0.789307C3.9388 0.789307 2.626 1.3331 1.63859 2.32047C0.651212 3.30789 0.107422 4.62069 0.107422 6.01707C0.107422 7.41346 0.651212 8.72626 1.63859 9.71368C2.626 10.7011 3.9388 11.2448 5.33519 11.2448C5.33864 11.2448 5.34197 11.2444 5.3454 11.2443C5.34883 11.2444 5.35216 11.2448 5.35561 11.2448C5.50281 11.2448 5.65145 11.2386 5.79746 11.2264C6.02223 11.2076 6.18919 11.0101 6.17039 10.7853C6.15154 10.5606 5.95433 10.3935 5.72929 10.4124C5.60587 10.4228 5.48016 10.428 5.35561 10.428C5.35216 10.428 5.34883 10.4284 5.3454 10.4285C5.34197 10.4284 5.33864 10.428 5.33519 10.428C2.90299 10.428 0.924261 8.44927 0.924261 6.01707C0.924261 3.58488 2.90299 1.60615 5.33519 1.60615C6.90266 1.60615 8.34436 2.44163 9.13218 3.77077H8.00917C7.7836 3.77077 7.60075 3.95362 7.60075 4.17919C7.60075 4.40476 7.7836 4.58761 8.00917 4.58761H9.25602C9.50474 4.58761 9.73744 4.51771 9.93556 4.39661C9.94831 4.38934 9.96056 4.38152 9.97224 4.37308C10.3277 4.13924 10.563 3.73701 10.563 3.28066V2.07583C10.563 1.85026 10.3801 1.66741 10.1545 1.66741Z" fill="#344563"/>
</svg>
