<svg width="14" height="13" viewBox="0 0 14 13" fill="none" xmlns="http://www.w3.org/2000/svg">
<path d="M13.7762 5.95606L8.72032 0.900057C8.57599 0.755733 8.38364 0.676514 8.17853 0.676514C7.9732 0.676514 7.78096 0.755846 7.63664 0.900057L7.1776 1.35921C7.03339 1.5033 6.95395 1.69577 6.95395 1.90099C6.95395 2.1061 7.03339 2.30505 7.1776 2.44915L10.1271 5.40517H0.756334C0.333834 5.40517 0 5.73594 0 6.15855V6.80767C0 7.23028 0.333834 7.59439 0.756334 7.59439H10.1606L7.17772 10.5669C7.0335 10.7112 6.95406 10.8985 6.95406 11.1037C6.95406 11.3087 7.0335 11.4987 7.17772 11.6429L7.63675 12.1005C7.78108 12.2449 7.97332 12.3235 8.17865 12.3235C8.38375 12.3235 8.57611 12.2438 8.72043 12.0995L13.7763 7.04362C13.921 6.89884 14.0005 6.70557 14 6.50012C14.0004 6.294 13.921 6.10062 13.7762 5.95606Z" fill="white"/>
</svg>
