<svg width="21" height="15" viewBox="0 0 21 15" fill="none" xmlns="http://www.w3.org/2000/svg">
<path fill-rule="evenodd" clip-rule="evenodd" d="M20.1228 6.74098C19.9592 6.47279 16.0319 0.181885 10.3274 0.181885C4.62281 0.181885 0.695536 6.47279 0.5319 6.74098C0.261177 7.17986 0.261177 7.73391 0.5319 8.17279C0.695536 8.44098 4.62281 14.7092 10.3228 14.7273H10.3501C16.0364 14.7273 19.9637 8.43643 20.1274 8.16825C20.3948 7.72962 20.3931 7.17789 20.1228 6.74098ZM10.3501 13.3637C5.35008 13.3637 1.71372 7.45461 1.71372 7.45461C1.71372 7.45461 5.35008 1.54552 10.3501 1.54552C15.3501 1.54552 18.9864 7.45461 18.9864 7.45461C18.9864 7.45461 15.3364 13.3637 10.3501 13.3637Z" fill="#2F4662"/>
<path fill-rule="evenodd" clip-rule="evenodd" d="M10.3273 3.81824C8.31903 3.81824 6.69098 5.44629 6.69098 7.4546C6.69098 9.46291 8.31903 11.091 10.3273 11.091C12.3357 11.091 13.9637 9.46291 13.9637 7.4546C13.9637 5.44629 12.3357 3.81824 10.3273 3.81824ZM10.3273 9.72733C9.07215 9.72733 8.05462 8.70979 8.05462 7.4546C8.05462 6.19941 9.07215 5.18187 10.3273 5.18187C11.5825 5.18187 12.6001 6.19941 12.6001 7.4546C12.6001 8.70979 11.5825 9.72733 10.3273 9.72733Z" fill="#2F4662"/>
</svg>
