<svg width="20" height="12" viewBox="0 0 20 12" fill="none" xmlns="http://www.w3.org/2000/svg">
<path d="M11.0002 7.00012H10.5002V4.25007C10.5002 4.11194 10.3883 4.00007 10.2502 4.00007H9.82579C9.67766 4.00007 9.53297 4.04382 9.40984 4.12601L8.93077 4.44539C8.90345 4.46358 8.87998 4.48698 8.86171 4.51424C8.84343 4.54151 8.83071 4.57211 8.82426 4.60429C8.81782 4.63648 8.81779 4.66962 8.82416 4.70182C8.83053 4.73402 8.84318 4.76465 8.8614 4.79195L9.1389 5.2079C9.15709 5.23522 9.18049 5.25869 9.20776 5.27697C9.23502 5.29524 9.26562 5.30796 9.29781 5.31441C9.32999 5.32085 9.36313 5.32089 9.39533 5.31452C9.42753 5.30814 9.45816 5.29549 9.48547 5.27728L9.50016 5.26759V7.00012H9.00015C8.86202 7.00012 8.75014 7.11199 8.75014 7.25012V7.75013C8.75014 7.88826 8.86202 8.00013 9.00015 8.00013H11.0002C11.1383 8.00013 11.2502 7.88826 11.2502 7.75013V7.25012C11.2502 7.11199 11.1383 7.00012 11.0002 7.00012ZM19.0003 0H1.00002C0.44782 0 0 0.44782 0 1.00002V11.0002C0 11.5524 0.44782 12.0002 1.00002 12.0002H19.0003C19.5525 12.0002 20.0003 11.5524 20.0003 11.0002V1.00002C20.0003 0.44782 19.5525 0 19.0003 0ZM1.50002 10.5002V8.50014C2.60473 8.50014 3.50006 9.39547 3.50006 10.5002H1.50002ZM1.50002 3.50006V1.50003H3.50006C3.50006 2.60473 2.60473 3.50006 1.50002 3.50006ZM10.0002 9.50016C8.34326 9.50016 7.00012 7.93294 7.00012 6.0001C7.00012 4.06694 8.34326 2.50004 10.0002 2.50004C11.6571 2.50004 13.0002 4.06694 13.0002 6.0001C13.0002 7.93357 11.6564 9.50016 10.0002 9.50016ZM18.5003 10.5002H16.5003C16.5003 9.39547 17.3956 8.50014 18.5003 8.50014V10.5002ZM18.5003 3.50006C17.3956 3.50006 16.5003 2.60473 16.5003 1.50003H18.5003V3.50006Z" fill="white"/>
</svg>
