<svg width="17" height="14" viewBox="0 0 17 14" fill="none" xmlns="http://www.w3.org/2000/svg">
<path d="M14.923 7.45276C15.1493 7.19156 15.1493 6.80848 14.923 6.54728C14.8011 6.40798 11.9279 3.0647 8.27122 3.0647C4.61451 3.0647 1.74137 6.40798 1.61948 6.54728C1.39311 6.80848 1.39311 7.19156 1.61948 7.45276C1.74137 7.59206 4.61451 10.9353 8.27122 10.9353C11.9279 10.9353 14.8011 7.59206 14.923 7.45276ZM7.52247 4.64927C7.9752 4.64927 8.34088 5.01495 8.34088 5.46768C8.34088 5.92042 7.9752 6.28609 7.52247 6.28609C7.06973 6.28609 6.70406 5.92042 6.70406 5.46768C6.70406 5.01495 7.06973 4.64927 7.52247 4.64927ZM8.27122 9.5249C6.00754 9.5249 3.98764 7.83584 3.13441 7.00002C3.6568 6.47763 4.63192 5.64181 5.816 5.0846C5.74635 5.32838 5.69411 5.57216 5.69411 5.85077C5.69411 7.27863 6.84336 8.42788 8.27122 8.42788C9.69909 8.42788 10.8483 7.27863 10.8483 5.85077C10.8483 5.58957 10.7961 5.32838 10.7264 5.0846C11.9105 5.65922 12.8857 6.49505 13.408 7.00002C12.5548 7.83584 10.5349 9.5249 8.27122 9.5249Z" fill="white"/>
<path d="M0.696517 4.64924C1.0796 4.64924 1.39303 4.3358 1.39303 3.95272V1.41043H3.91791C4.301 1.41043 4.61443 1.097 4.61443 0.713912C4.61443 0.330828 4.301 0.017395 3.91791 0.017395H0.696517C0.313433 0.017395 0 0.330828 0 0.713912V3.95272C0 4.3358 0.313433 4.64924 0.696517 4.64924Z" fill="white"/>
<path d="M3.93549 12.5896H1.41061V10.0647C1.41061 9.6816 1.09718 9.36816 0.714096 9.36816C0.331011 9.36816 0.0175781 9.6816 0.0175781 10.0647V13.3035C0.0175781 13.6866 0.331011 14 0.714096 14H3.9529C4.33599 14 4.64942 13.6866 4.64942 13.3035C4.64942 12.903 4.31857 12.5896 3.93549 12.5896Z" fill="white"/>
<path d="M15.846 0H12.6072C12.2241 0 11.9106 0.313433 11.9106 0.696517C11.9106 1.0796 12.2241 1.39303 12.6072 1.39303H15.132V3.91791C15.132 4.301 15.4455 4.61443 15.8286 4.61443C16.2116 4.61443 16.5251 4.301 16.5251 3.91791V0.71393C16.5425 0.313433 16.2291 0 15.846 0Z" fill="white"/>
<path d="M15.846 9.35077C15.4629 9.35077 15.1495 9.6642 15.1495 10.0473V12.5722H12.6072C12.2241 12.5722 11.9106 12.8856 11.9106 13.2687C11.9106 13.6518 12.2241 13.9652 12.6072 13.9652H15.846C16.2291 13.9652 16.5425 13.6518 16.5425 13.2687V10.0647C16.5425 9.6642 16.2291 9.35077 15.846 9.35077Z" fill="white"/>
</svg>
