<svg width="14" height="14" viewBox="0 0 14 14" fill="none" xmlns="http://www.w3.org/2000/svg">
<path d="M10.4009 0.179565C10.2877 0.0656267 10.134 0.00108115 9.97334 0H4.19073C4.02929 0 3.87447 0.0641302 3.76031 0.178283C3.64616 0.292435 3.58203 0.44726 3.58203 0.608696V2.13044C3.58203 2.29328 3.64672 2.44946 3.76187 2.56461C3.87703 2.67977 4.0332 2.74446 4.19605 2.74446C4.3589 2.74446 4.51508 2.67977 4.63023 2.56461C4.74538 2.44946 4.81007 2.29328 4.81007 2.13044V1.21739H9.37529V3.82718C9.37529 3.98861 9.43942 4.14344 9.55358 4.25759C9.66773 4.37174 9.82255 4.43587 9.98399 4.43587H12.574V12.7826C12.574 12.9455 12.6387 13.1016 12.7538 13.2168C12.869 13.3319 13.0252 13.3966 13.188 13.3966C13.3509 13.3966 13.507 13.3319 13.6222 13.2168C13.7373 13.1016 13.802 12.9455 13.802 12.7826V3.82718C13.8023 3.7466 13.7866 3.66677 13.7557 3.59232C13.7249 3.51787 13.6796 3.45029 13.6225 3.39348L10.4009 0.179565Z" fill="white"/>
<path d="M11.3141 12.8967V6.7976C11.3141 6.505 11.1979 6.22438 10.991 6.01748C10.7841 5.81058 10.5035 5.69434 10.2109 5.69434H7.01522L5.91044 3.85608H1.10326C0.958379 3.85608 0.814915 3.88462 0.681062 3.94006C0.547208 3.9955 0.425585 4.07677 0.323138 4.17922C0.22069 4.28166 0.139425 4.40329 0.0839807 4.53714C0.0285367 4.67099 0 4.81446 0 4.95934V12.8967C0 13.1893 0.116236 13.47 0.323138 13.6769C0.530039 13.8838 0.810658 14 1.10326 14H10.2094C10.3544 14.0002 10.498 13.9718 10.632 13.9165C10.766 13.8611 10.8879 13.7799 10.9905 13.6774C11.0931 13.5749 11.1745 13.4532 11.23 13.3193C11.2855 13.1853 11.3141 13.0417 11.3141 12.8967ZM7.65283 10.0054C7.65283 10.0942 7.61756 10.1794 7.55477 10.2422C7.49199 10.3049 7.40684 10.3402 7.31805 10.3402H6.29239V11.3704C6.29239 11.4592 6.25712 11.5444 6.19434 11.6072C6.13155 11.6699 6.0464 11.7052 5.95761 11.7052H5.36109C5.31712 11.7052 5.27359 11.6966 5.23297 11.6797C5.19236 11.6629 5.15545 11.6382 5.12436 11.6072C5.09327 11.5761 5.06861 11.5392 5.05179 11.4985C5.03497 11.4579 5.02631 11.4144 5.02631 11.3704V10.3478H3.99609C3.9073 10.3478 3.82215 10.3125 3.75936 10.2498C3.69658 10.187 3.66131 10.1018 3.66131 10.013V9.41804C3.66131 9.32925 3.69658 9.24409 3.75936 9.18131C3.82215 9.11853 3.9073 9.08325 3.99609 9.08325H5.02631V8.05456C5.02631 8.01059 5.03497 7.96706 5.05179 7.92644C5.06861 7.88583 5.09327 7.84892 5.12436 7.81783C5.15545 7.78674 5.19236 7.76208 5.23297 7.74526C5.27359 7.72844 5.31712 7.71978 5.36109 7.71978H5.95152C6.04031 7.71978 6.12547 7.75505 6.18825 7.81783C6.25103 7.88062 6.28631 7.96577 6.28631 8.05456V9.08478H7.31652C7.36049 9.08478 7.40402 9.09344 7.44464 9.11026C7.48526 9.12708 7.52216 9.15175 7.55325 9.18283C7.58434 9.21392 7.609 9.25083 7.62582 9.29144C7.64265 9.33206 7.65131 9.3756 7.65131 9.41956L7.65283 10.0054Z" fill="white"/>
</svg>
