<svg width="15" height="16" viewBox="0 0 15 16" fill="none" xmlns="http://www.w3.org/2000/svg">
<path d="M8.1609 4.05834C8.14235 3.70597 7.78226 3.76625 7.43066 3.76625C7.68545 3.83231 7.93083 3.93046 8.1609 4.05834Z" fill="white"/>
<path d="M4.40613 3.1759C4.10418 3.17591 3.80972 3.26994 3.56367 3.44495C3.31761 3.61997 3.13217 3.86727 3.0331 4.1525C2.93403 4.43773 2.92625 4.74674 3.01084 5.0366C3.09543 5.32646 3.26819 5.58278 3.50513 5.76995C3.6692 5.29738 3.94356 4.87072 4.30546 4.52535C4.66735 4.17999 5.10636 3.92585 5.58608 3.78404C5.45173 3.59635 5.27466 3.44332 5.06949 3.33757C4.86432 3.23183 4.63694 3.17641 4.40613 3.1759Z" fill="white"/>
<path d="M1.58885 5.49949C1.64413 5.67617 1.71552 5.8474 1.80212 6.01103L1.35394 6.45921C1.29637 6.51713 1.26406 6.59547 1.26406 6.67712C1.26406 6.75878 1.29637 6.83712 1.35394 6.89503L2.14289 7.68476C2.20084 7.74256 2.27934 7.77503 2.36119 7.77503C2.44303 7.77503 2.52154 7.74256 2.57948 7.68476L3.02689 7.23658C3.09412 7.27212 3.1683 7.29376 3.23785 7.32467C3.23785 7.31926 3.23785 7.31462 3.23785 7.30922C3.23729 6.9605 3.27643 6.61285 3.35453 6.27299C3.10408 6.11412 2.89321 5.90015 2.73801 5.64742C2.5828 5.39468 2.48736 5.10984 2.45894 4.81461C2.43053 4.51939 2.4699 4.22157 2.57406 3.94388C2.67822 3.66618 2.84441 3.41593 3.05996 3.21221C3.27552 3.00849 3.53474 2.85668 3.81787 2.76835C4.10101 2.68002 4.40057 2.65751 4.69372 2.70253C4.98687 2.74754 5.26587 2.85891 5.50945 3.02812C5.75304 3.19733 5.95476 3.41993 6.09926 3.67894C6.46537 3.62992 6.83703 3.64088 7.19962 3.7114C7.14971 3.55414 7.08664 3.40138 7.01108 3.25472L7.45926 2.80653C7.51683 2.74862 7.54914 2.67028 7.54914 2.58862C7.54914 2.50697 7.51683 2.42863 7.45926 2.37072L6.66876 1.58099C6.61088 1.52365 6.5327 1.49149 6.45123 1.49149C6.36977 1.49149 6.29159 1.52365 6.23371 1.58099L5.78399 2.02917C5.62068 1.9421 5.44937 1.87094 5.27244 1.81667V1.18458C5.27244 1.1026 5.23987 1.02398 5.18191 0.966019C5.12394 0.908053 5.04532 0.875488 4.96335 0.875488H3.84753C3.76555 0.875488 3.68694 0.908053 3.62897 0.966019C3.571 1.02398 3.53844 1.1026 3.53844 1.18458V1.81822C3.36157 1.87266 3.19028 1.94382 3.02689 2.03072L2.57871 1.58253C2.5208 1.52497 2.44246 1.49265 2.3608 1.49265C2.27914 1.49265 2.2008 1.52497 2.14289 1.58253L1.35394 2.37072C1.29637 2.42863 1.26406 2.50697 1.26406 2.58862C1.26406 2.67028 1.29637 2.74862 1.35394 2.80653L1.80212 3.25472C1.71566 3.41821 1.64477 3.58948 1.59039 3.76626H0.957529C0.875553 3.76626 0.796934 3.79883 0.738969 3.85679C0.681003 3.91476 0.648438 3.99338 0.648438 4.07535V5.19117C0.648438 5.27315 0.681003 5.35176 0.738969 5.40973C0.796934 5.4677 0.875553 5.50026 0.957529 5.50026L1.58885 5.49949Z" fill="white"/>
<path d="M11.2621 11.4742C11.4505 11.3738 11.6168 11.2364 11.7509 11.0702C11.8849 10.904 11.9841 10.7124 12.0423 10.507C12.1006 10.3015 12.1168 10.0865 12.0899 9.87463C12.0631 9.66279 11.9937 9.45855 11.886 9.27415C11.7784 9.08976 11.6346 8.92899 11.4633 8.8015C11.292 8.67401 11.0967 8.58242 10.8891 8.53221C10.6816 8.482 10.466 8.47421 10.2554 8.5093C10.0447 8.5444 9.84337 8.62166 9.66331 8.73645C9.52195 9.30903 9.29312 9.85637 8.98486 10.3592C9.83063 10.5186 10.6175 10.9039 11.2621 11.4742Z" fill="white"/>
<path d="M14.5566 9.48134C14.5566 9.39314 14.5216 9.30855 14.4593 9.24611C14.397 9.18368 14.3125 9.1485 14.2243 9.14829H13.5412C13.4817 8.95718 13.404 8.77219 13.3094 8.5958L13.7931 8.11207C13.8241 8.0812 13.8486 8.04453 13.8654 8.00415C13.8822 7.96378 13.8908 7.92048 13.8908 7.87677C13.8908 7.83305 13.8822 7.78977 13.8654 7.74939C13.8486 7.70901 13.8241 7.67235 13.7931 7.64148L12.9431 6.79147C12.9123 6.76054 12.8757 6.73599 12.8354 6.71924C12.7951 6.7025 12.7519 6.69388 12.7082 6.69388C12.6646 6.69388 12.6213 6.7025 12.581 6.71924C12.5407 6.73599 12.5041 6.76054 12.4733 6.79147L11.9888 7.27521C11.8125 7.18031 11.6275 7.10267 11.4363 7.04339V6.36029C11.4363 6.31666 11.4277 6.27345 11.411 6.23314C11.3943 6.19283 11.3698 6.15619 11.339 6.12534C11.3081 6.09448 11.2715 6.07002 11.2312 6.05332C11.1909 6.03662 11.1477 6.02802 11.104 6.02802H9.89935C9.82265 6.02847 9.74855 6.05582 9.68994 6.10529C9.79486 6.49634 9.84685 6.8997 9.8445 7.30457C9.84381 7.57973 9.8234 7.85449 9.78344 8.12674C10.0121 8.0398 10.2544 7.99427 10.499 7.99229C10.9489 7.99345 11.3864 8.14002 11.7462 8.41013C12.106 8.68024 12.3688 9.05942 12.4955 9.49113C12.6222 9.92283 12.606 10.3839 12.4492 10.8056C12.2924 11.2273 12.0036 11.5871 11.6256 11.8312C12.0535 12.3002 12.3832 12.8501 12.5954 13.4485C12.6308 13.4618 12.6681 13.4691 12.7059 13.4702C12.7929 13.4693 12.8762 13.4344 12.9377 13.3728L13.7877 12.5228C13.8497 12.4601 13.8844 12.3756 13.8844 12.2875C13.8844 12.1994 13.8497 12.1148 13.7877 12.0522L13.3032 11.5685C13.3979 11.3921 13.4755 11.2071 13.535 11.016H14.2181C14.3064 11.016 14.3912 10.9809 14.4536 10.9184C14.5161 10.856 14.5512 10.7713 14.5512 10.6829L14.5566 9.48134Z" fill="white"/>
<path d="M11.9201 13.7537C11.6675 13.0167 11.2063 12.3688 10.5926 11.8888C9.97895 11.4087 9.23913 11.117 8.46294 11.0492C8.23111 11.3351 7.93838 11.5656 7.6061 11.724C7.27383 11.8823 6.9104 11.9645 6.54233 11.9645C6.17425 11.9645 5.81082 11.8823 5.47855 11.724C5.14627 11.5656 4.85354 11.3351 4.62171 11.0492C3.84538 11.1169 3.1054 11.4085 2.49157 11.8886C1.87775 12.3687 1.41648 13.0166 1.16376 13.7537L0.877848 14.5945C0.837473 14.7136 0.826052 14.8406 0.844531 14.9651C0.86301 15.0895 0.910858 15.2077 0.984113 15.31C1.05737 15.4122 1.15392 15.4956 1.26579 15.5531C1.37765 15.6106 1.50161 15.6407 1.62739 15.6408H11.4557C11.5816 15.6408 11.7056 15.6109 11.8176 15.5534C11.9295 15.4959 12.0262 15.4126 12.0994 15.3103C12.1727 15.208 12.2206 15.0897 12.239 14.9652C12.2574 14.8407 12.2458 14.7136 12.2053 14.5945L11.9201 13.7537Z" fill="white"/>
<path d="M3.97949 7.30921C3.97949 9.19466 5.12699 11.2169 6.54185 11.2169C7.95672 11.2169 9.10499 9.19389 9.10499 7.30921C9.10499 3.40153 3.97949 3.3938 3.97949 7.30921Z" fill="white"/>
</svg>
